%TF.GenerationSoftware,KiCad,Pcbnew,9.0.4*%
%TF.CreationDate,2025-09-03T20:12:05-03:00*%
%TF.ProjectId,Buildplate_v1.0,4275696c-6470-46c6-9174-655f76312e30,rev?*%
%TF.SameCoordinates,Original*%
%TF.FileFunction,Legend,Top*%
%TF.FilePolarity,Positive*%
%FSLAX46Y46*%
G04 Gerber Fmt 4.6, Leading zero omitted, Abs format (unit mm)*
G04 Created by KiCad (PCBNEW 9.0.4) date 2025-09-03 20:12:05*
%MOMM*%
%LPD*%
G01*
G04 APERTURE LIST*
%ADD10C,0.062500*%
%ADD11C,0.097536*%
%ADD12C,0.125000*%
%ADD13C,0.120000*%
%ADD14C,0.000000*%
%ADD15C,0.152400*%
G04 APERTURE END LIST*
D10*
G36*
X-8326404Y54720817D02*
G01*
X-8287587Y54682000D01*
X-8267578Y54641982D01*
X-8245535Y54553807D01*
X-8245535Y54490072D01*
X-8267578Y54401897D01*
X-8287587Y54361879D01*
X-8326404Y54323062D01*
X-8386021Y54303190D01*
X-8468749Y54303190D01*
X-8468749Y54740690D01*
X-8386021Y54740690D01*
X-8326404Y54720817D01*
G37*
G36*
X-10018510Y54722446D02*
G01*
X-10001871Y54705809D01*
X-9983630Y54669325D01*
X-9983630Y54612649D01*
X-10001871Y54576165D01*
X-10018510Y54559528D01*
X-10054996Y54541285D01*
X-10206844Y54541285D01*
X-10206844Y54740690D01*
X-10054996Y54740690D01*
X-10018510Y54722446D01*
G37*
G36*
X-7653667Y54137515D02*
G01*
X-10324900Y54137515D01*
X-10324900Y54236280D01*
X-9886013Y54236280D01*
X-9886013Y54212362D01*
X-9869101Y54195450D01*
X-9857142Y54193071D01*
X-9476189Y54193071D01*
X-9464230Y54195450D01*
X-9447318Y54212362D01*
X-9447318Y54236280D01*
X-9464230Y54253192D01*
X-9476189Y54255571D01*
X-9857142Y54255571D01*
X-9869101Y54253192D01*
X-9886013Y54236280D01*
X-10324900Y54236280D01*
X-10324900Y54771940D01*
X-10269344Y54771940D01*
X-10269344Y54271940D01*
X-10266965Y54259981D01*
X-10250053Y54243069D01*
X-10226135Y54243069D01*
X-10209223Y54259981D01*
X-10206844Y54271940D01*
X-10206844Y54478785D01*
X-10135317Y54478785D01*
X-9977981Y54254019D01*
X-9969174Y54245586D01*
X-9945621Y54241430D01*
X-9926026Y54255146D01*
X-9921870Y54278699D01*
X-9926779Y54289860D01*
X-10059026Y54478785D01*
X-10047618Y54478785D01*
X-10046082Y54479090D01*
X-10045403Y54478864D01*
X-10040572Y54480186D01*
X-10035659Y54481164D01*
X-10035152Y54481670D01*
X-10033642Y54482084D01*
X-9986023Y54505894D01*
X-9982064Y54508966D01*
X-9977902Y54511747D01*
X-9954092Y54535557D01*
X-9951309Y54539721D01*
X-9948238Y54543679D01*
X-9924429Y54591297D01*
X-9924015Y54592807D01*
X-9923509Y54593314D01*
X-9922531Y54598227D01*
X-9921209Y54603058D01*
X-9921435Y54603737D01*
X-9921130Y54605273D01*
X-9921130Y54676702D01*
X-9921435Y54678237D01*
X-9921209Y54678917D01*
X-9922531Y54683747D01*
X-9923509Y54688661D01*
X-9924015Y54689167D01*
X-9924429Y54690678D01*
X-9948238Y54738296D01*
X-9951309Y54742253D01*
X-9954092Y54746418D01*
X-9977902Y54770228D01*
X-9980465Y54771940D01*
X-9388392Y54771940D01*
X-9388392Y54271940D01*
X-9386013Y54259981D01*
X-9369101Y54243069D01*
X-9357142Y54240690D01*
X-9119047Y54240690D01*
X-9107088Y54243069D01*
X-9090176Y54259981D01*
X-9090176Y54283899D01*
X-9107088Y54300811D01*
X-9119047Y54303190D01*
X-9325892Y54303190D01*
X-9325892Y54771940D01*
X-8983630Y54771940D01*
X-8983630Y54271940D01*
X-8981251Y54259981D01*
X-8964339Y54243069D01*
X-8952380Y54240690D01*
X-8714285Y54240690D01*
X-8702326Y54243069D01*
X-8685414Y54259981D01*
X-8685414Y54283899D01*
X-8702326Y54300811D01*
X-8714285Y54303190D01*
X-8921130Y54303190D01*
X-8921130Y54502595D01*
X-8785713Y54502595D01*
X-8773754Y54504974D01*
X-8756842Y54521886D01*
X-8756842Y54545804D01*
X-8773754Y54562716D01*
X-8785713Y54565095D01*
X-8921130Y54565095D01*
X-8921130Y54740690D01*
X-8714285Y54740690D01*
X-8702326Y54743069D01*
X-8685414Y54759981D01*
X-8685414Y54771940D01*
X-8531249Y54771940D01*
X-8531249Y54271940D01*
X-8528870Y54259981D01*
X-8511958Y54243069D01*
X-8499999Y54240690D01*
X-8380951Y54240690D01*
X-8376034Y54241668D01*
X-8371069Y54242294D01*
X-8299641Y54266104D01*
X-8298282Y54266879D01*
X-8297564Y54266879D01*
X-8293393Y54269665D01*
X-8289048Y54272143D01*
X-8288727Y54272783D01*
X-8287426Y54273653D01*
X-8239807Y54321272D01*
X-8237027Y54325432D01*
X-8233953Y54329393D01*
X-8210143Y54377012D01*
X-8209238Y54380314D01*
X-8207777Y54383409D01*
X-8183968Y54478647D01*
X-8183782Y54482470D01*
X-8183035Y54486226D01*
X-8183035Y54557654D01*
X-8183782Y54561409D01*
X-8183968Y54565233D01*
X-8199376Y54626868D01*
X-8054979Y54626868D01*
X-8044283Y54605475D01*
X-8021593Y54597912D01*
X-8009833Y54601132D01*
X-7962214Y54624941D01*
X-7958259Y54628010D01*
X-7954092Y54630795D01*
X-7912201Y54672686D01*
X-7912201Y54303190D01*
X-8023808Y54303190D01*
X-8035767Y54300811D01*
X-8052679Y54283899D01*
X-8052679Y54259981D01*
X-8035767Y54243069D01*
X-8023808Y54240690D01*
X-7738094Y54240690D01*
X-7726135Y54243069D01*
X-7709223Y54259981D01*
X-7709223Y54283899D01*
X-7726135Y54300811D01*
X-7738094Y54303190D01*
X-7849701Y54303190D01*
X-7849701Y54771940D01*
X-7852080Y54783899D01*
X-7854354Y54786173D01*
X-7854986Y54789329D01*
X-7862557Y54794376D01*
X-7868992Y54800811D01*
X-7872209Y54800811D01*
X-7874887Y54802596D01*
X-7883811Y54800811D01*
X-7892910Y54800811D01*
X-7895185Y54798535D01*
X-7898339Y54797905D01*
X-7906953Y54789274D01*
X-7952856Y54720418D01*
X-7994699Y54678576D01*
X-8037783Y54657034D01*
X-8047416Y54649558D01*
X-8054979Y54626868D01*
X-8199376Y54626868D01*
X-8207777Y54660471D01*
X-8209238Y54663565D01*
X-8210143Y54666868D01*
X-8233953Y54714487D01*
X-8237027Y54718447D01*
X-8239807Y54722608D01*
X-8287426Y54770227D01*
X-8288727Y54771096D01*
X-8289048Y54771737D01*
X-8293393Y54774214D01*
X-8297564Y54777001D01*
X-8298282Y54777001D01*
X-8299641Y54777776D01*
X-8371069Y54801586D01*
X-8376034Y54802211D01*
X-8380951Y54803190D01*
X-8499999Y54803190D01*
X-8511958Y54800811D01*
X-8528870Y54783899D01*
X-8531249Y54771940D01*
X-8685414Y54771940D01*
X-8685414Y54783899D01*
X-8702326Y54800811D01*
X-8714285Y54803190D01*
X-8952380Y54803190D01*
X-8964339Y54800811D01*
X-8981251Y54783899D01*
X-8983630Y54771940D01*
X-9325892Y54771940D01*
X-9328271Y54783899D01*
X-9345183Y54800811D01*
X-9369101Y54800811D01*
X-9386013Y54783899D01*
X-9388392Y54771940D01*
X-9980465Y54771940D01*
X-9982064Y54773008D01*
X-9986023Y54776081D01*
X-10033642Y54799891D01*
X-10035152Y54800304D01*
X-10035659Y54800811D01*
X-10040572Y54801788D01*
X-10045403Y54803111D01*
X-10046082Y54802884D01*
X-10047618Y54803190D01*
X-10238094Y54803190D01*
X-10250053Y54800811D01*
X-10266965Y54783899D01*
X-10269344Y54771940D01*
X-10324900Y54771940D01*
X-10324900Y54858746D01*
X-7653667Y54858746D01*
X-7653667Y54137515D01*
G37*
D11*
G36*
X-4770311Y54713236D02*
G01*
X-4735280Y54678205D01*
X-4716829Y54641303D01*
X-4695200Y54554785D01*
X-4695200Y54493641D01*
X-4716829Y54407122D01*
X-4735280Y54370220D01*
X-4770311Y54335189D01*
X-4825033Y54316949D01*
X-4890272Y54316949D01*
X-4890272Y54731477D01*
X-4825033Y54731477D01*
X-4770311Y54713236D01*
G37*
G36*
X-4056800Y54162517D02*
G01*
X-5922528Y54162517D01*
X-5922528Y54780245D01*
X-5865632Y54780245D01*
X-5865632Y54268181D01*
X-5861920Y54249518D01*
X-5835527Y54223125D01*
X-5816864Y54219413D01*
X-5573024Y54219413D01*
X-5554361Y54223125D01*
X-5527968Y54249518D01*
X-5527968Y54286844D01*
X-5554361Y54313237D01*
X-5573024Y54316949D01*
X-5768096Y54316949D01*
X-5768096Y54780245D01*
X-5451104Y54780245D01*
X-5451104Y54268181D01*
X-5447392Y54249518D01*
X-5420999Y54223125D01*
X-5402336Y54219413D01*
X-5158496Y54219413D01*
X-5139833Y54223125D01*
X-5113440Y54249518D01*
X-5113440Y54286844D01*
X-5139833Y54313237D01*
X-5158496Y54316949D01*
X-5353568Y54316949D01*
X-5353568Y54487637D01*
X-5231648Y54487637D01*
X-5212985Y54491349D01*
X-5186592Y54517742D01*
X-5186592Y54555068D01*
X-5212985Y54581461D01*
X-5231648Y54585173D01*
X-5353568Y54585173D01*
X-5353568Y54731477D01*
X-5158496Y54731477D01*
X-5139833Y54735189D01*
X-5113440Y54761582D01*
X-5113440Y54780245D01*
X-4987808Y54780245D01*
X-4987808Y54268181D01*
X-4984096Y54249518D01*
X-4957703Y54223125D01*
X-4939040Y54219413D01*
X-4817120Y54219413D01*
X-4809452Y54220937D01*
X-4801698Y54221916D01*
X-4728546Y54246300D01*
X-4726425Y54247509D01*
X-4725305Y54247509D01*
X-4718804Y54251853D01*
X-4712015Y54255723D01*
X-4711514Y54256724D01*
X-4709484Y54258081D01*
X-4660716Y54306849D01*
X-4656372Y54313348D01*
X-4651581Y54319523D01*
X-4627197Y54368291D01*
X-4625785Y54373442D01*
X-4623504Y54378273D01*
X-4599120Y54475809D01*
X-4598829Y54481776D01*
X-4597664Y54487637D01*
X-4597664Y54560789D01*
X-4598829Y54566649D01*
X-4599120Y54572617D01*
X-4613587Y54630484D01*
X-4500006Y54630484D01*
X-4483313Y54597099D01*
X-4447903Y54585295D01*
X-4429550Y54590322D01*
X-4380783Y54614705D01*
X-4374606Y54619498D01*
X-4368108Y54623841D01*
X-4353824Y54638125D01*
X-4353824Y54316949D01*
X-4451360Y54316949D01*
X-4470023Y54313237D01*
X-4496416Y54286844D01*
X-4496416Y54249518D01*
X-4470023Y54223125D01*
X-4451360Y54219413D01*
X-4158752Y54219413D01*
X-4140089Y54223125D01*
X-4113696Y54249518D01*
X-4113696Y54286844D01*
X-4140089Y54313237D01*
X-4158752Y54316949D01*
X-4256288Y54316949D01*
X-4256288Y54780245D01*
X-4260000Y54798908D01*
X-4263550Y54802458D01*
X-4264535Y54807382D01*
X-4276351Y54815259D01*
X-4286393Y54825301D01*
X-4291414Y54825301D01*
X-4295592Y54828086D01*
X-4309517Y54825301D01*
X-4323719Y54825301D01*
X-4327269Y54821750D01*
X-4332192Y54820766D01*
X-4345633Y54807297D01*
X-4391723Y54738162D01*
X-4431480Y54698405D01*
X-4473170Y54677560D01*
X-4488202Y54665894D01*
X-4500006Y54630484D01*
X-4613587Y54630484D01*
X-4623504Y54670153D01*
X-4625785Y54674983D01*
X-4627197Y54680135D01*
X-4651581Y54728903D01*
X-4656372Y54735077D01*
X-4660716Y54741577D01*
X-4709484Y54790345D01*
X-4711514Y54791701D01*
X-4712015Y54792703D01*
X-4718804Y54796572D01*
X-4725305Y54800917D01*
X-4726425Y54800917D01*
X-4728546Y54802126D01*
X-4801698Y54826510D01*
X-4809452Y54827488D01*
X-4817120Y54829013D01*
X-4939040Y54829013D01*
X-4957703Y54825301D01*
X-4984096Y54798908D01*
X-4987808Y54780245D01*
X-5113440Y54780245D01*
X-5113440Y54798908D01*
X-5139833Y54825301D01*
X-5158496Y54829013D01*
X-5402336Y54829013D01*
X-5420999Y54825301D01*
X-5447392Y54798908D01*
X-5451104Y54780245D01*
X-5768096Y54780245D01*
X-5771808Y54798908D01*
X-5798201Y54825301D01*
X-5835527Y54825301D01*
X-5861920Y54798908D01*
X-5865632Y54780245D01*
X-5922528Y54780245D01*
X-5922528Y54885909D01*
X-4056800Y54885909D01*
X-4056800Y54162517D01*
G37*
D12*
G36*
X1383138Y4870269D02*
G01*
X-1340277Y4870269D01*
X-1340277Y6043880D01*
X-1229166Y6043880D01*
X-1229166Y5043880D01*
X-1224408Y5019962D01*
X-1190584Y4986138D01*
X-1142748Y4986138D01*
X-1108924Y5019962D01*
X-1104166Y5043880D01*
X-1104166Y5808532D01*
X-649503Y5012871D01*
X-633505Y4994465D01*
X-625224Y4992206D01*
X-619156Y4986138D01*
X-602973Y4986138D01*
X-587357Y4981879D01*
X-579904Y4986138D01*
X-571320Y4986138D01*
X-559876Y4997581D01*
X-545823Y5005612D01*
X-543564Y5013893D01*
X-537496Y5019962D01*
X-532738Y5043880D01*
X-532738Y6043880D01*
X-537496Y6067798D01*
X-319646Y6067798D01*
X-319646Y6019962D01*
X-285822Y5986138D01*
X-261904Y5981380D01*
X-38691Y5981380D01*
X-38691Y5043880D01*
X-33933Y5019962D01*
X-109Y4986138D01*
X47727Y4986138D01*
X81551Y5019962D01*
X86309Y5043880D01*
X86309Y5615309D01*
X532738Y5615309D01*
X532738Y5472452D01*
X534231Y5464942D01*
X534604Y5457294D01*
X582223Y5266818D01*
X585146Y5260629D01*
X586955Y5254025D01*
X634574Y5158787D01*
X640721Y5150865D01*
X646282Y5142544D01*
X741520Y5047306D01*
X744121Y5045567D01*
X744763Y5044285D01*
X753474Y5039318D01*
X761797Y5033758D01*
X763228Y5033758D01*
X765949Y5032207D01*
X908807Y4984587D01*
X918745Y4983334D01*
X928571Y4981380D01*
X1023809Y4981380D01*
X1033633Y4983334D01*
X1043574Y4984587D01*
X1186431Y5032207D01*
X1189152Y5033758D01*
X1190583Y5033758D01*
X1198905Y5039318D01*
X1207617Y5044285D01*
X1208258Y5045567D01*
X1210860Y5047306D01*
X1258479Y5094925D01*
X1272027Y5115202D01*
X1272027Y5163036D01*
X1238202Y5196861D01*
X1190368Y5196861D01*
X1170091Y5183313D01*
X1132905Y5146127D01*
X1013665Y5106380D01*
X938715Y5106380D01*
X819474Y5146127D01*
X741843Y5223759D01*
X701826Y5303791D01*
X657738Y5480146D01*
X657738Y5607614D01*
X701826Y5783969D01*
X741843Y5864002D01*
X819474Y5941633D01*
X938714Y5981380D01*
X1013666Y5981380D01*
X1132905Y5941633D01*
X1170091Y5904448D01*
X1190368Y5890900D01*
X1238202Y5890900D01*
X1272027Y5924725D01*
X1272027Y5972559D01*
X1258479Y5992836D01*
X1210860Y6040455D01*
X1208256Y6042194D01*
X1207616Y6043476D01*
X1198911Y6048438D01*
X1190583Y6054003D01*
X1189151Y6054003D01*
X1186430Y6055554D01*
X1043573Y6103173D01*
X1033634Y6104425D01*
X1023809Y6106380D01*
X928571Y6106380D01*
X918746Y6104425D01*
X908806Y6103173D01*
X765950Y6055554D01*
X763229Y6054003D01*
X761797Y6054003D01*
X753468Y6048438D01*
X744764Y6043476D01*
X744123Y6042194D01*
X741520Y6040455D01*
X646282Y5945217D01*
X640721Y5936895D01*
X634574Y5928974D01*
X586955Y5833736D01*
X585146Y5827131D01*
X582223Y5820943D01*
X534604Y5630467D01*
X534231Y5622818D01*
X532738Y5615309D01*
X86309Y5615309D01*
X86309Y5981380D01*
X309523Y5981380D01*
X333441Y5986138D01*
X367265Y6019962D01*
X367265Y6067798D01*
X333441Y6101622D01*
X309523Y6106380D01*
X-261904Y6106380D01*
X-285822Y6101622D01*
X-319646Y6067798D01*
X-537496Y6067798D01*
X-571320Y6101622D01*
X-619156Y6101622D01*
X-652980Y6067798D01*
X-657738Y6043880D01*
X-657738Y5279227D01*
X-1112401Y6074889D01*
X-1128399Y6093295D01*
X-1136679Y6095553D01*
X-1142748Y6101622D01*
X-1158931Y6101622D01*
X-1174547Y6105881D01*
X-1182000Y6101622D01*
X-1190584Y6101622D01*
X-1202029Y6090176D01*
X-1216081Y6082147D01*
X-1218339Y6073866D01*
X-1224408Y6067798D01*
X-1229166Y6043880D01*
X-1340277Y6043880D01*
X-1340277Y6217491D01*
X1383138Y6217491D01*
X1383138Y4870269D01*
G37*
D13*
%TO.C,REF\u002A\u002A*%
X-69085000Y22200000D02*
X-69085000Y18315000D01*
X-69085000Y18315000D02*
X-65915000Y18315000D01*
X-65915000Y18315000D02*
X-65915000Y22200000D01*
X-67737258Y41622500D02*
X-67262742Y41622500D01*
X-67737258Y40577500D02*
X-67262742Y40577500D01*
X-69085000Y51200000D02*
X-69085000Y47315000D01*
X-69085000Y47315000D02*
X-65915000Y47315000D01*
X-65915000Y47315000D02*
X-65915000Y51200000D01*
X-69085000Y-55800000D02*
X-69085000Y-59685000D01*
X-69085000Y-59685000D02*
X-65915000Y-59685000D01*
X-65915000Y-59685000D02*
X-65915000Y-55800000D01*
D14*
%TO.C,R_LED1*%
G36*
X-8771400Y55619000D02*
G01*
X-9228600Y55619000D01*
X-9228600Y56381000D01*
X-8771400Y56381000D01*
X-8771400Y55619000D01*
G37*
D13*
%TO.C,REF\u002A\u002A*%
X-69085000Y-4800000D02*
X-69085000Y-8685000D01*
X-69085000Y-8685000D02*
X-65915000Y-8685000D01*
X-65915000Y-8685000D02*
X-65915000Y-4800000D01*
D15*
%TO.C,LED1*%
X-5000000Y56762000D02*
X-5000000Y55238000D01*
X-5000000Y55238000D02*
X-3349000Y55238000D01*
X-3349000Y56762000D02*
X-5000000Y56762000D01*
X-3349000Y55238000D02*
X-3349000Y56762000D01*
D13*
%TO.C,REF\u002A\u002A*%
X-69085000Y-33800000D02*
X-69085000Y-37685000D01*
X-69085000Y-37685000D02*
X-65915000Y-37685000D01*
X-65915000Y-37685000D02*
X-65915000Y-33800000D01*
X-69085000Y12200000D02*
X-69085000Y8315000D01*
X-69085000Y8315000D02*
X-65915000Y8315000D01*
X-65915000Y8315000D02*
X-65915000Y12200000D01*
X-69085000Y200000D02*
X-69085000Y-3685000D01*
X-69085000Y-3685000D02*
X-65915000Y-3685000D01*
X-65915000Y-3685000D02*
X-65915000Y200000D01*
X-69085000Y5200000D02*
X-69085000Y1315000D01*
X-69085000Y1315000D02*
X-65915000Y1315000D01*
X-65915000Y1315000D02*
X-65915000Y5200000D01*
X-67737258Y-26377500D02*
X-67262742Y-26377500D01*
X-67737258Y-27422500D02*
X-67262742Y-27422500D01*
X-67737258Y58622500D02*
X-67262742Y58622500D01*
X-67737258Y57577500D02*
X-67262742Y57577500D01*
X-67737258Y-43377500D02*
X-67262742Y-43377500D01*
X-67737258Y-44422500D02*
X-67262742Y-44422500D01*
X-69085000Y-50800000D02*
X-69085000Y-54685000D01*
X-69085000Y-54685000D02*
X-65915000Y-54685000D01*
X-65915000Y-54685000D02*
X-65915000Y-50800000D01*
X-67737258Y-9377500D02*
X-67262742Y-9377500D01*
X-67737258Y-10422500D02*
X-67262742Y-10422500D01*
X-69085000Y68200000D02*
X-69085000Y64315000D01*
X-69085000Y64315000D02*
X-65915000Y64315000D01*
X-65915000Y64315000D02*
X-65915000Y68200000D01*
X-69085000Y-45800000D02*
X-69085000Y-49685000D01*
X-69085000Y-49685000D02*
X-65915000Y-49685000D01*
X-65915000Y-49685000D02*
X-65915000Y-45800000D01*
X-69085000Y63200000D02*
X-69085000Y59315000D01*
X-69085000Y59315000D02*
X-65915000Y59315000D01*
X-65915000Y59315000D02*
X-65915000Y63200000D01*
X-69085000Y17200000D02*
X-69085000Y13315000D01*
X-69085000Y13315000D02*
X-65915000Y13315000D01*
X-65915000Y13315000D02*
X-65915000Y17200000D01*
D14*
%TO.C,NTC*%
G36*
X228600Y3619000D02*
G01*
X-228600Y3619000D01*
X-228600Y4381000D01*
X228600Y4381000D01*
X228600Y3619000D01*
G37*
D13*
%TO.C,REF\u002A\u002A*%
X-67737258Y75622500D02*
X-67262742Y75622500D01*
X-67737258Y74577500D02*
X-67262742Y74577500D01*
X-67737258Y24622500D02*
X-67262742Y24622500D01*
X-67737258Y23577500D02*
X-67262742Y23577500D01*
X-69085000Y56200000D02*
X-69085000Y52315000D01*
X-69085000Y52315000D02*
X-65915000Y52315000D01*
X-65915000Y52315000D02*
X-65915000Y56200000D01*
X-69085000Y29200000D02*
X-69085000Y25315000D01*
X-69085000Y25315000D02*
X-65915000Y25315000D01*
X-65915000Y25315000D02*
X-65915000Y29200000D01*
X-69085000Y73200000D02*
X-69085000Y69315000D01*
X-69085000Y69315000D02*
X-65915000Y69315000D01*
X-65915000Y69315000D02*
X-65915000Y73200000D01*
X-67737258Y7622500D02*
X-67262742Y7622500D01*
X-67737258Y6577500D02*
X-67262742Y6577500D01*
X-69085000Y-38800000D02*
X-69085000Y-42685000D01*
X-69085000Y-42685000D02*
X-65915000Y-42685000D01*
X-65915000Y-42685000D02*
X-65915000Y-38800000D01*
X-69085000Y-11800000D02*
X-69085000Y-15685000D01*
X-69085000Y-15685000D02*
X-65915000Y-15685000D01*
X-65915000Y-15685000D02*
X-65915000Y-11800000D01*
X-69085000Y39200000D02*
X-69085000Y35315000D01*
X-69085000Y35315000D02*
X-65915000Y35315000D01*
X-65915000Y35315000D02*
X-65915000Y39200000D01*
X-69085000Y34200000D02*
X-69085000Y30315000D01*
X-69085000Y30315000D02*
X-65915000Y30315000D01*
X-65915000Y30315000D02*
X-65915000Y34200000D01*
X-69085000Y-28800000D02*
X-69085000Y-32685000D01*
X-69085000Y-32685000D02*
X-65915000Y-32685000D01*
X-65915000Y-32685000D02*
X-65915000Y-28800000D01*
X-69085000Y-21800000D02*
X-69085000Y-25685000D01*
X-69085000Y-25685000D02*
X-65915000Y-25685000D01*
X-65915000Y-25685000D02*
X-65915000Y-21800000D01*
X-69085000Y46200000D02*
X-69085000Y42315000D01*
X-69085000Y42315000D02*
X-65915000Y42315000D01*
X-65915000Y42315000D02*
X-65915000Y46200000D01*
X-69085000Y-16800000D02*
X-69085000Y-20685000D01*
X-69085000Y-20685000D02*
X-65915000Y-20685000D01*
X-65915000Y-20685000D02*
X-65915000Y-16800000D01*
%TD*%
G36*
X-40996632Y82496632D02*
G01*
X-35999999Y77500000D01*
X-20000001Y77500000D01*
X-20000000Y77500001D01*
X-20000000Y78513500D01*
X-19996632Y78521632D01*
X-19988500Y78525000D01*
X-15011500Y78525000D01*
X-15003368Y78521632D01*
X-15000000Y78513500D01*
X-15000000Y77500000D01*
X-14999999Y77499999D01*
X-14782239Y77497624D01*
X-14781362Y77497581D01*
X-14347558Y77459628D01*
X-14346563Y77459497D01*
X-13917780Y77383892D01*
X-13916801Y77383675D01*
X-13496237Y77270985D01*
X-13495280Y77270683D01*
X-13086152Y77121773D01*
X-13085225Y77121390D01*
X-12690605Y76937376D01*
X-12689715Y76936912D01*
X-12312656Y76719216D01*
X-12311810Y76718677D01*
X-11955160Y76468948D01*
X-11954364Y76468338D01*
X-11620825Y76188466D01*
X-11620085Y76187788D01*
X-11312211Y75879914D01*
X-11311533Y75879174D01*
X-11031661Y75545635D01*
X-11031051Y75544839D01*
X-10781322Y75188189D01*
X-10780783Y75187343D01*
X-10563087Y74810284D01*
X-10562623Y74809394D01*
X-10378609Y74414774D01*
X-10378226Y74413847D01*
X-10229316Y74004719D01*
X-10229014Y74003762D01*
X-10116324Y73583198D01*
X-10116107Y73582219D01*
X-10040502Y73153436D01*
X-10040371Y73152441D01*
X-10002418Y72718637D01*
X-10002375Y72717760D01*
X-10000001Y72500125D01*
X-10000000Y72500000D01*
X-10000000Y67500000D01*
X-10000001Y67499875D01*
X-10002375Y67282239D01*
X-10002418Y67281362D01*
X-10040371Y66847558D01*
X-10040502Y66846563D01*
X-10116107Y66417780D01*
X-10116324Y66416801D01*
X-10229014Y65996237D01*
X-10229316Y65995280D01*
X-10378226Y65586152D01*
X-10378609Y65585225D01*
X-10562623Y65190605D01*
X-10563087Y65189715D01*
X-10780783Y64812656D01*
X-10781322Y64811810D01*
X-11031051Y64455160D01*
X-11031661Y64454364D01*
X-11311533Y64120825D01*
X-11312211Y64120085D01*
X-11620085Y63812211D01*
X-11620825Y63811533D01*
X-11954364Y63531661D01*
X-11955160Y63531051D01*
X-12311810Y63281322D01*
X-12312656Y63280783D01*
X-12689715Y63063087D01*
X-12690605Y63062623D01*
X-13085225Y62878609D01*
X-13086152Y62878226D01*
X-13495280Y62729316D01*
X-13496237Y62729014D01*
X-13916801Y62616324D01*
X-13917780Y62616107D01*
X-14346563Y62540502D01*
X-14347558Y62540371D01*
X-14781362Y62502418D01*
X-14782239Y62502375D01*
X-14999908Y62500001D01*
X-15000033Y62500000D01*
X-44999999Y62500000D01*
X-45000000Y62499999D01*
X-45000000Y61486500D01*
X-45003368Y61478368D01*
X-45011500Y61475000D01*
X-49988500Y61475000D01*
X-49996632Y61478368D01*
X-50000000Y61486500D01*
X-50000000Y62499999D01*
X-50000001Y62500000D01*
X-56499934Y62500000D01*
X-56500079Y62500001D01*
X-56682775Y62502309D01*
X-56683832Y62502371D01*
X-57047306Y62540573D01*
X-57048495Y62540761D01*
X-57405923Y62616735D01*
X-57407086Y62617047D01*
X-57754604Y62729962D01*
X-57755727Y62730393D01*
X-58089546Y62879019D01*
X-58090619Y62879566D01*
X-58407061Y63062264D01*
X-58408071Y63062919D01*
X-58703702Y63277707D01*
X-58704637Y63278465D01*
X-58976182Y63522966D01*
X-58977033Y63523817D01*
X-59221534Y63795362D01*
X-59222292Y63796297D01*
X-59437080Y64091928D01*
X-59437735Y64092938D01*
X-59620433Y64409380D01*
X-59620980Y64410453D01*
X-59769606Y64744272D01*
X-59770037Y64745395D01*
X-59882952Y65092913D01*
X-59883264Y65094076D01*
X-59959238Y65451504D01*
X-59959426Y65452693D01*
X-59997628Y65816167D01*
X-59997690Y65817224D01*
X-59999999Y65999920D01*
X-60000000Y66000000D01*
X-57502579Y66000000D01*
X-57502579Y65999999D01*
X-57482056Y65798185D01*
X-57421325Y65604625D01*
X-57322880Y65427260D01*
X-57190741Y65273337D01*
X-57030332Y65149171D01*
X-57030327Y65149168D01*
X-56848201Y65059830D01*
X-56848197Y65059828D01*
X-56651818Y65008983D01*
X-56651812Y65008982D01*
X-56449219Y64998707D01*
X-56449217Y64998707D01*
X-56248708Y65029425D01*
X-56248694Y65029429D01*
X-56058472Y65099878D01*
X-56058468Y65099880D01*
X-55886317Y65207183D01*
X-55739286Y65346946D01*
X-55623399Y65513446D01*
X-55623397Y65513450D01*
X-55543401Y65699862D01*
X-55502565Y65898574D01*
X-55500000Y65999987D01*
X-55500000Y66000000D01*
X-45502579Y66000000D01*
X-45502579Y65999999D01*
X-45482056Y65798185D01*
X-45421325Y65604625D01*
X-45322880Y65427260D01*
X-45190741Y65273337D01*
X-45030332Y65149171D01*
X-45030327Y65149168D01*
X-44848201Y65059830D01*
X-44848197Y65059828D01*
X-44651818Y65008983D01*
X-44651812Y65008982D01*
X-44449219Y64998707D01*
X-44449217Y64998707D01*
X-44248708Y65029425D01*
X-44248694Y65029429D01*
X-44058472Y65099878D01*
X-44058468Y65099880D01*
X-43886317Y65207183D01*
X-43739286Y65346946D01*
X-43623399Y65513446D01*
X-43623397Y65513450D01*
X-43543401Y65699862D01*
X-43502565Y65898574D01*
X-43500000Y65999987D01*
X-43500000Y66000012D01*
X-43502565Y66101425D01*
X-43543401Y66300137D01*
X-43623397Y66486549D01*
X-43623399Y66486553D01*
X-43739286Y66653053D01*
X-43886317Y66792816D01*
X-44058468Y66900119D01*
X-44058472Y66900121D01*
X-44248694Y66970570D01*
X-44248708Y66970574D01*
X-44449218Y67001292D01*
X-44651812Y66991017D01*
X-44651818Y66991016D01*
X-44848197Y66940171D01*
X-44848201Y66940169D01*
X-45030327Y66850831D01*
X-45030332Y66850828D01*
X-45190741Y66726662D01*
X-45322880Y66572739D01*
X-45421325Y66395374D01*
X-45482056Y66201814D01*
X-45502579Y66000000D01*
X-55500000Y66000000D01*
X-55500000Y66000012D01*
X-55502565Y66101425D01*
X-55543401Y66300137D01*
X-55623397Y66486549D01*
X-55623399Y66486553D01*
X-55739286Y66653053D01*
X-55886317Y66792816D01*
X-56058468Y66900119D01*
X-56058472Y66900121D01*
X-56248694Y66970570D01*
X-56248708Y66970574D01*
X-56449218Y67001292D01*
X-56651812Y66991017D01*
X-56651818Y66991016D01*
X-56848197Y66940171D01*
X-56848201Y66940169D01*
X-57030327Y66850831D01*
X-57030332Y66850828D01*
X-57190741Y66726662D01*
X-57322880Y66572739D01*
X-57421325Y66395374D01*
X-57482056Y66201814D01*
X-57502579Y66000000D01*
X-60000000Y66000000D01*
X-60000000Y66000065D01*
X-60000000Y70124079D01*
X-36497438Y70124079D01*
X-36497438Y69875920D01*
X-36456593Y69631150D01*
X-36456591Y69631140D01*
X-36376014Y69396426D01*
X-36376010Y69396418D01*
X-36257905Y69178176D01*
X-36257902Y69178173D01*
X-36105478Y68982338D01*
X-35922897Y68814260D01*
X-35715152Y68678532D01*
X-35715143Y68678528D01*
X-35487891Y68578845D01*
X-35487881Y68578842D01*
X-35247320Y68517924D01*
X-35000000Y68497430D01*
X-34752679Y68517924D01*
X-34512118Y68578842D01*
X-34512108Y68578845D01*
X-34284856Y68678528D01*
X-34284847Y68678532D01*
X-34077102Y68814260D01*
X-33894521Y68982338D01*
X-33742097Y69178173D01*
X-33742094Y69178176D01*
X-33623989Y69396418D01*
X-33623985Y69396426D01*
X-33543408Y69631140D01*
X-33543406Y69631150D01*
X-33502563Y69875910D01*
X-33502562Y69875916D01*
X-33500000Y70000000D01*
X-33502562Y70124079D01*
X-26497438Y70124079D01*
X-26497438Y69875920D01*
X-26456593Y69631150D01*
X-26456591Y69631140D01*
X-26376014Y69396426D01*
X-26376010Y69396418D01*
X-26257905Y69178176D01*
X-26257902Y69178173D01*
X-26105478Y68982338D01*
X-25922897Y68814260D01*
X-25715152Y68678532D01*
X-25715143Y68678528D01*
X-25487891Y68578845D01*
X-25487881Y68578842D01*
X-25247320Y68517924D01*
X-25000000Y68497430D01*
X-24752679Y68517924D01*
X-24512118Y68578842D01*
X-24512108Y68578845D01*
X-24284856Y68678528D01*
X-24284847Y68678532D01*
X-24077102Y68814260D01*
X-23894521Y68982338D01*
X-23742097Y69178173D01*
X-23742094Y69178176D01*
X-23623989Y69396418D01*
X-23623985Y69396426D01*
X-23543408Y69631140D01*
X-23543406Y69631150D01*
X-23502563Y69875910D01*
X-23502562Y69875916D01*
X-23500000Y70000000D01*
X-23502562Y70124079D01*
X-16497438Y70124079D01*
X-16497438Y69875920D01*
X-16456593Y69631150D01*
X-16456591Y69631140D01*
X-16376014Y69396426D01*
X-16376010Y69396418D01*
X-16257905Y69178176D01*
X-16257902Y69178173D01*
X-16105478Y68982338D01*
X-15922897Y68814260D01*
X-15715152Y68678532D01*
X-15715143Y68678528D01*
X-15487891Y68578845D01*
X-15487881Y68578842D01*
X-15247320Y68517924D01*
X-15000000Y68497430D01*
X-14752679Y68517924D01*
X-14512118Y68578842D01*
X-14512108Y68578845D01*
X-14284856Y68678528D01*
X-14284847Y68678532D01*
X-14077102Y68814260D01*
X-13894521Y68982338D01*
X-13742097Y69178173D01*
X-13742094Y69178176D01*
X-13623989Y69396418D01*
X-13623985Y69396426D01*
X-13543408Y69631140D01*
X-13543406Y69631150D01*
X-13502563Y69875910D01*
X-13502562Y69875916D01*
X-13500000Y70000000D01*
X-13502562Y70124083D01*
X-13502563Y70124089D01*
X-13543406Y70368849D01*
X-13543408Y70368859D01*
X-13623985Y70603573D01*
X-13623989Y70603581D01*
X-13742094Y70821823D01*
X-13742097Y70821826D01*
X-13894521Y71017661D01*
X-14077102Y71185739D01*
X-14284847Y71321467D01*
X-14284856Y71321471D01*
X-14512108Y71421154D01*
X-14512118Y71421157D01*
X-14752679Y71482075D01*
X-15000000Y71502570D01*
X-15247320Y71482075D01*
X-15487881Y71421157D01*
X-15487891Y71421154D01*
X-15715143Y71321471D01*
X-15715152Y71321467D01*
X-15922897Y71185739D01*
X-16105478Y71017661D01*
X-16257902Y70821826D01*
X-16257905Y70821823D01*
X-16376010Y70603581D01*
X-16376014Y70603573D01*
X-16456591Y70368859D01*
X-16456593Y70368849D01*
X-16497438Y70124079D01*
X-23502562Y70124079D01*
X-23502562Y70124083D01*
X-23502563Y70124089D01*
X-23543406Y70368849D01*
X-23543408Y70368859D01*
X-23623985Y70603573D01*
X-23623989Y70603581D01*
X-23742094Y70821823D01*
X-23742097Y70821826D01*
X-23894521Y71017661D01*
X-24077102Y71185739D01*
X-24284847Y71321467D01*
X-24284856Y71321471D01*
X-24512108Y71421154D01*
X-24512118Y71421157D01*
X-24752679Y71482075D01*
X-25000000Y71502570D01*
X-25247320Y71482075D01*
X-25487881Y71421157D01*
X-25487891Y71421154D01*
X-25715143Y71321471D01*
X-25715152Y71321467D01*
X-25922897Y71185739D01*
X-26105478Y71017661D01*
X-26257902Y70821826D01*
X-26257905Y70821823D01*
X-26376010Y70603581D01*
X-26376014Y70603573D01*
X-26456591Y70368859D01*
X-26456593Y70368849D01*
X-26497438Y70124079D01*
X-33502562Y70124079D01*
X-33502562Y70124083D01*
X-33502563Y70124089D01*
X-33543406Y70368849D01*
X-33543408Y70368859D01*
X-33623985Y70603573D01*
X-33623989Y70603581D01*
X-33742094Y70821823D01*
X-33742097Y70821826D01*
X-33894521Y71017661D01*
X-34077102Y71185739D01*
X-34284847Y71321467D01*
X-34284856Y71321471D01*
X-34512108Y71421154D01*
X-34512118Y71421157D01*
X-34752679Y71482075D01*
X-35000000Y71502570D01*
X-35247320Y71482075D01*
X-35487881Y71421157D01*
X-35487891Y71421154D01*
X-35715143Y71321471D01*
X-35715152Y71321467D01*
X-35922897Y71185739D01*
X-36105478Y71017661D01*
X-36257902Y70821826D01*
X-36257905Y70821823D01*
X-36376010Y70603581D01*
X-36376014Y70603573D01*
X-36456591Y70368859D01*
X-36456593Y70368849D01*
X-36497438Y70124079D01*
X-60000000Y70124079D01*
X-60000000Y78999934D01*
X-60000000Y79000000D01*
X-57502579Y79000000D01*
X-57502579Y78999999D01*
X-57482056Y78798185D01*
X-57421325Y78604625D01*
X-57322880Y78427260D01*
X-57190741Y78273337D01*
X-57030332Y78149171D01*
X-57030327Y78149168D01*
X-56848201Y78059830D01*
X-56848197Y78059828D01*
X-56651818Y78008983D01*
X-56651812Y78008982D01*
X-56449219Y77998707D01*
X-56449217Y77998707D01*
X-56248708Y78029425D01*
X-56248694Y78029429D01*
X-56058472Y78099878D01*
X-56058468Y78099880D01*
X-55886317Y78207183D01*
X-55739286Y78346946D01*
X-55623399Y78513446D01*
X-55623397Y78513450D01*
X-55543401Y78699862D01*
X-55502565Y78898574D01*
X-55500000Y78999987D01*
X-55500000Y79000000D01*
X-45502579Y79000000D01*
X-45502579Y78999999D01*
X-45482056Y78798185D01*
X-45421325Y78604625D01*
X-45322880Y78427260D01*
X-45190741Y78273337D01*
X-45030332Y78149171D01*
X-45030327Y78149168D01*
X-44848201Y78059830D01*
X-44848197Y78059828D01*
X-44651818Y78008983D01*
X-44651812Y78008982D01*
X-44449219Y77998707D01*
X-44449217Y77998707D01*
X-44248708Y78029425D01*
X-44248694Y78029429D01*
X-44058472Y78099878D01*
X-44058468Y78099880D01*
X-43886317Y78207183D01*
X-43739286Y78346946D01*
X-43623399Y78513446D01*
X-43623397Y78513450D01*
X-43543401Y78699862D01*
X-43502565Y78898574D01*
X-43500000Y78999987D01*
X-43500000Y79000012D01*
X-43502565Y79101425D01*
X-43543401Y79300137D01*
X-43623397Y79486549D01*
X-43623399Y79486553D01*
X-43739286Y79653053D01*
X-43886317Y79792816D01*
X-44058468Y79900119D01*
X-44058472Y79900121D01*
X-44248694Y79970570D01*
X-44248708Y79970574D01*
X-44449218Y80001292D01*
X-44651812Y79991017D01*
X-44651818Y79991016D01*
X-44848197Y79940171D01*
X-44848201Y79940169D01*
X-45030327Y79850831D01*
X-45030332Y79850828D01*
X-45190741Y79726662D01*
X-45322880Y79572739D01*
X-45421325Y79395374D01*
X-45482056Y79201814D01*
X-45502579Y79000000D01*
X-55500000Y79000000D01*
X-55500000Y79000012D01*
X-55502565Y79101425D01*
X-55543401Y79300137D01*
X-55623397Y79486549D01*
X-55623399Y79486553D01*
X-55739286Y79653053D01*
X-55886317Y79792816D01*
X-56058468Y79900119D01*
X-56058472Y79900121D01*
X-56248694Y79970570D01*
X-56248708Y79970574D01*
X-56449218Y80001292D01*
X-56651812Y79991017D01*
X-56651818Y79991016D01*
X-56848197Y79940171D01*
X-56848201Y79940169D01*
X-57030327Y79850831D01*
X-57030332Y79850828D01*
X-57190741Y79726662D01*
X-57322880Y79572739D01*
X-57421325Y79395374D01*
X-57482056Y79201814D01*
X-57502579Y79000000D01*
X-60000000Y79000000D01*
X-59999999Y79000079D01*
X-59997690Y79182775D01*
X-59997628Y79183832D01*
X-59959426Y79547306D01*
X-59959238Y79548495D01*
X-59883264Y79905923D01*
X-59882952Y79907086D01*
X-59770037Y80254604D01*
X-59769606Y80255727D01*
X-59620980Y80589546D01*
X-59620433Y80590619D01*
X-59437735Y80907061D01*
X-59437080Y80908071D01*
X-59222292Y81203702D01*
X-59221534Y81204637D01*
X-58977033Y81476182D01*
X-58976182Y81477033D01*
X-58704637Y81721534D01*
X-58703702Y81722292D01*
X-58408071Y81937080D01*
X-58407061Y81937735D01*
X-58090619Y82120433D01*
X-58089546Y82120980D01*
X-57755727Y82269606D01*
X-57754604Y82270037D01*
X-57407086Y82382952D01*
X-57405923Y82383264D01*
X-57048495Y82459238D01*
X-57047306Y82459426D01*
X-56683832Y82497628D01*
X-56682775Y82497690D01*
X-56500079Y82499999D01*
X-56499934Y82500000D01*
X-41004764Y82500000D01*
X-40996632Y82496632D01*
G37*
G36*
X-45003368Y62364492D02*
G01*
X-45000000Y62356360D01*
X-45000000Y60000001D01*
X-44999999Y60000000D01*
X44999999Y60000000D01*
X45000000Y60000001D01*
X45000000Y62331360D01*
X45003368Y62339492D01*
X45011500Y62342860D01*
X49988500Y62342860D01*
X49996632Y62339492D01*
X50000000Y62331360D01*
X50000000Y60000001D01*
X50000001Y60000000D01*
X54999967Y60000000D01*
X55000092Y59999999D01*
X55217760Y59997624D01*
X55218637Y59997581D01*
X55652441Y59959628D01*
X55653436Y59959497D01*
X56082219Y59883892D01*
X56083198Y59883675D01*
X56503762Y59770985D01*
X56504719Y59770683D01*
X56913847Y59621773D01*
X56914774Y59621390D01*
X57309394Y59437376D01*
X57310284Y59436912D01*
X57687343Y59219216D01*
X57688189Y59218677D01*
X58044839Y58968948D01*
X58045635Y58968338D01*
X58379174Y58688466D01*
X58379914Y58687788D01*
X58687788Y58379914D01*
X58688466Y58379174D01*
X58968338Y58045635D01*
X58968948Y58044839D01*
X59218677Y57688189D01*
X59219216Y57687343D01*
X59436912Y57310284D01*
X59437376Y57309394D01*
X59621390Y56914774D01*
X59621773Y56913847D01*
X59770683Y56504719D01*
X59770985Y56503762D01*
X59883675Y56083198D01*
X59883892Y56082219D01*
X59959497Y55653436D01*
X59959628Y55652441D01*
X59997581Y55218637D01*
X59997624Y55217760D01*
X59999999Y55000125D01*
X60000000Y55000000D01*
X60000000Y-55000000D01*
X59999999Y-55000125D01*
X59997624Y-55217760D01*
X59997581Y-55218637D01*
X59959628Y-55652441D01*
X59959497Y-55653436D01*
X59883892Y-56082219D01*
X59883675Y-56083198D01*
X59770985Y-56503762D01*
X59770683Y-56504719D01*
X59621773Y-56913847D01*
X59621390Y-56914774D01*
X59437376Y-57309394D01*
X59436912Y-57310284D01*
X59219216Y-57687343D01*
X59218677Y-57688189D01*
X58968948Y-58044839D01*
X58968338Y-58045635D01*
X58688466Y-58379174D01*
X58687788Y-58379914D01*
X58379914Y-58687788D01*
X58379174Y-58688466D01*
X58045635Y-58968338D01*
X58044839Y-58968948D01*
X57688189Y-59218677D01*
X57687343Y-59219216D01*
X57310284Y-59436912D01*
X57309394Y-59437376D01*
X56914774Y-59621390D01*
X56913847Y-59621773D01*
X56504719Y-59770683D01*
X56503762Y-59770985D01*
X56083198Y-59883675D01*
X56082219Y-59883892D01*
X55653436Y-59959497D01*
X55652441Y-59959628D01*
X55218637Y-59997581D01*
X55217760Y-59997624D01*
X55000092Y-59999999D01*
X54999967Y-60000000D01*
X-54999967Y-60000000D01*
X-55000092Y-59999999D01*
X-55217760Y-59997624D01*
X-55218637Y-59997581D01*
X-55652441Y-59959628D01*
X-55653436Y-59959497D01*
X-56082219Y-59883892D01*
X-56083198Y-59883675D01*
X-56503762Y-59770985D01*
X-56504719Y-59770683D01*
X-56913847Y-59621773D01*
X-56914774Y-59621390D01*
X-57309394Y-59437376D01*
X-57310284Y-59436912D01*
X-57687343Y-59219216D01*
X-57688189Y-59218677D01*
X-58044839Y-58968948D01*
X-58045635Y-58968338D01*
X-58379174Y-58688466D01*
X-58379914Y-58687788D01*
X-58687788Y-58379914D01*
X-58688466Y-58379174D01*
X-58968338Y-58045635D01*
X-58968948Y-58044839D01*
X-59218677Y-57688189D01*
X-59219216Y-57687343D01*
X-59436912Y-57310284D01*
X-59437376Y-57309394D01*
X-59621390Y-56914774D01*
X-59621773Y-56913847D01*
X-59770683Y-56504719D01*
X-59770985Y-56503762D01*
X-59883675Y-56083198D01*
X-59883892Y-56082219D01*
X-59959497Y-55653436D01*
X-59959628Y-55652441D01*
X-59997581Y-55218637D01*
X-59997624Y-55217760D01*
X-59999999Y-55000125D01*
X-60000000Y-55000000D01*
X-60000000Y-54875920D01*
X-56497438Y-54875920D01*
X-56497438Y-55124079D01*
X-56456593Y-55368849D01*
X-56456591Y-55368859D01*
X-56376014Y-55603573D01*
X-56376010Y-55603581D01*
X-56257905Y-55821823D01*
X-56257902Y-55821826D01*
X-56105478Y-56017661D01*
X-55922897Y-56185739D01*
X-55715152Y-56321467D01*
X-55715143Y-56321471D01*
X-55487891Y-56421154D01*
X-55487881Y-56421157D01*
X-55247320Y-56482075D01*
X-55000000Y-56502570D01*
X-54752679Y-56482075D01*
X-54512118Y-56421157D01*
X-54512108Y-56421154D01*
X-54284856Y-56321471D01*
X-54284847Y-56321467D01*
X-54077102Y-56185739D01*
X-53894521Y-56017661D01*
X-53742097Y-55821826D01*
X-53742094Y-55821823D01*
X-53623989Y-55603581D01*
X-53623985Y-55603573D01*
X-53543408Y-55368859D01*
X-53543406Y-55368849D01*
X-53502563Y-55124089D01*
X-53502562Y-55124083D01*
X-53500000Y-55000000D01*
X-53502562Y-54875920D01*
X53502562Y-54875920D01*
X53502562Y-55124079D01*
X53543406Y-55368849D01*
X53543408Y-55368859D01*
X53623985Y-55603573D01*
X53623989Y-55603581D01*
X53742094Y-55821823D01*
X53742097Y-55821826D01*
X53894521Y-56017661D01*
X54077102Y-56185739D01*
X54284847Y-56321467D01*
X54284856Y-56321471D01*
X54512108Y-56421154D01*
X54512118Y-56421157D01*
X54752679Y-56482075D01*
X55000000Y-56502570D01*
X55247320Y-56482075D01*
X55487881Y-56421157D01*
X55487891Y-56421154D01*
X55715143Y-56321471D01*
X55715152Y-56321467D01*
X55922897Y-56185739D01*
X56105478Y-56017661D01*
X56257902Y-55821826D01*
X56257905Y-55821823D01*
X56376010Y-55603581D01*
X56376014Y-55603573D01*
X56456591Y-55368859D01*
X56456593Y-55368849D01*
X56497436Y-55124089D01*
X56497437Y-55124083D01*
X56499999Y-55000000D01*
X56497437Y-54875916D01*
X56497436Y-54875910D01*
X56456593Y-54631150D01*
X56456591Y-54631140D01*
X56376014Y-54396426D01*
X56376010Y-54396418D01*
X56257905Y-54178176D01*
X56257902Y-54178173D01*
X56105478Y-53982338D01*
X55922897Y-53814260D01*
X55715152Y-53678532D01*
X55715143Y-53678528D01*
X55487891Y-53578845D01*
X55487881Y-53578842D01*
X55247320Y-53517924D01*
X55000000Y-53497430D01*
X54752679Y-53517924D01*
X54512118Y-53578842D01*
X54512108Y-53578845D01*
X54284856Y-53678528D01*
X54284847Y-53678532D01*
X54077102Y-53814260D01*
X53894521Y-53982338D01*
X53742097Y-54178173D01*
X53742094Y-54178176D01*
X53623989Y-54396418D01*
X53623985Y-54396426D01*
X53543408Y-54631140D01*
X53543406Y-54631150D01*
X53502562Y-54875920D01*
X-53502562Y-54875920D01*
X-53502562Y-54875916D01*
X-53502563Y-54875910D01*
X-53543406Y-54631150D01*
X-53543408Y-54631140D01*
X-53623985Y-54396426D01*
X-53623989Y-54396418D01*
X-53742094Y-54178176D01*
X-53742097Y-54178173D01*
X-53894521Y-53982338D01*
X-54077102Y-53814260D01*
X-54284847Y-53678532D01*
X-54284856Y-53678528D01*
X-54512108Y-53578845D01*
X-54512118Y-53578842D01*
X-54752679Y-53517924D01*
X-55000000Y-53497430D01*
X-55247320Y-53517924D01*
X-55487881Y-53578842D01*
X-55487891Y-53578845D01*
X-55715143Y-53678528D01*
X-55715152Y-53678532D01*
X-55922897Y-53814260D01*
X-56105478Y-53982338D01*
X-56257902Y-54178173D01*
X-56257905Y-54178176D01*
X-56376010Y-54396418D01*
X-56376014Y-54396426D01*
X-56456591Y-54631140D01*
X-56456593Y-54631150D01*
X-56497438Y-54875920D01*
X-60000000Y-54875920D01*
X-60000000Y-50000001D01*
X-60000001Y-50000000D01*
X-61988500Y-50000000D01*
X-61996632Y-49996632D01*
X-62000000Y-49988500D01*
X-62000000Y-45011500D01*
X-61996632Y-45003368D01*
X-61988500Y-45000000D01*
X-60000001Y-45000000D01*
X-60000000Y-44999999D01*
X-60000000Y0D01*
X-1002579Y0D01*
X-982056Y-201814D01*
X-921325Y-395374D01*
X-822880Y-572739D01*
X-690741Y-726662D01*
X-530332Y-850828D01*
X-530327Y-850831D01*
X-348201Y-940169D01*
X-348197Y-940171D01*
X-151818Y-991016D01*
X-151812Y-991017D01*
X50780Y-1001292D01*
X50782Y-1001292D01*
X251291Y-970574D01*
X251305Y-970570D01*
X441527Y-900121D01*
X441531Y-900119D01*
X613682Y-792816D01*
X760713Y-653053D01*
X876600Y-486553D01*
X876602Y-486549D01*
X956598Y-300137D01*
X997434Y-101425D01*
X1000000Y-12D01*
X1000000Y12D01*
X997434Y101425D01*
X956598Y300137D01*
X876602Y486549D01*
X876600Y486553D01*
X760713Y653053D01*
X613682Y792816D01*
X441531Y900119D01*
X441527Y900121D01*
X251305Y970570D01*
X251291Y970574D01*
X50781Y1001292D01*
X-151812Y991017D01*
X-151818Y991016D01*
X-348197Y940171D01*
X-348201Y940169D01*
X-530327Y850831D01*
X-530332Y850828D01*
X-690741Y726662D01*
X-822880Y572739D01*
X-921325Y395374D01*
X-982056Y201814D01*
X-1002579Y0D01*
X-60000000Y0D01*
X-60000000Y4599999D01*
X-1500000Y4599999D01*
X-1500000Y3400001D01*
X-1499999Y3400000D01*
X1499999Y3400000D01*
X1500000Y3400001D01*
X1500000Y4599999D01*
X1499999Y4600000D01*
X-1499999Y4600000D01*
X-1500000Y4599999D01*
X-60000000Y4599999D01*
X-60000000Y6116102D01*
X-1238600Y6116102D01*
X-1238600Y4971658D01*
X-1238599Y4971657D01*
X1281784Y4971657D01*
X1281785Y4971658D01*
X1281785Y6116102D01*
X1281784Y6116103D01*
X-1238599Y6116103D01*
X-1238600Y6116102D01*
X-60000000Y6116102D01*
X-60000000Y44999999D01*
X-60000001Y45000000D01*
X-61988500Y45000000D01*
X-61996632Y45003368D01*
X-62000000Y45011500D01*
X-62000000Y49988500D01*
X-61996632Y49996632D01*
X-61988500Y50000000D01*
X-60000001Y50000000D01*
X-60000000Y50000001D01*
X-60000000Y55000000D01*
X-59999999Y55000125D01*
X-59998646Y55124079D01*
X-56497438Y55124079D01*
X-56497438Y54875920D01*
X-56456593Y54631150D01*
X-56456591Y54631140D01*
X-56376014Y54396426D01*
X-56376010Y54396418D01*
X-56257905Y54178176D01*
X-56257902Y54178173D01*
X-56105478Y53982338D01*
X-55922897Y53814260D01*
X-55715152Y53678532D01*
X-55715143Y53678528D01*
X-55487891Y53578845D01*
X-55487881Y53578842D01*
X-55247320Y53517924D01*
X-55000000Y53497430D01*
X-54752679Y53517924D01*
X-54512118Y53578842D01*
X-54512108Y53578845D01*
X-54284856Y53678528D01*
X-54284847Y53678532D01*
X-54077102Y53814260D01*
X-53894521Y53982338D01*
X-53742097Y54178173D01*
X-53742094Y54178176D01*
X-53623989Y54396418D01*
X-53623985Y54396426D01*
X-53543408Y54631140D01*
X-53543406Y54631150D01*
X-53502563Y54875910D01*
X-53502562Y54875916D01*
X-53500000Y55000000D01*
X-53502562Y55124083D01*
X-53502563Y55124089D01*
X-53543406Y55368849D01*
X-53543408Y55368859D01*
X-53623985Y55603573D01*
X-53623989Y55603581D01*
X-53742094Y55821823D01*
X-53742097Y55821826D01*
X-53894521Y56017661D01*
X-54077102Y56185739D01*
X-54284847Y56321467D01*
X-54284856Y56321471D01*
X-54512108Y56421154D01*
X-54512118Y56421157D01*
X-54752679Y56482075D01*
X-55000000Y56502570D01*
X-55247320Y56482075D01*
X-55487881Y56421157D01*
X-55487891Y56421154D01*
X-55715143Y56321471D01*
X-55715152Y56321467D01*
X-55922897Y56185739D01*
X-56105478Y56017661D01*
X-56257902Y55821826D01*
X-56257905Y55821823D01*
X-56376010Y55603581D01*
X-56376014Y55603573D01*
X-56456591Y55368859D01*
X-56456593Y55368849D01*
X-56497438Y55124079D01*
X-59998646Y55124079D01*
X-59997624Y55217760D01*
X-59997581Y55218637D01*
X-59959628Y55652441D01*
X-59959497Y55653436D01*
X-59883892Y56082219D01*
X-59883675Y56083198D01*
X-59770985Y56503762D01*
X-59770683Y56504719D01*
X-59621773Y56913847D01*
X-59621390Y56914774D01*
X-59437376Y57309394D01*
X-59436912Y57310284D01*
X-59219569Y57686731D01*
X-27714385Y57686731D01*
X-27714385Y54286733D01*
X-27714384Y54286732D01*
X-12314386Y54286732D01*
X-12314385Y54286733D01*
X-12314385Y54810422D01*
X-10274344Y54810422D01*
X-10274344Y54188072D01*
X-10274343Y54188071D01*
X-7701845Y54188071D01*
X-7701844Y54188072D01*
X-7701844Y54810422D01*
X-7701845Y54810423D01*
X-10274343Y54810423D01*
X-10274344Y54810422D01*
X-12314385Y54810422D01*
X-12314385Y54837640D01*
X-5870632Y54837640D01*
X-5870632Y54210786D01*
X-5870631Y54210785D01*
X-4104985Y54210785D01*
X-4104984Y54210786D01*
X-4104984Y54837640D01*
X-4104985Y54837641D01*
X-5870631Y54837641D01*
X-5870632Y54837640D01*
X-12314385Y54837640D01*
X-12314385Y56599999D01*
X-10500000Y56599999D01*
X-10500000Y55400001D01*
X-10499999Y55400000D01*
X-7500001Y55400000D01*
X-7500000Y55400001D01*
X-7500000Y56599999D01*
X-6500000Y56599999D01*
X-6500000Y55400001D01*
X-6499999Y55400000D01*
X-3500001Y55400000D01*
X-3500000Y55400001D01*
X-3500000Y56599999D01*
X-3500001Y56600000D01*
X-6499999Y56600000D01*
X-6500000Y56599999D01*
X-7500000Y56599999D01*
X-7500001Y56600000D01*
X-10499999Y56600000D01*
X-10500000Y56599999D01*
X-12314385Y56599999D01*
X-12314385Y57299999D01*
X-2200000Y57299999D01*
X-2200000Y54700001D01*
X-2199999Y54700000D01*
X-800001Y54700000D01*
X-800000Y54700001D01*
X-800000Y57299999D01*
X800000Y57299999D01*
X800000Y54700001D01*
X800001Y54700000D01*
X2199999Y54700000D01*
X2200000Y54700001D01*
X2200000Y57299999D01*
X2199999Y57300000D01*
X800001Y57300000D01*
X800000Y57299999D01*
X-800000Y57299999D01*
X-800001Y57300000D01*
X-2199999Y57300000D01*
X-2200000Y57299999D01*
X-12314385Y57299999D01*
X-12314385Y57686731D01*
X-12314386Y57686732D01*
X-27714384Y57686732D01*
X-27714385Y57686731D01*
X-59219569Y57686731D01*
X-59219216Y57687343D01*
X-59218677Y57688189D01*
X-59210408Y57699999D01*
X7284945Y57699999D01*
X7284945Y54300001D01*
X7284946Y54300000D01*
X22684944Y54300000D01*
X22684945Y54300001D01*
X22684945Y57699999D01*
X27300000Y57699999D01*
X27300000Y54300001D01*
X27300001Y54300000D01*
X42699999Y54300000D01*
X42700000Y54300001D01*
X42700000Y55124079D01*
X53502562Y55124079D01*
X53502562Y54875920D01*
X53543406Y54631150D01*
X53543408Y54631140D01*
X53623985Y54396426D01*
X53623989Y54396418D01*
X53742094Y54178176D01*
X53742097Y54178173D01*
X53894521Y53982338D01*
X54077102Y53814260D01*
X54284847Y53678532D01*
X54284856Y53678528D01*
X54512108Y53578845D01*
X54512118Y53578842D01*
X54752679Y53517924D01*
X55000000Y53497430D01*
X55247320Y53517924D01*
X55487881Y53578842D01*
X55487891Y53578845D01*
X55715143Y53678528D01*
X55715152Y53678532D01*
X55922897Y53814260D01*
X56105478Y53982338D01*
X56257902Y54178173D01*
X56257905Y54178176D01*
X56376010Y54396418D01*
X56376014Y54396426D01*
X56456591Y54631140D01*
X56456593Y54631150D01*
X56497436Y54875910D01*
X56497437Y54875916D01*
X56499999Y55000000D01*
X56497437Y55124083D01*
X56497436Y55124089D01*
X56456593Y55368849D01*
X56456591Y55368859D01*
X56376014Y55603573D01*
X56376010Y55603581D01*
X56257905Y55821823D01*
X56257902Y55821826D01*
X56105478Y56017661D01*
X55922897Y56185739D01*
X55715152Y56321467D01*
X55715143Y56321471D01*
X55487891Y56421154D01*
X55487881Y56421157D01*
X55247320Y56482075D01*
X55000000Y56502570D01*
X54752679Y56482075D01*
X54512118Y56421157D01*
X54512108Y56421154D01*
X54284856Y56321471D01*
X54284847Y56321467D01*
X54077102Y56185739D01*
X53894521Y56017661D01*
X53742097Y55821826D01*
X53742094Y55821823D01*
X53623989Y55603581D01*
X53623985Y55603573D01*
X53543408Y55368859D01*
X53543406Y55368849D01*
X53502562Y55124079D01*
X42700000Y55124079D01*
X42700000Y57699999D01*
X42699999Y57700000D01*
X27300001Y57700000D01*
X27300000Y57699999D01*
X22684945Y57699999D01*
X22684944Y57700000D01*
X7284946Y57700000D01*
X7284945Y57699999D01*
X-59210408Y57699999D01*
X-58968948Y58044839D01*
X-58968338Y58045635D01*
X-58688466Y58379174D01*
X-58687788Y58379914D01*
X-58379914Y58687788D01*
X-58379174Y58688466D01*
X-58045635Y58968338D01*
X-58044839Y58968948D01*
X-57688189Y59218677D01*
X-57687343Y59219216D01*
X-57310284Y59436912D01*
X-57309394Y59437376D01*
X-56914774Y59621390D01*
X-56913847Y59621773D01*
X-56504719Y59770683D01*
X-56503762Y59770985D01*
X-56083198Y59883675D01*
X-56082219Y59883892D01*
X-55653436Y59959497D01*
X-55652441Y59959628D01*
X-55218637Y59997581D01*
X-55217760Y59997624D01*
X-55000092Y59999999D01*
X-54999967Y60000000D01*
X-50000001Y60000000D01*
X-50000000Y60000001D01*
X-50000000Y62356360D01*
X-49996632Y62364492D01*
X-49988500Y62367860D01*
X-45011500Y62367860D01*
X-45003368Y62364492D01*
G37*
G36*
X20500359Y89999978D02*
G01*
X20723852Y89986289D01*
X20724751Y89986199D01*
X21168852Y89923743D01*
X21169866Y89923554D01*
X21606522Y89821554D01*
X21607515Y89821274D01*
X22033263Y89680546D01*
X22034227Y89680178D01*
X22445632Y89501858D01*
X22446560Y89501406D01*
X22840346Y89286915D01*
X22841229Y89286381D01*
X23214185Y89037467D01*
X23215017Y89036857D01*
X23564178Y88755497D01*
X23564951Y88754814D01*
X23887471Y88443303D01*
X23888181Y88442553D01*
X24181486Y88103377D01*
X24182125Y88102567D01*
X24443842Y87738470D01*
X24444406Y87737606D01*
X24672435Y87351510D01*
X24672919Y87350599D01*
X24865417Y86945624D01*
X24865818Y86944673D01*
X25021242Y86524068D01*
X25021556Y86523085D01*
X25138652Y86090235D01*
X25138876Y86089228D01*
X25216698Y85647644D01*
X25216832Y85646621D01*
X25254758Y85199816D01*
X25254799Y85198785D01*
X25252522Y84750385D01*
X25252470Y84749354D01*
X25210009Y84302981D01*
X25209866Y84301959D01*
X25127560Y83861164D01*
X25127325Y83860159D01*
X25005839Y83428525D01*
X25005515Y83427546D01*
X24845831Y83008551D01*
X24845421Y83007604D01*
X24648813Y82604591D01*
X24648319Y82603685D01*
X24416386Y82219935D01*
X24415813Y82219076D01*
X24150408Y81857652D01*
X24149761Y81856849D01*
X23853027Y81520671D01*
X23852310Y81519929D01*
X23526637Y81211704D01*
X23525856Y81211029D01*
X23173874Y80933244D01*
X23173036Y80932641D01*
X22797553Y80687516D01*
X22796665Y80686992D01*
X22400733Y80476519D01*
X22399801Y80476076D01*
X21986596Y80301939D01*
X21985628Y80301581D01*
X21558477Y80165186D01*
X21557481Y80164916D01*
X21119814Y80067357D01*
X21118798Y80067178D01*
X20674151Y80009245D01*
X20673123Y80009158D01*
X20225008Y79991312D01*
X20224104Y79991312D01*
X20000001Y80000000D01*
X20000000Y79999999D01*
X20000000Y78011500D01*
X19996632Y78003368D01*
X19988500Y78000000D01*
X15011500Y78000000D01*
X15003368Y78003368D01*
X15000000Y78011500D01*
X15000000Y79999999D01*
X14999999Y80000000D01*
X-14999999Y80000000D01*
X-15000000Y79999999D01*
X-15000000Y77986500D01*
X-15003368Y77978368D01*
X-15011500Y77975000D01*
X-19988500Y77975000D01*
X-19996632Y77978368D01*
X-20000000Y77986500D01*
X-20000000Y79999999D01*
X-20223977Y80002511D01*
X-20224879Y80002556D01*
X-20670997Y80042708D01*
X-20672019Y80042847D01*
X-21112650Y80122810D01*
X-21113656Y80123039D01*
X-21545365Y80242183D01*
X-21546347Y80242502D01*
X-21965635Y80399863D01*
X-21966584Y80400269D01*
X-22370075Y80594580D01*
X-22370983Y80595069D01*
X-22755421Y80824761D01*
X-22756283Y80825329D01*
X-23118610Y81088574D01*
X-23119416Y81089218D01*
X-23456664Y81383862D01*
X-23457410Y81384575D01*
X-23766897Y81708273D01*
X-23767576Y81709050D01*
X-24046799Y82059186D01*
X-24047406Y82060021D01*
X-24294124Y82433782D01*
X-24294653Y82434668D01*
X-24506867Y82829027D01*
X-24507315Y82829956D01*
X-24683333Y83241770D01*
X-24683695Y83242736D01*
X-24822082Y83668649D01*
X-24822357Y83669644D01*
X-24922012Y84106264D01*
X-24922196Y84107279D01*
X-24982312Y84551071D01*
X-24982404Y84552099D01*
X-25002496Y84999484D01*
X-25002496Y85000516D01*
X-24996947Y85124079D01*
X-21497438Y85124079D01*
X-21497438Y84875920D01*
X-21456593Y84631150D01*
X-21456591Y84631140D01*
X-21376014Y84396426D01*
X-21376010Y84396418D01*
X-21257905Y84178176D01*
X-21257902Y84178173D01*
X-21105478Y83982338D01*
X-20922897Y83814260D01*
X-20715152Y83678532D01*
X-20715143Y83678528D01*
X-20487891Y83578845D01*
X-20487881Y83578842D01*
X-20247320Y83517924D01*
X-20000000Y83497430D01*
X-19752679Y83517924D01*
X-19512118Y83578842D01*
X-19512108Y83578845D01*
X-19284856Y83678528D01*
X-19284847Y83678532D01*
X-19077102Y83814260D01*
X-18894521Y83982338D01*
X-18742097Y84178173D01*
X-18742094Y84178176D01*
X-18623989Y84396418D01*
X-18623985Y84396426D01*
X-18543408Y84631140D01*
X-18543406Y84631150D01*
X-18502563Y84875910D01*
X-18502562Y84875916D01*
X-18500000Y85000000D01*
X-18502562Y85124079D01*
X-16497438Y85124079D01*
X-16497438Y84875920D01*
X-16456593Y84631150D01*
X-16456591Y84631140D01*
X-16376014Y84396426D01*
X-16376010Y84396418D01*
X-16257905Y84178176D01*
X-16257902Y84178173D01*
X-16105478Y83982338D01*
X-15922897Y83814260D01*
X-15715152Y83678532D01*
X-15715143Y83678528D01*
X-15487891Y83578845D01*
X-15487881Y83578842D01*
X-15247320Y83517924D01*
X-15000000Y83497430D01*
X-14752679Y83517924D01*
X-14512118Y83578842D01*
X-14512108Y83578845D01*
X-14284856Y83678528D01*
X-14284847Y83678532D01*
X-14077102Y83814260D01*
X-13894521Y83982338D01*
X-13742097Y84178173D01*
X-13742094Y84178176D01*
X-13623989Y84396418D01*
X-13623985Y84396426D01*
X-13543408Y84631140D01*
X-13543406Y84631150D01*
X-13502563Y84875910D01*
X-13502562Y84875916D01*
X-13500000Y85000000D01*
X-13502562Y85124079D01*
X-11497438Y85124079D01*
X-11497438Y84875920D01*
X-11456593Y84631150D01*
X-11456591Y84631140D01*
X-11376014Y84396426D01*
X-11376010Y84396418D01*
X-11257905Y84178176D01*
X-11257902Y84178173D01*
X-11105478Y83982338D01*
X-10922897Y83814260D01*
X-10715152Y83678532D01*
X-10715143Y83678528D01*
X-10487891Y83578845D01*
X-10487881Y83578842D01*
X-10247320Y83517924D01*
X-10000000Y83497430D01*
X-9752679Y83517924D01*
X-9512118Y83578842D01*
X-9512108Y83578845D01*
X-9284856Y83678528D01*
X-9284847Y83678532D01*
X-9077102Y83814260D01*
X-8894521Y83982338D01*
X-8742097Y84178173D01*
X-8742094Y84178176D01*
X-8623989Y84396418D01*
X-8623985Y84396426D01*
X-8543408Y84631140D01*
X-8543406Y84631150D01*
X-8502563Y84875910D01*
X-8502562Y84875916D01*
X-8500000Y85000000D01*
X-8502562Y85124079D01*
X-6497438Y85124079D01*
X-6497438Y84875920D01*
X-6456593Y84631150D01*
X-6456591Y84631140D01*
X-6376014Y84396426D01*
X-6376010Y84396418D01*
X-6257905Y84178176D01*
X-6257902Y84178173D01*
X-6105478Y83982338D01*
X-5922897Y83814260D01*
X-5715152Y83678532D01*
X-5715143Y83678528D01*
X-5487891Y83578845D01*
X-5487881Y83578842D01*
X-5247320Y83517924D01*
X-5000000Y83497430D01*
X-4752679Y83517924D01*
X-4512118Y83578842D01*
X-4512108Y83578845D01*
X-4284856Y83678528D01*
X-4284847Y83678532D01*
X-4077102Y83814260D01*
X-3894521Y83982338D01*
X-3742097Y84178173D01*
X-3742094Y84178176D01*
X-3623989Y84396418D01*
X-3623985Y84396426D01*
X-3543408Y84631140D01*
X-3543406Y84631150D01*
X-3502563Y84875910D01*
X-3502562Y84875916D01*
X-3500000Y85000000D01*
X-3502562Y85124079D01*
X-1497438Y85124079D01*
X-1497438Y84875920D01*
X-1456593Y84631150D01*
X-1456591Y84631140D01*
X-1376014Y84396426D01*
X-1376010Y84396418D01*
X-1257905Y84178176D01*
X-1257902Y84178173D01*
X-1105478Y83982338D01*
X-922897Y83814260D01*
X-715152Y83678532D01*
X-715143Y83678528D01*
X-487891Y83578845D01*
X-487881Y83578842D01*
X-247320Y83517924D01*
X0Y83497430D01*
X247320Y83517924D01*
X487881Y83578842D01*
X487891Y83578845D01*
X715143Y83678528D01*
X715152Y83678532D01*
X922897Y83814260D01*
X1105478Y83982338D01*
X1257902Y84178173D01*
X1257905Y84178176D01*
X1376010Y84396418D01*
X1376014Y84396426D01*
X1456591Y84631140D01*
X1456593Y84631150D01*
X1497436Y84875910D01*
X1497437Y84875916D01*
X1499999Y85000000D01*
X1497437Y85124079D01*
X3502562Y85124079D01*
X3502562Y84875920D01*
X3543406Y84631150D01*
X3543408Y84631140D01*
X3623985Y84396426D01*
X3623989Y84396418D01*
X3742094Y84178176D01*
X3742097Y84178173D01*
X3894521Y83982338D01*
X4077102Y83814260D01*
X4284847Y83678532D01*
X4284856Y83678528D01*
X4512108Y83578845D01*
X4512118Y83578842D01*
X4752679Y83517924D01*
X5000000Y83497430D01*
X5247320Y83517924D01*
X5487881Y83578842D01*
X5487891Y83578845D01*
X5715143Y83678528D01*
X5715152Y83678532D01*
X5922897Y83814260D01*
X6105478Y83982338D01*
X6257902Y84178173D01*
X6257905Y84178176D01*
X6376010Y84396418D01*
X6376014Y84396426D01*
X6456591Y84631140D01*
X6456593Y84631150D01*
X6497436Y84875910D01*
X6497437Y84875916D01*
X6499999Y85000000D01*
X6497437Y85124079D01*
X8502562Y85124079D01*
X8502562Y84875920D01*
X8543406Y84631150D01*
X8543408Y84631140D01*
X8623985Y84396426D01*
X8623989Y84396418D01*
X8742094Y84178176D01*
X8742097Y84178173D01*
X8894521Y83982338D01*
X9077102Y83814260D01*
X9284847Y83678532D01*
X9284856Y83678528D01*
X9512108Y83578845D01*
X9512118Y83578842D01*
X9752679Y83517924D01*
X10000000Y83497430D01*
X10247320Y83517924D01*
X10487881Y83578842D01*
X10487891Y83578845D01*
X10715143Y83678528D01*
X10715152Y83678532D01*
X10922897Y83814260D01*
X11105478Y83982338D01*
X11257902Y84178173D01*
X11257905Y84178176D01*
X11376010Y84396418D01*
X11376014Y84396426D01*
X11456591Y84631140D01*
X11456593Y84631150D01*
X11497436Y84875910D01*
X11497437Y84875916D01*
X11499999Y85000000D01*
X11497437Y85124079D01*
X13502562Y85124079D01*
X13502562Y84875920D01*
X13543406Y84631150D01*
X13543408Y84631140D01*
X13623985Y84396426D01*
X13623989Y84396418D01*
X13742094Y84178176D01*
X13742097Y84178173D01*
X13894521Y83982338D01*
X14077102Y83814260D01*
X14284847Y83678532D01*
X14284856Y83678528D01*
X14512108Y83578845D01*
X14512118Y83578842D01*
X14752679Y83517924D01*
X15000000Y83497430D01*
X15247320Y83517924D01*
X15487881Y83578842D01*
X15487891Y83578845D01*
X15715143Y83678528D01*
X15715152Y83678532D01*
X15922897Y83814260D01*
X16105478Y83982338D01*
X16257902Y84178173D01*
X16257905Y84178176D01*
X16376010Y84396418D01*
X16376014Y84396426D01*
X16456591Y84631140D01*
X16456593Y84631150D01*
X16497436Y84875910D01*
X16497437Y84875916D01*
X16499999Y85000000D01*
X16497437Y85124079D01*
X18502562Y85124079D01*
X18502562Y84875920D01*
X18543406Y84631150D01*
X18543408Y84631140D01*
X18623985Y84396426D01*
X18623989Y84396418D01*
X18742094Y84178176D01*
X18742097Y84178173D01*
X18894521Y83982338D01*
X19077102Y83814260D01*
X19284847Y83678532D01*
X19284856Y83678528D01*
X19512108Y83578845D01*
X19512118Y83578842D01*
X19752679Y83517924D01*
X20000000Y83497430D01*
X20247320Y83517924D01*
X20487881Y83578842D01*
X20487891Y83578845D01*
X20715143Y83678528D01*
X20715152Y83678532D01*
X20922897Y83814260D01*
X21105478Y83982338D01*
X21257902Y84178173D01*
X21257905Y84178176D01*
X21376010Y84396418D01*
X21376014Y84396426D01*
X21456591Y84631140D01*
X21456593Y84631150D01*
X21497436Y84875910D01*
X21497437Y84875916D01*
X21499999Y85000000D01*
X21497437Y85124083D01*
X21497436Y85124089D01*
X21456593Y85368849D01*
X21456591Y85368859D01*
X21376014Y85603573D01*
X21376010Y85603581D01*
X21257905Y85821823D01*
X21257902Y85821826D01*
X21105478Y86017661D01*
X20922897Y86185739D01*
X20715152Y86321467D01*
X20715143Y86321471D01*
X20487891Y86421154D01*
X20487881Y86421157D01*
X20247320Y86482075D01*
X20000000Y86502570D01*
X19752679Y86482075D01*
X19512118Y86421157D01*
X19512108Y86421154D01*
X19284856Y86321471D01*
X19284847Y86321467D01*
X19077102Y86185739D01*
X18894521Y86017661D01*
X18742097Y85821826D01*
X18742094Y85821823D01*
X18623989Y85603581D01*
X18623985Y85603573D01*
X18543408Y85368859D01*
X18543406Y85368849D01*
X18502562Y85124079D01*
X16497437Y85124079D01*
X16497437Y85124083D01*
X16497436Y85124089D01*
X16456593Y85368849D01*
X16456591Y85368859D01*
X16376014Y85603573D01*
X16376010Y85603581D01*
X16257905Y85821823D01*
X16257902Y85821826D01*
X16105478Y86017661D01*
X15922897Y86185739D01*
X15715152Y86321467D01*
X15715143Y86321471D01*
X15487891Y86421154D01*
X15487881Y86421157D01*
X15247320Y86482075D01*
X15000000Y86502570D01*
X14752679Y86482075D01*
X14512118Y86421157D01*
X14512108Y86421154D01*
X14284856Y86321471D01*
X14284847Y86321467D01*
X14077102Y86185739D01*
X13894521Y86017661D01*
X13742097Y85821826D01*
X13742094Y85821823D01*
X13623989Y85603581D01*
X13623985Y85603573D01*
X13543408Y85368859D01*
X13543406Y85368849D01*
X13502562Y85124079D01*
X11497437Y85124079D01*
X11497437Y85124083D01*
X11497436Y85124089D01*
X11456593Y85368849D01*
X11456591Y85368859D01*
X11376014Y85603573D01*
X11376010Y85603581D01*
X11257905Y85821823D01*
X11257902Y85821826D01*
X11105478Y86017661D01*
X10922897Y86185739D01*
X10715152Y86321467D01*
X10715143Y86321471D01*
X10487891Y86421154D01*
X10487881Y86421157D01*
X10247320Y86482075D01*
X10000000Y86502570D01*
X9752679Y86482075D01*
X9512118Y86421157D01*
X9512108Y86421154D01*
X9284856Y86321471D01*
X9284847Y86321467D01*
X9077102Y86185739D01*
X8894521Y86017661D01*
X8742097Y85821826D01*
X8742094Y85821823D01*
X8623989Y85603581D01*
X8623985Y85603573D01*
X8543408Y85368859D01*
X8543406Y85368849D01*
X8502562Y85124079D01*
X6497437Y85124079D01*
X6497437Y85124083D01*
X6497436Y85124089D01*
X6456593Y85368849D01*
X6456591Y85368859D01*
X6376014Y85603573D01*
X6376010Y85603581D01*
X6257905Y85821823D01*
X6257902Y85821826D01*
X6105478Y86017661D01*
X5922897Y86185739D01*
X5715152Y86321467D01*
X5715143Y86321471D01*
X5487891Y86421154D01*
X5487881Y86421157D01*
X5247320Y86482075D01*
X5000000Y86502570D01*
X4752679Y86482075D01*
X4512118Y86421157D01*
X4512108Y86421154D01*
X4284856Y86321471D01*
X4284847Y86321467D01*
X4077102Y86185739D01*
X3894521Y86017661D01*
X3742097Y85821826D01*
X3742094Y85821823D01*
X3623989Y85603581D01*
X3623985Y85603573D01*
X3543408Y85368859D01*
X3543406Y85368849D01*
X3502562Y85124079D01*
X1497437Y85124079D01*
X1497437Y85124083D01*
X1497436Y85124089D01*
X1456593Y85368849D01*
X1456591Y85368859D01*
X1376014Y85603573D01*
X1376010Y85603581D01*
X1257905Y85821823D01*
X1257902Y85821826D01*
X1105478Y86017661D01*
X922897Y86185739D01*
X715152Y86321467D01*
X715143Y86321471D01*
X487891Y86421154D01*
X487881Y86421157D01*
X247320Y86482075D01*
X0Y86502570D01*
X-247320Y86482075D01*
X-487881Y86421157D01*
X-487891Y86421154D01*
X-715143Y86321471D01*
X-715152Y86321467D01*
X-922897Y86185739D01*
X-1105478Y86017661D01*
X-1257902Y85821826D01*
X-1257905Y85821823D01*
X-1376010Y85603581D01*
X-1376014Y85603573D01*
X-1456591Y85368859D01*
X-1456593Y85368849D01*
X-1497438Y85124079D01*
X-3502562Y85124079D01*
X-3502562Y85124083D01*
X-3502563Y85124089D01*
X-3543406Y85368849D01*
X-3543408Y85368859D01*
X-3623985Y85603573D01*
X-3623989Y85603581D01*
X-3742094Y85821823D01*
X-3742097Y85821826D01*
X-3894521Y86017661D01*
X-4077102Y86185739D01*
X-4284847Y86321467D01*
X-4284856Y86321471D01*
X-4512108Y86421154D01*
X-4512118Y86421157D01*
X-4752679Y86482075D01*
X-5000000Y86502570D01*
X-5247320Y86482075D01*
X-5487881Y86421157D01*
X-5487891Y86421154D01*
X-5715143Y86321471D01*
X-5715152Y86321467D01*
X-5922897Y86185739D01*
X-6105478Y86017661D01*
X-6257902Y85821826D01*
X-6257905Y85821823D01*
X-6376010Y85603581D01*
X-6376014Y85603573D01*
X-6456591Y85368859D01*
X-6456593Y85368849D01*
X-6497438Y85124079D01*
X-8502562Y85124079D01*
X-8502562Y85124083D01*
X-8502563Y85124089D01*
X-8543406Y85368849D01*
X-8543408Y85368859D01*
X-8623985Y85603573D01*
X-8623989Y85603581D01*
X-8742094Y85821823D01*
X-8742097Y85821826D01*
X-8894521Y86017661D01*
X-9077102Y86185739D01*
X-9284847Y86321467D01*
X-9284856Y86321471D01*
X-9512108Y86421154D01*
X-9512118Y86421157D01*
X-9752679Y86482075D01*
X-10000000Y86502570D01*
X-10247320Y86482075D01*
X-10487881Y86421157D01*
X-10487891Y86421154D01*
X-10715143Y86321471D01*
X-10715152Y86321467D01*
X-10922897Y86185739D01*
X-11105478Y86017661D01*
X-11257902Y85821826D01*
X-11257905Y85821823D01*
X-11376010Y85603581D01*
X-11376014Y85603573D01*
X-11456591Y85368859D01*
X-11456593Y85368849D01*
X-11497438Y85124079D01*
X-13502562Y85124079D01*
X-13502562Y85124083D01*
X-13502563Y85124089D01*
X-13543406Y85368849D01*
X-13543408Y85368859D01*
X-13623985Y85603573D01*
X-13623989Y85603581D01*
X-13742094Y85821823D01*
X-13742097Y85821826D01*
X-13894521Y86017661D01*
X-14077102Y86185739D01*
X-14284847Y86321467D01*
X-14284856Y86321471D01*
X-14512108Y86421154D01*
X-14512118Y86421157D01*
X-14752679Y86482075D01*
X-15000000Y86502570D01*
X-15247320Y86482075D01*
X-15487881Y86421157D01*
X-15487891Y86421154D01*
X-15715143Y86321471D01*
X-15715152Y86321467D01*
X-15922897Y86185739D01*
X-16105478Y86017661D01*
X-16257902Y85821826D01*
X-16257905Y85821823D01*
X-16376010Y85603581D01*
X-16376014Y85603573D01*
X-16456591Y85368859D01*
X-16456593Y85368849D01*
X-16497438Y85124079D01*
X-18502562Y85124079D01*
X-18502562Y85124083D01*
X-18502563Y85124089D01*
X-18543406Y85368849D01*
X-18543408Y85368859D01*
X-18623985Y85603573D01*
X-18623989Y85603581D01*
X-18742094Y85821823D01*
X-18742097Y85821826D01*
X-18894521Y86017661D01*
X-19077102Y86185739D01*
X-19284847Y86321467D01*
X-19284856Y86321471D01*
X-19512108Y86421154D01*
X-19512118Y86421157D01*
X-19752679Y86482075D01*
X-20000000Y86502570D01*
X-20247320Y86482075D01*
X-20487881Y86421157D01*
X-20487891Y86421154D01*
X-20715143Y86321471D01*
X-20715152Y86321467D01*
X-20922897Y86185739D01*
X-21105478Y86017661D01*
X-21257902Y85821826D01*
X-21257905Y85821823D01*
X-21376010Y85603581D01*
X-21376014Y85603573D01*
X-21456591Y85368859D01*
X-21456593Y85368849D01*
X-21497438Y85124079D01*
X-24996947Y85124079D01*
X-24982404Y85447900D01*
X-24982312Y85448928D01*
X-24922196Y85892720D01*
X-24922012Y85893735D01*
X-24822357Y86330355D01*
X-24822082Y86331350D01*
X-24683695Y86757263D01*
X-24683333Y86758229D01*
X-24507315Y87170043D01*
X-24506867Y87170972D01*
X-24294653Y87565331D01*
X-24294124Y87566217D01*
X-24047406Y87939978D01*
X-24046799Y87940813D01*
X-23767576Y88290949D01*
X-23766897Y88291726D01*
X-23457410Y88615424D01*
X-23456664Y88616137D01*
X-23119416Y88910781D01*
X-23118610Y88911425D01*
X-22756283Y89174670D01*
X-22755421Y89175238D01*
X-22370983Y89404930D01*
X-22370075Y89405419D01*
X-21966584Y89599730D01*
X-21965635Y89600136D01*
X-21546347Y89757497D01*
X-21545365Y89757816D01*
X-21113656Y89876960D01*
X-21112650Y89877189D01*
X-20672019Y89957152D01*
X-20670997Y89957291D01*
X-20224879Y89997443D01*
X-20223977Y89997488D01*
X-20000089Y89999999D01*
X-19999960Y90000000D01*
X20499656Y90000000D01*
X20500359Y89999978D01*
G37*
M02*
