%TF.GenerationSoftware,KiCad,Pcbnew,9.0.4*%
%TF.CreationDate,2025-09-03T20:12:05-03:00*%
%TF.ProjectId,Buildplate_v1.0,4275696c-6470-46c6-9174-655f76312e30,rev?*%
%TF.SameCoordinates,Original*%
%TF.FileFunction,Copper,L1,Top*%
%TF.FilePolarity,Positive*%
%FSLAX46Y46*%
G04 Gerber Fmt 4.6, Leading zero omitted, Abs format (unit mm)*
G04 Created by KiCad (PCBNEW 9.0.4) date 2025-09-03 20:12:05*
%MOMM*%
%LPD*%
G01*
G04 APERTURE LIST*
G04 Aperture macros list*
%AMRoundRect*
0 Rectangle with rounded corners*
0 $1 Rounding radius*
0 $2 $3 $4 $5 $6 $7 $8 $9 X,Y pos of 4 corners*
0 Add a 4 corners polygon primitive as box body*
4,1,4,$2,$3,$4,$5,$6,$7,$8,$9,$2,$3,0*
0 Add four circle primitives for the rounded corners*
1,1,$1+$1,$2,$3*
1,1,$1+$1,$4,$5*
1,1,$1+$1,$6,$7*
1,1,$1+$1,$8,$9*
0 Add four rect primitives between the rounded corners*
20,1,$1+$1,$2,$3,$4,$5,0*
20,1,$1+$1,$4,$5,$6,$7,0*
20,1,$1+$1,$6,$7,$8,$9,0*
20,1,$1+$1,$8,$9,$2,$3,0*%
G04 Aperture macros list end*
%TA.AperFunction,SMDPad,CuDef*%
%ADD10R,15.000000X3.000000*%
%TD*%
%TA.AperFunction,SMDPad,CuDef*%
%ADD11RoundRect,0.250000X1.075000X-0.375000X1.075000X0.375000X-1.075000X0.375000X-1.075000X-0.375000X0*%
%TD*%
%TA.AperFunction,SMDPad,CuDef*%
%ADD12RoundRect,0.200000X-0.200000X-0.275000X0.200000X-0.275000X0.200000X0.275000X-0.200000X0.275000X0*%
%TD*%
%TA.AperFunction,SMDPad,CuDef*%
%ADD13R,1.100000X1.000000*%
%TD*%
%TA.AperFunction,SMDPad,CuDef*%
%ADD14R,2.000000X5.000000*%
%TD*%
%TA.AperFunction,SMDPad,CuDef*%
%ADD15R,1.270000X2.540000*%
%TD*%
%TA.AperFunction,TestPad*%
%ADD16R,15.000000X3.000000*%
%TD*%
%TA.AperFunction,Conductor*%
%ADD17C,0.304800*%
%TD*%
%TA.AperFunction,Conductor*%
%ADD18C,0.406400*%
%TD*%
%TA.AperFunction,Conductor*%
%ADD19C,0.200000*%
%TD*%
%TA.AperFunction,Conductor*%
%ADD20C,0.508000*%
%TD*%
%TA.AperFunction,Conductor*%
%ADD21C,1.016000*%
%TD*%
%TA.AperFunction,Conductor*%
%ADD22C,0.762000*%
%TD*%
G04 APERTURE END LIST*
D10*
%TO.P,UNK1,P$1,P$1*%
%TO.N,Net-(LED1-PadC)*%
X-20000000Y56000000D03*
%TD*%
D11*
%TO.P,REF\u002A\u002A,1*%
%TO.N,N/C*%
X-67500000Y19200000D03*
%TO.P,REF\u002A\u002A,2*%
X-67500000Y22000000D03*
%TD*%
D12*
%TO.P,REF\u002A\u002A,1*%
%TO.N,N/C*%
X-68325000Y41100000D03*
%TO.P,REF\u002A\u002A,2*%
X-66675000Y41100000D03*
%TD*%
D11*
%TO.P,REF\u002A\u002A,1*%
%TO.N,N/C*%
X-67500000Y48200000D03*
%TO.P,REF\u002A\u002A,2*%
X-67500000Y51000000D03*
%TD*%
%TO.P,REF\u002A\u002A,1*%
%TO.N,N/C*%
X-67500000Y-58800000D03*
%TO.P,REF\u002A\u002A,2*%
X-67500000Y-56000000D03*
%TD*%
D13*
%TO.P,R_LED1,1,1*%
%TO.N,Net-(LED1-PadC)*%
X-9850000Y56000000D03*
%TO.P,R_LED1,2,2*%
%TO.N,Net-(LED1-PadA)*%
X-8150000Y56000000D03*
%TD*%
D11*
%TO.P,REF\u002A\u002A,1*%
%TO.N,N/C*%
X-67500000Y-7800000D03*
%TO.P,REF\u002A\u002A,2*%
X-67500000Y-5000000D03*
%TD*%
D13*
%TO.P,LED1,A,A*%
%TO.N,Net-(LED1-PadA)*%
X-5850000Y56000000D03*
%TO.P,LED1,C,C*%
%TO.N,Net-(LED1-PadC)*%
X-4150000Y56000000D03*
%TD*%
D11*
%TO.P,REF\u002A\u002A,1*%
%TO.N,N/C*%
X-67500000Y-36800000D03*
%TO.P,REF\u002A\u002A,2*%
X-67500000Y-34000000D03*
%TD*%
%TO.P,REF\u002A\u002A,1*%
%TO.N,N/C*%
X-67500000Y9200000D03*
%TO.P,REF\u002A\u002A,2*%
X-67500000Y12000000D03*
%TD*%
%TO.P,REF\u002A\u002A,1*%
%TO.N,N/C*%
X-67500000Y-2800000D03*
%TO.P,REF\u002A\u002A,2*%
X-67500000Y0D03*
%TD*%
%TO.P,REF\u002A\u002A,1*%
%TO.N,N/C*%
X-67500000Y2200000D03*
%TO.P,REF\u002A\u002A,2*%
X-67500000Y5000000D03*
%TD*%
D12*
%TO.P,REF\u002A\u002A,1*%
%TO.N,N/C*%
X-68325000Y-26900000D03*
%TO.P,REF\u002A\u002A,2*%
X-66675000Y-26900000D03*
%TD*%
D14*
%TO.P,UNK1,P$1,P$1*%
%TO.N,N/C*%
X-66250000Y79250000D03*
%TD*%
D12*
%TO.P,REF\u002A\u002A,1*%
%TO.N,N/C*%
X-68325000Y58100000D03*
%TO.P,REF\u002A\u002A,2*%
X-66675000Y58100000D03*
%TD*%
D10*
%TO.P,UNK2,P$1,P$1*%
%TO.N,Net-(LED1-PadC)*%
X15000000Y56000000D03*
%TD*%
D12*
%TO.P,REF\u002A\u002A,1*%
%TO.N,N/C*%
X-68325000Y-43900000D03*
%TO.P,REF\u002A\u002A,2*%
X-66675000Y-43900000D03*
%TD*%
D11*
%TO.P,REF\u002A\u002A,1*%
%TO.N,N/C*%
X-67500000Y-53800000D03*
%TO.P,REF\u002A\u002A,2*%
X-67500000Y-51000000D03*
%TD*%
D12*
%TO.P,REF\u002A\u002A,1*%
%TO.N,N/C*%
X-68325000Y-9900000D03*
%TO.P,REF\u002A\u002A,2*%
X-66675000Y-9900000D03*
%TD*%
D11*
%TO.P,REF\u002A\u002A,1*%
%TO.N,N/C*%
X-67500000Y65200000D03*
%TO.P,REF\u002A\u002A,2*%
X-67500000Y68000000D03*
%TD*%
%TO.P,REF\u002A\u002A,1*%
%TO.N,N/C*%
X-67500000Y-48800000D03*
%TO.P,REF\u002A\u002A,2*%
X-67500000Y-46000000D03*
%TD*%
D14*
%TO.P,UNK1,P$1,P$1*%
%TO.N,N/C*%
X-68625000Y79250000D03*
%TD*%
D11*
%TO.P,REF\u002A\u002A,1*%
%TO.N,N/C*%
X-67500000Y60200000D03*
%TO.P,REF\u002A\u002A,2*%
X-67500000Y63000000D03*
%TD*%
%TO.P,REF\u002A\u002A,1*%
%TO.N,N/C*%
X-67500000Y14200000D03*
%TO.P,REF\u002A\u002A,2*%
X-67500000Y17000000D03*
%TD*%
D15*
%TO.P,U$5,P$1,P$1*%
%TO.N,Net-(NTC0-Pad2)*%
X1500000Y56000000D03*
%TD*%
D13*
%TO.P,NTC,1,1*%
%TO.N,Net-(NTC0-Pad1)*%
X-850000Y4000000D03*
%TO.P,NTC,2,2*%
%TO.N,Net-(NTC0-Pad2)*%
X850000Y4000000D03*
%TD*%
D12*
%TO.P,REF\u002A\u002A,1*%
%TO.N,N/C*%
X-68325000Y75100000D03*
%TO.P,REF\u002A\u002A,2*%
X-66675000Y75100000D03*
%TD*%
%TO.P,REF\u002A\u002A,1*%
%TO.N,N/C*%
X-68325000Y24100000D03*
%TO.P,REF\u002A\u002A,2*%
X-66675000Y24100000D03*
%TD*%
D11*
%TO.P,REF\u002A\u002A,1*%
%TO.N,N/C*%
X-67500000Y53200000D03*
%TO.P,REF\u002A\u002A,2*%
X-67500000Y56000000D03*
%TD*%
D15*
%TO.P,U$4,P$1,P$1*%
%TO.N,Net-(NTC0-Pad1)*%
X-1500000Y56000000D03*
%TD*%
D11*
%TO.P,REF\u002A\u002A,1*%
%TO.N,N/C*%
X-67500000Y26200000D03*
%TO.P,REF\u002A\u002A,2*%
X-67500000Y29000000D03*
%TD*%
%TO.P,REF\u002A\u002A,1*%
%TO.N,N/C*%
X-67500000Y70200000D03*
%TO.P,REF\u002A\u002A,2*%
X-67500000Y73000000D03*
%TD*%
D16*
%TO.P,UNK3,P$1,P$1*%
%TO.N,Net-(LED1-PadC)*%
X35000000Y56000000D03*
%TD*%
D12*
%TO.P,REF\u002A\u002A,1*%
%TO.N,N/C*%
X-68325000Y7100000D03*
%TO.P,REF\u002A\u002A,2*%
X-66675000Y7100000D03*
%TD*%
D11*
%TO.P,REF\u002A\u002A,1*%
%TO.N,N/C*%
X-67500000Y-41800000D03*
%TO.P,REF\u002A\u002A,2*%
X-67500000Y-39000000D03*
%TD*%
%TO.P,REF\u002A\u002A,1*%
%TO.N,N/C*%
X-67500000Y-14800000D03*
%TO.P,REF\u002A\u002A,2*%
X-67500000Y-12000000D03*
%TD*%
%TO.P,REF\u002A\u002A,1*%
%TO.N,N/C*%
X-67500000Y36200000D03*
%TO.P,REF\u002A\u002A,2*%
X-67500000Y39000000D03*
%TD*%
%TO.P,REF\u002A\u002A,1*%
%TO.N,N/C*%
X-67500000Y31200000D03*
%TO.P,REF\u002A\u002A,2*%
X-67500000Y34000000D03*
%TD*%
%TO.P,REF\u002A\u002A,1*%
%TO.N,N/C*%
X-67500000Y-31800000D03*
%TO.P,REF\u002A\u002A,2*%
X-67500000Y-29000000D03*
%TD*%
%TO.P,REF\u002A\u002A,1*%
%TO.N,N/C*%
X-67500000Y-24800000D03*
%TO.P,REF\u002A\u002A,2*%
X-67500000Y-22000000D03*
%TD*%
%TO.P,REF\u002A\u002A,1*%
%TO.N,N/C*%
X-67500000Y43200000D03*
%TO.P,REF\u002A\u002A,2*%
X-67500000Y46000000D03*
%TD*%
%TO.P,REF\u002A\u002A,1*%
%TO.N,N/C*%
X-67500000Y-19800000D03*
%TO.P,REF\u002A\u002A,2*%
X-67500000Y-17000000D03*
%TD*%
D17*
%TO.N,*%
X-67500000Y31200000D02*
X-67500000Y29000000D01*
X-67500000Y-31800000D02*
X-67500000Y-34000000D01*
X-68325000Y5825000D02*
X-67500000Y5000000D01*
X-67500000Y36200000D02*
X-67500000Y34000000D01*
D18*
X-67600000Y9100000D02*
X-69500000Y9100000D01*
X-67600000Y-7900000D02*
X-69500000Y-7900000D01*
X-67500000Y-7800000D02*
X-67600000Y-7900000D01*
X-66675000Y41100000D02*
X-65500000Y41100000D01*
X-67600000Y26100000D02*
X-69500000Y26100000D01*
X-65500000Y78500000D02*
X-65500000Y-43900000D01*
X-67500000Y43200000D02*
X-67600000Y43100000D01*
X-67500000Y-58800000D02*
X-67600000Y-58900000D01*
D17*
X-67500000Y-48800000D02*
X-67500000Y-51000000D01*
X-67500000Y53200000D02*
X-67500000Y51000000D01*
X-68325000Y-11175000D02*
X-67500000Y-12000000D01*
X-68325000Y58100000D02*
X-68325000Y56825000D01*
X-68325000Y-28175000D02*
X-67500000Y-29000000D01*
D18*
X-67600000Y43100000D02*
X-69500000Y43100000D01*
D17*
X-68325000Y-45175000D02*
X-67500000Y-46000000D01*
X-67500000Y70200000D02*
X-67500000Y68000000D01*
D18*
X-66675000Y-9900000D02*
X-65500000Y-9900000D01*
X-66675000Y-43900000D02*
X-65500000Y-43900000D01*
X-67500000Y9200000D02*
X-67600000Y9100000D01*
D17*
X-67500000Y14200000D02*
X-67500000Y12000000D01*
D18*
X-67600000Y-41900000D02*
X-69500000Y-41900000D01*
D17*
X-67500000Y-19800000D02*
X-67500000Y-22000000D01*
X-68325000Y56825000D02*
X-67500000Y56000000D01*
X-67500000Y19200000D02*
X-67500000Y17000000D01*
X-68325000Y22825000D02*
X-67500000Y22000000D01*
X-68325000Y-26900000D02*
X-68325000Y-28175000D01*
X-68325000Y-43900000D02*
X-68325000Y-45175000D01*
X-68325000Y75100000D02*
X-68325000Y73825000D01*
D18*
X-66675000Y75100000D02*
X-65500000Y75100000D01*
D17*
X-68325000Y73825000D02*
X-67500000Y73000000D01*
D18*
X-67600000Y60100000D02*
X-69500000Y60100000D01*
D17*
X-68325000Y24100000D02*
X-68325000Y22825000D01*
X-67500000Y-2800000D02*
X-67500000Y-5000000D01*
D18*
X-67600000Y-58900000D02*
X-69500000Y-58900000D01*
D17*
X-67500000Y65200000D02*
X-67500000Y63000000D01*
X-67500000Y2200000D02*
X-67500000Y0D01*
X-68325000Y39825000D02*
X-67500000Y39000000D01*
D18*
X-67500000Y26200000D02*
X-67600000Y26100000D01*
X-67500000Y-24800000D02*
X-67600000Y-24900000D01*
X-66675000Y58100000D02*
X-65500000Y58100000D01*
X-66250000Y79250000D02*
X-65500000Y78500000D01*
D17*
X-67500000Y-36800000D02*
X-67500000Y-39000000D01*
X-68325000Y41100000D02*
X-68325000Y39825000D01*
D18*
X-66675000Y7100000D02*
X-65500000Y7100000D01*
X-67500000Y60200000D02*
X-67600000Y60100000D01*
X-67500000Y-41800000D02*
X-67600000Y-41900000D01*
X-66675000Y24100000D02*
X-65500000Y24100000D01*
D17*
X-67500000Y-53800000D02*
X-67500000Y-56000000D01*
D18*
X-69500000Y78375000D02*
X-69500000Y-58900000D01*
D17*
X-67500000Y-14800000D02*
X-67500000Y-17000000D01*
X-67500000Y48200000D02*
X-67500000Y46000000D01*
D18*
X-68625000Y79250000D02*
X-69500000Y78375000D01*
D17*
X-68325000Y-9900000D02*
X-68325000Y-11175000D01*
X-68325000Y7100000D02*
X-68325000Y5825000D01*
D18*
X-67600000Y-24900000D02*
X-69500000Y-24900000D01*
X-66675000Y-26900000D02*
X-65500000Y-26900000D01*
D19*
%TO.N,Net-(NTC0-Pad1)*%
X-1500000Y56000000D02*
X-250000Y54750000D01*
X-250000Y54750000D02*
X-250000Y4600000D01*
X-848900Y55348900D02*
X-1500000Y56000000D01*
X-250000Y4600000D02*
X-850000Y4000000D01*
%TO.N,Net-(NTC0-Pad2)*%
X250000Y4600000D02*
X850000Y4000000D01*
X851100Y55351100D02*
X1500000Y56000000D01*
X1500000Y56000000D02*
X250000Y54750000D01*
X250000Y54750000D02*
X250000Y4600000D01*
D20*
%TO.N,Net-(LED1-PadC)*%
X58700000Y-1011200D02*
X58700000Y-1172000D01*
X58700000Y2204800D02*
X58700000Y2044000D01*
X-51250000Y35352800D02*
X-58379200Y35352800D01*
X58700000Y34364800D02*
X58700000Y34204000D01*
X-4370800Y24124800D02*
X-51250000Y24124800D01*
X-51250000Y-11163200D02*
X-58379200Y-11163200D01*
X-58379200Y-23193200D02*
X-51250000Y-23193200D01*
X-58700000Y-14050400D02*
X-58700000Y-13890000D01*
X-58700000Y-46130400D02*
X-58700000Y-45970000D01*
X-58379200Y7282800D02*
X-51250000Y7282800D01*
X58378400Y41922400D02*
X51250000Y41922400D01*
X51250000Y4938400D02*
X2371600Y4938400D01*
X-58379200Y50590800D02*
X-51250000Y50590800D01*
X58700000Y45620800D02*
X58700000Y45460000D01*
X1050000Y43208800D02*
X1050000Y43048000D01*
X-51250000Y2470800D02*
X-7120800Y2470800D01*
X-5220800Y8084800D02*
X-51250000Y8084800D01*
X-58700000Y1989600D02*
X-58700000Y2150000D01*
X1050000Y52856800D02*
X1050000Y52696000D01*
X1050000Y48032800D02*
X1050000Y47872000D01*
X1050000Y19088800D02*
X1050000Y18928000D01*
X51250000Y-40085600D02*
X3621600Y-40085600D01*
X-1570800Y-12767200D02*
X-51250000Y-12767200D01*
X51250000Y-17573600D02*
X3621600Y-17573600D01*
X51250000Y8154400D02*
X1371600Y8154400D01*
X-4050000Y49307600D02*
X-4050000Y49468000D01*
X-58700000Y-30090400D02*
X-58700000Y-29930000D01*
X-58379200Y23322800D02*
X-51250000Y23322800D01*
X-58379200Y45778800D02*
X-51250000Y45778800D01*
X-4050000Y14019600D02*
X-4050000Y14180000D01*
X58700000Y-17091200D02*
X58700000Y-17252000D01*
X-51250000Y-7955200D02*
X-58379200Y-7955200D01*
D21*
X-13000000Y54750000D02*
X-14250000Y56000000D01*
D20*
X-1250000Y-30892400D02*
X-1250000Y-30732000D01*
X-1250000Y-10040400D02*
X-1250000Y-9880000D01*
X58378400Y-12749600D02*
X51250000Y-12749600D01*
X-1250000Y-14852400D02*
X-1250000Y-14692000D01*
X-51250000Y-8757200D02*
X-1570800Y-8757200D01*
X-58700000Y-44526400D02*
X-58700000Y-44366000D01*
X-51250000Y32946800D02*
X-4370800Y32946800D01*
X58378400Y-20789600D02*
X51250000Y-20789600D01*
X58378400Y4938400D02*
X51250000Y4938400D01*
X-4050000Y30059600D02*
X-4050000Y30220000D01*
X51250000Y1722400D02*
X3571600Y1722400D01*
X-4370800Y35352800D02*
X-51250000Y35352800D01*
X-51250000Y-3143200D02*
X-58379200Y-3143200D01*
X-51250000Y16104800D02*
X-58379200Y16104800D01*
X58378400Y27450400D02*
X51250000Y27450400D01*
X58378400Y-44909600D02*
X51250000Y-44909600D01*
X-52379200Y-56877200D02*
X-51570800Y-56877200D01*
X51250000Y15390400D02*
X58378400Y15390400D01*
X-51250000Y-52867200D02*
X-52629200Y-52867200D01*
X-58700000Y10009600D02*
X-58700000Y10170000D01*
X51250000Y-48125600D02*
X3621600Y-48125600D01*
X3300000Y-42015200D02*
X3300000Y-42176000D01*
X1050000Y46424800D02*
X1050000Y46264000D01*
X3621600Y-28025600D02*
X51250000Y-28025600D01*
X51250000Y-15161600D02*
X58378400Y-15161600D01*
X-1570800Y-19183200D02*
X-51250000Y-19183200D01*
X50928400Y-54557600D02*
X3621600Y-54557600D01*
X51250000Y5742400D02*
X58378400Y5742400D01*
X51250000Y-49733600D02*
X3621600Y-49733600D01*
D22*
X-20000000Y56000000D02*
X-19500000Y56000000D01*
D20*
X58378400Y49962400D02*
X51250000Y49962400D01*
X51250000Y41922400D02*
X1371600Y41922400D01*
X3621600Y-34457600D02*
X51250000Y-34457600D01*
D22*
X-1011400Y52011400D02*
X-3500000Y54500000D01*
D20*
X-51250000Y48986800D02*
X-4370800Y48986800D01*
X-1250000Y-8436400D02*
X-1250000Y-8276000D01*
X-51250000Y-22391200D02*
X-58379200Y-22391200D01*
X-58700000Y-49338400D02*
X-58700000Y-49178000D01*
X3621600Y-55361600D02*
X50928400Y-55361600D01*
X3621600Y-48929600D02*
X51250000Y-48929600D01*
X58378400Y37098400D02*
X51250000Y37098400D01*
X-1570800Y-46451200D02*
X-51250000Y-46451200D01*
X1371600Y31470400D02*
X51250000Y31470400D01*
X-51250000Y43372800D02*
X-58379200Y43372800D01*
X1371600Y18606400D02*
X51250000Y18606400D01*
X3621600Y-15161600D02*
X51250000Y-15161600D01*
X-4370800Y32144800D02*
X-51250000Y32144800D01*
X-4370800Y17708800D02*
X-51250000Y17708800D01*
X2050000Y4616800D02*
X2050000Y4456000D01*
X1050000Y28736800D02*
X1050000Y28576000D01*
X-51250000Y10490800D02*
X-4370800Y10490800D01*
X-58379200Y5678800D02*
X-51250000Y5678800D01*
X58378400Y-15965600D02*
X51250000Y-15965600D01*
X-58700000Y14821600D02*
X-58700000Y14982000D01*
X-52950000Y-52546400D02*
X-52950000Y-52386000D01*
X-1250000Y-56556400D02*
X-1250000Y-56396000D01*
X51250000Y17802400D02*
X1371600Y17802400D01*
X51250000Y8958400D02*
X58378400Y8958400D01*
X51250000Y-7121600D02*
X58378400Y-7121600D01*
X58378400Y48354400D02*
X51250000Y48354400D01*
X-7120800Y4876800D02*
X-51250000Y4876800D01*
X-51250000Y24124800D02*
X-58379200Y24124800D01*
X-1570800Y-51263200D02*
X-51250000Y-51263200D01*
X3621600Y-18377600D02*
X51250000Y-18377600D01*
X3621600Y-56969600D02*
X50928400Y-56969600D01*
X1050000Y49640800D02*
X1050000Y49480000D01*
X58700000Y-42819200D02*
X58700000Y-42980000D01*
X1050000Y31952800D02*
X1050000Y31792000D01*
X-51250000Y-43243200D02*
X-58379200Y-43243200D01*
X3300000Y-40407200D02*
X3300000Y-40568000D01*
X51250000Y-30437600D02*
X3621600Y-30437600D01*
X-58700000Y-41318400D02*
X-58700000Y-41158000D01*
X-1570800Y-9559200D02*
X-51250000Y-9559200D01*
X-58700000Y-25278400D02*
X-58700000Y-25118000D01*
X-1570800Y-33619200D02*
X-51250000Y-33619200D01*
X3621600Y-11945600D02*
X51250000Y-11945600D01*
X58700000Y24716800D02*
X58700000Y24556000D01*
X-51679200Y53798800D02*
X-51250000Y53798800D01*
X-51250000Y18510800D02*
X-4370800Y18510800D01*
X58700000Y-4227200D02*
X58700000Y-4388000D01*
X-1570800Y-48055200D02*
X-51250000Y-48055200D01*
X51250000Y-44105600D02*
X58378400Y-44105600D01*
X-58700000Y-4426400D02*
X-58700000Y-4266000D01*
X51250000Y7350400D02*
X58378400Y7350400D01*
X-51250000Y-13569200D02*
X-1570800Y-13569200D01*
X3621600Y-36065600D02*
X51250000Y-36065600D01*
X-51250000Y32144800D02*
X-58379200Y32144800D01*
X-1250000Y-16456400D02*
X-1250000Y-16296000D01*
X58378400Y-32045600D02*
X51250000Y-32045600D01*
X-51250000Y-36025200D02*
X-1570800Y-36025200D01*
X51250000Y16998400D02*
X58378400Y16998400D01*
X58378400Y8154400D02*
X51250000Y8154400D01*
X1371600Y23430400D02*
X51250000Y23430400D01*
X-6800000Y-2020400D02*
X-6800000Y-1860000D01*
X-51250000Y53798800D02*
X-50929200Y53798800D01*
X-58379200Y8886800D02*
X-51250000Y8886800D01*
D19*
X-4150000Y58150000D02*
X-4250000Y58250000D01*
D20*
X1050000Y33560800D02*
X1050000Y33400000D01*
X-51250000Y-20787200D02*
X-58379200Y-20787200D01*
X-58379200Y-32817200D02*
X-51250000Y-32817200D01*
X51250000Y-38477600D02*
X3621600Y-38477600D01*
X51250000Y-13553600D02*
X58378400Y-13553600D01*
X51250000Y-35261600D02*
X3621600Y-35261600D01*
X58378400Y40314400D02*
X51250000Y40314400D01*
D22*
X-16375000Y52875000D02*
X-16000000Y52500000D01*
D20*
X3300000Y-45231200D02*
X3300000Y-45392000D01*
X3621600Y-5513600D02*
X51250000Y-5513600D01*
X51250000Y25038400D02*
X58378400Y25038400D01*
X3621600Y-29633600D02*
X51250000Y-29633600D01*
X58378400Y30666400D02*
X51250000Y30666400D01*
X-4370800Y16104800D02*
X-51250000Y16104800D01*
X-51250000Y37758800D02*
X-4370800Y37758800D01*
X-7120800Y-1539200D02*
X-51250000Y-1539200D01*
X-52700000Y-57358400D02*
X-52700000Y-57198000D01*
X58700000Y50444800D02*
X58700000Y50284000D01*
X58378400Y-7925600D02*
X51250000Y-7925600D01*
X51250000Y-44909600D02*
X3621600Y-44909600D01*
X-58379200Y-40837200D02*
X-51250000Y-40837200D01*
X3621600Y-10337600D02*
X51250000Y-10337600D01*
X58700000Y-2619200D02*
X58700000Y-2780000D01*
X-1570800Y-14371200D02*
X-51250000Y-14371200D01*
X-250000Y-5500000D02*
X500000Y-6250000D01*
X3300000Y-17895200D02*
X3300000Y-18056000D01*
X-1570800Y-56075200D02*
X-50929200Y-56075200D01*
X-4050000Y36475600D02*
X-4050000Y36636000D01*
X58378400Y-14357600D02*
X51250000Y-14357600D01*
X-58379200Y-18381200D02*
X-51250000Y-18381200D01*
X-58379200Y-10361200D02*
X-51250000Y-10361200D01*
X-58379200Y44174800D02*
X-51250000Y44174800D01*
X-1570800Y-28807200D02*
X-51250000Y-28807200D01*
D22*
X2250000Y-58000000D02*
X2250000Y-5500000D01*
D20*
X-4370800Y49788800D02*
X-51250000Y49788800D01*
X-1250000Y-50140400D02*
X-1250000Y-49980000D01*
X3300000Y-21111200D02*
X3300000Y-21272000D01*
X-58379200Y-28005200D02*
X-51250000Y-28005200D01*
X58700000Y32756800D02*
X58700000Y32596000D01*
D22*
X2250000Y-5500000D02*
X750000Y-4000000D01*
D20*
X58378400Y25842400D02*
X51250000Y25842400D01*
X58378400Y-25613600D02*
X51250000Y-25613600D01*
D21*
X44867200Y56000000D02*
X50250000Y56000000D01*
D20*
X51250000Y-20789600D02*
X3621600Y-20789600D01*
X-58379200Y31342800D02*
X-51250000Y31342800D01*
X-51250000Y-33619200D02*
X-58379200Y-33619200D01*
X-28370800Y54600800D02*
X-50929200Y54600800D01*
X-58700000Y-18862400D02*
X-58700000Y-18702000D01*
X51250000Y-5513600D02*
X58378400Y-5513600D01*
X-51250000Y8084800D02*
X-58379200Y8084800D01*
X1371600Y16998400D02*
X51250000Y16998400D01*
X51250000Y46746400D02*
X1371600Y46746400D01*
X-51250000Y20114800D02*
X-4370800Y20114800D01*
X-50929200Y53798800D02*
X-28370800Y53798800D01*
X-51250000Y-23995200D02*
X-58379200Y-23995200D01*
X-16000000Y52500000D02*
X-3750000Y52500000D01*
X51250000Y12978400D02*
X1371600Y12978400D01*
X-51250000Y42570800D02*
X-4370800Y42570800D01*
X-58379200Y-19985200D02*
X-51250000Y-19985200D01*
X1371600Y5742400D02*
X51250000Y5742400D01*
X-1250000Y-29288400D02*
X-1250000Y-29128000D01*
X-58700000Y30861600D02*
X-58700000Y31022000D01*
X-58700000Y-31694400D02*
X-58700000Y-31534000D01*
X53450000Y52052800D02*
X53450000Y51892000D01*
X3300000Y-22719200D02*
X3300000Y-22880000D01*
X51250000Y43530400D02*
X1371600Y43530400D01*
X-4050000Y46099600D02*
X-4050000Y46260000D01*
X51250000Y-11945600D02*
X58378400Y-11945600D01*
X-58379200Y47382800D02*
X-51250000Y47382800D01*
X51250000Y-28025600D02*
X58378400Y-28025600D01*
X3621600Y-42497600D02*
X51250000Y-42497600D01*
X-58379200Y-26401200D02*
X-51250000Y-26401200D01*
X-58700000Y3593600D02*
X-58700000Y3754000D01*
X-18520799Y52996800D02*
X-51249999Y52996800D01*
X-58700000Y-33298400D02*
X-58700000Y-33138000D01*
X-1570800Y-30411200D02*
X-51250000Y-30411200D01*
X-1250000Y-54952400D02*
X-1250000Y-54792000D01*
X-51570800Y-57679200D02*
X-52379200Y-57679200D01*
X58700000Y35972800D02*
X58700000Y35812000D01*
X51250000Y-51341600D02*
X3621600Y-51341600D01*
X51250000Y32274400D02*
X1371600Y32274400D01*
X-58379200Y-39233200D02*
X-51250000Y-39233200D01*
X-2250000Y-5500000D02*
X-250000Y-5500000D01*
X-51250000Y-39233200D02*
X-1570800Y-39233200D01*
X-58700000Y46901600D02*
X-58700000Y47062000D01*
X-51250000Y-44847200D02*
X-58379200Y-44847200D01*
X51250000Y48354400D02*
X1371600Y48354400D01*
X51250000Y20214400D02*
X58378400Y20214400D01*
X-52000000Y56525600D02*
X-52000000Y56686000D01*
X-58379200Y-21589200D02*
X-51250000Y-21589200D01*
X-58379200Y-13569200D02*
X-51250000Y-13569200D01*
X51250000Y42726400D02*
X58378400Y42726400D01*
X58700000Y-33171200D02*
X58700000Y-33332000D01*
X58700000Y-28347200D02*
X58700000Y-28508000D01*
X-58700000Y8405600D02*
X-58700000Y8566000D01*
X-3750000Y52500000D02*
X-2500000Y51250000D01*
X-58379200Y16906800D02*
X-51250000Y16906800D01*
X1050000Y22304800D02*
X1050000Y22144000D01*
X-1570800Y-22391200D02*
X-51250000Y-22391200D01*
X51250000Y10566400D02*
X58378400Y10566400D01*
X-51250000Y-18381200D02*
X-1570800Y-18381200D01*
X1050000Y39992800D02*
X1050000Y39832000D01*
X-58379200Y21718800D02*
X-51250000Y21718800D01*
X51250000Y-39281600D02*
X58378400Y-39281600D01*
X-51250000Y-10361200D02*
X-1570800Y-10361200D01*
X1050000Y41600800D02*
X1050000Y41440000D01*
X58700000Y-34779200D02*
X58700000Y-34940000D01*
X-51250000Y-16777200D02*
X-1570800Y-16777200D01*
X-51250000Y38560800D02*
X-58379200Y38560800D01*
X-58379200Y18510800D02*
X-51250000Y18510800D01*
X1371600Y44334400D02*
X51250000Y44334400D01*
X51250000Y-25613600D02*
X3621600Y-25613600D01*
X58378400Y-22397600D02*
X51250000Y-22397600D01*
X3300000Y-27543200D02*
X3300000Y-27704000D01*
X51250000Y-18377600D02*
X58378400Y-18377600D01*
X-4500000Y-5228400D02*
X-4500000Y-5068000D01*
X3300000Y-24327200D02*
X3300000Y-24488000D01*
X51250000Y-50537600D02*
X58378400Y-50537600D01*
X51250000Y21822400D02*
X58378400Y21822400D01*
X51250000Y-40889600D02*
X58378400Y-40889600D01*
X-4050000Y47703600D02*
X-4050000Y47864000D01*
X-51250000Y-9559200D02*
X-58379200Y-9559200D01*
X51250000Y-32849600D02*
X58378400Y-32849600D01*
X58700000Y3812800D02*
X58700000Y3652000D01*
X1050000Y15872800D02*
X1050000Y15712000D01*
X-1570800Y-40035200D02*
X-51250000Y-40035200D01*
X-51250000Y-35223200D02*
X-58379200Y-35223200D01*
X-58379200Y-8757200D02*
X-51250000Y-8757200D01*
X-4050000Y10811600D02*
X-4050000Y10972000D01*
X-51250000Y-51263200D02*
X-58379200Y-51263200D01*
X51250000Y-36065600D02*
X58378400Y-36065600D01*
X51250000Y-1493600D02*
X3521600Y-1493600D01*
X-51250000Y-23193200D02*
X-1570800Y-23193200D01*
X-4050000Y28455600D02*
X-4050000Y28616000D01*
X58700000Y29540800D02*
X58700000Y29380000D01*
X-58379200Y28134800D02*
X-51250000Y28134800D01*
X-58700000Y45297600D02*
X-58700000Y45458000D01*
X-58379200Y-31213200D02*
X-51250000Y-31213200D01*
X-4050000Y39683600D02*
X-4050000Y39844000D01*
X1371600Y20214400D02*
X51250000Y20214400D01*
X58378400Y-27221600D02*
X51250000Y-27221600D01*
X-51250000Y49788800D02*
X-58379200Y49788800D01*
X3621600Y-16769600D02*
X51250000Y-16769600D01*
X-1570800Y-15975200D02*
X-51250000Y-15975200D01*
X51250000Y31470400D02*
X58378400Y31470400D01*
X58378400Y21018400D02*
X51250000Y21018400D01*
X51250000Y11370400D02*
X1371600Y11370400D01*
X58700000Y5420800D02*
X58700000Y5260000D01*
X58700000Y8636800D02*
X58700000Y8476000D01*
X-7120800Y1668800D02*
X-51250000Y1668800D01*
X51250000Y50766400D02*
X58378400Y50766400D01*
X-18500000Y55000000D02*
X-16000000Y52500000D01*
X-6520800Y-3143200D02*
X-51250000Y-3143200D01*
X3621600Y-689600D02*
X51250000Y-689600D01*
X-6800000Y-416400D02*
X-6800000Y-256000D01*
X58700000Y-49251200D02*
X58700000Y-49412000D01*
X2050000Y3008800D02*
X2050000Y2848000D01*
X58378400Y45138400D02*
X51250000Y45138400D01*
X-53600000Y51713600D02*
X-53600000Y51874000D01*
X-4370800Y19312800D02*
X-51250000Y19312800D01*
X-51250000Y-21589200D02*
X-1570800Y-21589200D01*
X3300000Y-19503200D02*
X3300000Y-19664000D01*
X51250000Y-37673600D02*
X58378400Y-37673600D01*
X-4370800Y41768800D02*
X-51250000Y41768800D01*
X51250000Y-48929600D02*
X58378400Y-48929600D01*
X3300000Y-51663200D02*
X3300000Y-51824000D01*
X3300000Y-38799200D02*
X3300000Y-38960000D01*
X58378400Y-17573600D02*
X51250000Y-17573600D01*
X-4050000Y42891600D02*
X-4050000Y43052000D01*
X58378400Y22626400D02*
X51250000Y22626400D01*
X-51250000Y39362800D02*
X-4370800Y39362800D01*
X51250000Y36294400D02*
X58378400Y36294400D01*
X-58379200Y13698800D02*
X-51250000Y13698800D01*
X-4370800Y36956800D02*
X-51250000Y36956800D01*
X58700000Y37580800D02*
X58700000Y37420000D01*
X-58700000Y24445600D02*
X-58700000Y24606000D01*
X-51250000Y48184800D02*
X-58379200Y48184800D01*
X1050000Y30344800D02*
X1050000Y30184000D01*
X-1570800Y-43243200D02*
X-51250000Y-43243200D01*
X51250000Y45138400D02*
X1371600Y45138400D01*
X-58700000Y385600D02*
X-58700000Y546000D01*
X51250000Y-21593600D02*
X58378400Y-21593600D01*
X1050000Y12656800D02*
X1050000Y12496000D01*
X-58700000Y-36506400D02*
X-58700000Y-36346000D01*
X3200000Y-1815200D02*
X3200000Y-1976000D01*
X-6500000Y5999600D02*
X-6500000Y6160000D01*
X-4050000Y38079600D02*
X-4050000Y38240000D01*
X-1570800Y-25599200D02*
X-51250000Y-25599200D01*
X51250000Y44334400D02*
X58378400Y44334400D01*
X51250000Y23430400D02*
X58378400Y23430400D01*
X1371600Y13782400D02*
X51250000Y13782400D01*
X58378400Y32274400D02*
X51250000Y32274400D01*
X2371600Y4134400D02*
X51250000Y4134400D01*
X-51250000Y-41639200D02*
X-58379200Y-41639200D01*
X3621600Y-8729600D02*
X51250000Y-8729600D01*
X51250000Y114400D02*
X3621600Y114400D01*
X1050000Y44816800D02*
X1050000Y44656000D01*
X-58700000Y-10842400D02*
X-58700000Y-10682000D01*
X-1250000Y-21268400D02*
X-1250000Y-21108000D01*
X-1250000Y-18060400D02*
X-1250000Y-17900000D01*
X-1250000Y-43724400D02*
X-1250000Y-43564000D01*
X51250000Y918400D02*
X58378400Y918400D01*
X51250000Y-31241600D02*
X58378400Y-31241600D01*
X58378400Y-40085600D02*
X51250000Y-40085600D01*
X-3070800Y-6351200D02*
X-51250000Y-6351200D01*
X-51250000Y-19985200D02*
X-1570800Y-19985200D01*
D22*
X-4000000Y4000000D02*
X-1011400Y6988600D01*
D20*
X-58700000Y-39714400D02*
X-58700000Y-39554000D01*
X1050000Y27128800D02*
X1050000Y26968000D01*
X3300000Y-33975200D02*
X3300000Y-34136000D01*
X58700000Y-36387200D02*
X58700000Y-36548000D01*
X51250000Y-689600D02*
X58378400Y-689600D01*
X-2500000Y7750000D02*
X-5250000Y5000000D01*
X-51250000Y64800D02*
X-58379200Y64800D01*
X-58379200Y29738800D02*
X-51250000Y29738800D01*
D22*
X51250000Y-58000000D02*
X2250000Y-58000000D01*
D20*
X-51250000Y-17579200D02*
X-58379200Y-17579200D01*
X51250000Y49158400D02*
X58378400Y49158400D01*
X-51250000Y-36827200D02*
X-58379200Y-36827200D01*
X1050000Y38384800D02*
X1050000Y38224000D01*
X-58379200Y-44045200D02*
X-51250000Y-44045200D01*
X-58379200Y-37629200D02*
X-51250000Y-37629200D01*
X-1250000Y-13248400D02*
X-1250000Y-13088000D01*
X-58700000Y37277600D02*
X-58700000Y37438000D01*
X-51250000Y13698800D02*
X-4370800Y13698800D01*
X-51250000Y3272800D02*
X-58379200Y3272800D01*
X-4050000Y23643600D02*
X-4050000Y23804000D01*
X3250000Y1400800D02*
X3250000Y1240000D01*
X58378400Y43530400D02*
X51250000Y43530400D01*
X-51250000Y-47253200D02*
X-1570800Y-47253200D01*
X-58700000Y11613600D02*
X-58700000Y11774000D01*
X3621600Y-52145600D02*
X51250000Y-52145600D01*
X-51250000Y-19183200D02*
X-58379200Y-19183200D01*
X-51250000Y11292800D02*
X-58379200Y11292800D01*
X-1570800Y-49659200D02*
X-51250000Y-49659200D01*
X51250000Y-54075200D02*
X51250000Y-54236000D01*
X-51250000Y26530800D02*
X-4370800Y26530800D01*
X-51250000Y-6351200D02*
X-58379200Y-6351200D01*
X-58700000Y18029600D02*
X-58700000Y18190000D01*
D19*
X-9850000Y56000000D02*
X-9850000Y54650000D01*
D20*
X-58700000Y16425600D02*
X-58700000Y16586000D01*
X51250000Y-57452000D02*
X51250000Y-58000000D01*
X-1250000Y-46932400D02*
X-1250000Y-46772000D01*
X-1570800Y-27203200D02*
X-51250000Y-27203200D01*
X-51250000Y-26401200D02*
X-1570800Y-26401200D01*
X-51250000Y-32817200D02*
X-1570800Y-32817200D01*
X51250000Y37902400D02*
X58378400Y37902400D01*
X-4050000Y20435600D02*
X-4050000Y20596000D01*
X-1250000Y-34100400D02*
X-1250000Y-33940000D01*
X-4370800Y33748800D02*
X-51250000Y33748800D01*
X-51250000Y12094800D02*
X-4370800Y12094800D01*
D21*
X-13000000Y54750000D02*
X-12750000Y54500000D01*
D20*
X-1570800Y-7955200D02*
X-51250000Y-7955200D01*
X-58379200Y-34421200D02*
X-51250000Y-34421200D01*
X51250000Y-6317600D02*
X3621600Y-6317600D01*
X-6820800Y6480800D02*
X-51250000Y6480800D01*
X3621600Y-44105600D02*
X51250000Y-44105600D01*
X51250000Y-3101600D02*
X3621600Y-3101600D01*
X51250000Y-46517600D02*
X3621600Y-46517600D01*
X-16920800Y51392800D02*
X-51250000Y51392800D01*
X51250000Y-29633600D02*
X58378400Y-29633600D01*
X-4050000Y22039600D02*
X-4050000Y22200000D01*
X-1570800Y-52867200D02*
X-50929200Y-52867200D01*
X-6800000Y1187600D02*
X-6800000Y1348000D01*
X-58700000Y22841600D02*
X-58700000Y23002000D01*
X51250000Y19410400D02*
X1371600Y19410400D01*
X51250000Y35490400D02*
X1371600Y35490400D01*
X-4370800Y14500800D02*
X-51250000Y14500800D01*
X-4050000Y18831600D02*
X-4050000Y18992000D01*
X51250000Y-23201600D02*
X58378400Y-23201600D01*
X-58700000Y13217600D02*
X-58700000Y13378000D01*
X-53279200Y52194800D02*
X-51250000Y52194800D01*
X-51250000Y40164800D02*
X-58379200Y40164800D01*
X51250000Y26646400D02*
X58378400Y26646400D01*
X-58700000Y50109600D02*
X-58700000Y50270000D01*
X-50929200Y55402800D02*
X-28370800Y55402800D01*
X51250000Y-22397600D02*
X3621600Y-22397600D01*
X500000Y-58000000D02*
X-51250000Y-58000000D01*
X-58700000Y34069600D02*
X-58700000Y34230000D01*
X-1570800Y-44847200D02*
X-51250000Y-44847200D01*
X1371600Y8958400D02*
X51250000Y8958400D01*
X-58700000Y43693600D02*
X-58700000Y43854000D01*
X58378400Y-28829600D02*
X51250000Y-28829600D01*
D22*
X750000Y-4000000D02*
X-1750000Y-4000000D01*
D20*
X1371600Y45942400D02*
X51250000Y45942400D01*
X-51250000Y4876800D02*
X-58379200Y4876800D01*
X-51250000Y33748800D02*
X-58379200Y33748800D01*
D22*
X-1011400Y6988600D02*
X-1011400Y52011400D01*
D20*
X3621600Y-39281600D02*
X51250000Y-39281600D01*
X-58700000Y-38110400D02*
X-58700000Y-37950000D01*
X-51250000Y-4747200D02*
X-58379200Y-4747200D01*
X1371600Y49158400D02*
X51250000Y49158400D01*
X-52629200Y-52065200D02*
X-51250000Y-52065200D01*
X58700000Y-50859200D02*
X58700000Y-51020000D01*
X-51250000Y-27203200D02*
X-58379200Y-27203200D01*
X1371600Y50766400D02*
X51250000Y50766400D01*
X51250000Y-9533600D02*
X3621600Y-9533600D01*
X51250000Y2526400D02*
X58378400Y2526400D01*
X-51250000Y-25599200D02*
X-58379200Y-25599200D01*
X51250000Y6546400D02*
X1371600Y6546400D01*
X500000Y-6250000D02*
X500000Y-58000000D01*
X-51250000Y30540800D02*
X-58379200Y30540800D01*
X51250000Y33882400D02*
X1371600Y33882400D01*
X-51250000Y23322800D02*
X-4370800Y23322800D01*
X51250000Y-32045600D02*
X3621600Y-32045600D01*
X-58379200Y-11965200D02*
X-51250000Y-11965200D01*
X-58379200Y32946800D02*
X-51250000Y32946800D01*
X3571600Y918400D02*
X51250000Y918400D01*
X3300000Y-43623200D02*
X3300000Y-43784000D01*
X3621600Y-47321600D02*
X51250000Y-47321600D01*
X1050000Y9440800D02*
X1050000Y9280000D01*
X3621600Y-7121600D02*
X51250000Y-7121600D01*
X-51250000Y-44045200D02*
X-1570800Y-44045200D01*
X51250000Y-41693600D02*
X3621600Y-41693600D01*
X-58700000Y35673600D02*
X-58700000Y35834000D01*
D22*
X-4000000Y-1750000D02*
X-4000000Y4000000D01*
D20*
X-51250000Y-12767200D02*
X-58379200Y-12767200D01*
X3300000Y-9855200D02*
X3300000Y-10016000D01*
X58378400Y-41693600D02*
X51250000Y-41693600D01*
X-51250000Y44976800D02*
X-58379200Y44976800D01*
X58700000Y40796800D02*
X58700000Y40636000D01*
X-58379200Y-3945200D02*
X-51250000Y-3945200D01*
X-58700000Y-17258400D02*
X-58700000Y-17098000D01*
X-51250000Y16906800D02*
X-4370800Y16906800D01*
X-4370800Y44976800D02*
X-51250000Y44976800D01*
X3300000Y-46839200D02*
X3300000Y-47000000D01*
X51250000Y38706400D02*
X1371600Y38706400D01*
X58700000Y-39603200D02*
X58700000Y-39764000D01*
X50928400Y52374400D02*
X51250000Y52374400D01*
X58378400Y19410400D02*
X51250000Y19410400D01*
X-28050000Y55723600D02*
X-28050000Y55884000D01*
X-51679200Y57006800D02*
X-51570800Y57006800D01*
D21*
X-12750000Y54500000D02*
X-10000000Y54500000D01*
D20*
X58700000Y-46035200D02*
X58700000Y-46196000D01*
X-51250000Y-38431200D02*
X-58379200Y-38431200D01*
X58378400Y33882400D02*
X51250000Y33882400D01*
X51250000Y51570400D02*
X1371600Y51570400D01*
D22*
X50250000Y56000000D02*
X51250000Y55000000D01*
D20*
X51250000Y14586400D02*
X1371600Y14586400D01*
X-4370800Y43372800D02*
X-51250000Y43372800D01*
X-7120800Y64800D02*
X-51250000Y64800D01*
X50928400Y-56165600D02*
X3621600Y-56165600D01*
X-4050000Y33267600D02*
X-4050000Y33428000D01*
X58378400Y-46517600D02*
X51250000Y-46517600D01*
X-58700000Y40485600D02*
X-58700000Y40646000D01*
X-58700000Y21237600D02*
X-58700000Y21398000D01*
X1050000Y7832800D02*
X1050000Y7672000D01*
X58700000Y23108800D02*
X58700000Y22948000D01*
X58378400Y-51341600D02*
X51250000Y-51341600D01*
X58700000Y48836800D02*
X58700000Y48676000D01*
X-58379200Y-24797200D02*
X-51250000Y-24797200D01*
X-51250000Y51392800D02*
X-53279200Y51392800D01*
X51250000Y29862400D02*
X58378400Y29862400D01*
X-58700000Y-42922400D02*
X-58700000Y-42762000D01*
X58378400Y6546400D02*
X51250000Y6546400D01*
X-4050000Y15623600D02*
X-4050000Y15784000D01*
X-2750000Y-6832400D02*
X-2750000Y-6672000D01*
X-51250000Y34550800D02*
X-4370800Y34550800D01*
X-51250000Y6480800D02*
X-58379200Y6480800D01*
X-51250000Y-54150400D02*
X-51250000Y-53990000D01*
X58378400Y-9533600D02*
X51250000Y-9533600D01*
X-58379200Y-5549200D02*
X-51250000Y-5549200D01*
X-58379200Y4074800D02*
X-51250000Y4074800D01*
X51250000Y-24809600D02*
X58378400Y-24809600D01*
X-58379200Y-16777200D02*
X-51250000Y-16777200D01*
X-51250000Y-48055200D02*
X-58379200Y-48055200D01*
X-51250000Y36154800D02*
X-4370800Y36154800D01*
X-51250000Y-30411200D02*
X-58379200Y-30411200D01*
X-51250000Y24926800D02*
X-4370800Y24926800D01*
X58378400Y46746400D02*
X51250000Y46746400D01*
X-51250000Y-11965200D02*
X-1570800Y-11965200D01*
X-51250000Y-40837200D02*
X-1570800Y-40837200D01*
X-18199999Y52515600D02*
X-18199999Y52676000D01*
X-51250000Y12896800D02*
X-58379200Y12896800D01*
X1371600Y21822400D02*
X51250000Y21822400D01*
X-51250000Y1668800D02*
X-58379200Y1668800D01*
X58378400Y38706400D02*
X51250000Y38706400D01*
X-4050000Y34871600D02*
X-4050000Y35032000D01*
X-4050000Y25247600D02*
X-4050000Y25408000D01*
X-50929200Y56204800D02*
X-51570800Y56204800D01*
X-1250000Y-22872400D02*
X-1250000Y-22712000D01*
X1050000Y20696800D02*
X1050000Y20536000D01*
X-51250000Y-52065200D02*
X-1570800Y-52065200D01*
X58700000Y21500800D02*
X58700000Y21340000D01*
X-1250000Y-38912400D02*
X-1250000Y-38752000D01*
X3621600Y-37673600D02*
X51250000Y-37673600D01*
X1371600Y29862400D02*
X51250000Y29862400D01*
X51250000Y16194400D02*
X1371600Y16194400D01*
X-1570800Y-38431200D02*
X-51250000Y-38431200D01*
X1371600Y26646400D02*
X51250000Y26646400D01*
X51250000Y34686400D02*
X58378400Y34686400D01*
X-58700000Y42089600D02*
X-58700000Y42250000D01*
X-1250000Y-37308400D02*
X-1250000Y-37148000D01*
X58700000Y-15483200D02*
X58700000Y-15644000D01*
X58700000Y-7443200D02*
X58700000Y-7604000D01*
X3621600Y-53753600D02*
X50928400Y-53753600D01*
X58700000Y18284800D02*
X58700000Y18124000D01*
X51250000Y-7925600D02*
X3621600Y-7925600D01*
X-58379200Y-42441200D02*
X-51250000Y-42441200D01*
X-1250000Y-42120400D02*
X-1250000Y-41960000D01*
X58700000Y-5835200D02*
X58700000Y-5996000D01*
X-1250000Y-27684400D02*
X-1250000Y-27524000D01*
X3300000Y-16287200D02*
X3300000Y-16448000D01*
X-6200000Y-3624400D02*
X-6200000Y-3464000D01*
X51250000Y-11141600D02*
X3621600Y-11141600D01*
X-2500000Y51250000D02*
X-2500000Y7750000D01*
X-51250000Y-42441200D02*
X-1570800Y-42441200D01*
X-51250000Y29738800D02*
X-4370800Y29738800D01*
X51250000Y-36869600D02*
X3621600Y-36869600D01*
X58378400Y12978400D02*
X51250000Y12978400D01*
X58700000Y596800D02*
X58700000Y436000D01*
X-1250000Y-45328400D02*
X-1250000Y-45168000D01*
X3621600Y-24809600D02*
X51250000Y-24809600D01*
X51250000Y21018400D02*
X1371600Y21018400D01*
X-58379200Y-2341200D02*
X-51250000Y-2341200D01*
X51250000Y-15965600D02*
X3621600Y-15965600D01*
X-28370800Y56204800D02*
X-50929200Y56204800D01*
X-51250000Y-46451200D02*
X-58379200Y-46451200D01*
X58700000Y47228800D02*
X58700000Y47068000D01*
X3300000Y-14679200D02*
X3300000Y-14840000D01*
X58378400Y3330400D02*
X51250000Y3330400D01*
X51250000Y-19181600D02*
X3621600Y-19181600D01*
X-58700000Y-20466400D02*
X-58700000Y-20306000D01*
X-58379200Y-15173200D02*
X-51250000Y-15173200D01*
X-58379200Y24926800D02*
X-51250000Y24926800D01*
X58378400Y-24005600D02*
X51250000Y-24005600D01*
X-51250000Y14500800D02*
X-58379200Y14500800D01*
X-1250000Y-48536400D02*
X-1250000Y-48376000D01*
X-51250000Y15302800D02*
X-4370800Y15302800D01*
X-58379200Y42570800D02*
X-51250000Y42570800D01*
X-58379200Y-29609200D02*
X-51250000Y-29609200D01*
X1050000Y23912800D02*
X1050000Y23752000D01*
X51250000Y-47321600D02*
X58378400Y-47321600D01*
X58378400Y17802400D02*
X51250000Y17802400D01*
X58700000Y15068800D02*
X58700000Y14908000D01*
X-58379200Y34550800D02*
X-51250000Y34550800D01*
X-50929200Y-56877200D02*
X-1570800Y-56877200D01*
D21*
X14000000Y56000000D02*
X11750000Y58250000D01*
D20*
X-51250000Y44174800D02*
X-4370800Y44174800D01*
X-58379200Y15302800D02*
X-51250000Y15302800D01*
X3300000Y-54879200D02*
X3300000Y-55040000D01*
X-52000000Y53317600D02*
X-52000000Y53478000D01*
X51250000Y45942400D02*
X58378400Y45942400D01*
X-51250000Y-3945200D02*
X-6520800Y-3945200D01*
X58378400Y14586400D02*
X51250000Y14586400D01*
X-1250000Y-32496400D02*
X-1250000Y-32336000D01*
X58700000Y11852800D02*
X58700000Y11692000D01*
X51250000Y-55683200D02*
X51250000Y-55844000D01*
X1371600Y52374400D02*
X50928400Y52374400D01*
X58378400Y35490400D02*
X51250000Y35490400D01*
X-51250000Y-28807200D02*
X-58379200Y-28807200D01*
X3300000Y-5031200D02*
X3300000Y-5192000D01*
X-51250000Y8886800D02*
X-4370800Y8886800D01*
X3300000Y-53271200D02*
X3300000Y-53432000D01*
X-58700000Y-50942400D02*
X-58700000Y-50782000D01*
X51250000Y-4709600D02*
X3621600Y-4709600D01*
X-58700000Y38881600D02*
X-58700000Y39042000D01*
X-58700000Y-47734400D02*
X-58700000Y-47574000D01*
X58700000Y27932800D02*
X58700000Y27772000D01*
X50928400Y53178400D02*
X1371600Y53178400D01*
X-4370800Y22520800D02*
X-51250000Y22520800D01*
X-51250000Y54921600D02*
X-51250000Y55082000D01*
X51250000Y30666400D02*
X1371600Y30666400D01*
X-58379200Y40966800D02*
X-51250000Y40966800D01*
X-51250000Y-32015200D02*
X-58379200Y-32015200D01*
X58700000Y-9051200D02*
X58700000Y-9212000D01*
X3300000Y-8247200D02*
X3300000Y-8408000D01*
X-51250000Y-49659200D02*
X-58379200Y-49659200D01*
X58700000Y-21915200D02*
X58700000Y-22076000D01*
X-51250000Y-15173200D02*
X-1570800Y-15173200D01*
X-58700000Y29257600D02*
X-58700000Y29418000D01*
X-58700000Y19633600D02*
X-58700000Y19794000D01*
X-58379200Y-36025200D02*
X-51250000Y-36025200D01*
X1050000Y36776800D02*
X1050000Y36616000D01*
X1050000Y14264800D02*
X1050000Y14104000D01*
X58700000Y16676800D02*
X58700000Y16516000D01*
X3621600Y-13553600D02*
X51250000Y-13553600D01*
X-50929200Y-55273200D02*
X-1570800Y-55273200D01*
X51250000Y-8729600D02*
X58378400Y-8729600D01*
X51250000Y28254400D02*
X58378400Y28254400D01*
X-1250000Y-53348400D02*
X-1250000Y-53188000D01*
X-58379200Y-50461200D02*
X-51250000Y-50461200D01*
X-1250000Y-51744400D02*
X-1250000Y-51584000D01*
D19*
X-4150000Y56000000D02*
X-4150000Y58150000D01*
D20*
X3621600Y-40889600D02*
X51250000Y-40889600D01*
X1371600Y47550400D02*
X51250000Y47550400D01*
X-58700000Y-9238400D02*
X-58700000Y-9078000D01*
X-4900000Y7603600D02*
X-4900000Y7764000D01*
X3621600Y-21593600D02*
X51250000Y-21593600D01*
X58700000Y-13875200D02*
X58700000Y-14036000D01*
D19*
X-9850000Y54650000D02*
X-10000000Y54500000D01*
D20*
X-4370800Y11292800D02*
X-51250000Y11292800D01*
X3621600Y-45713600D02*
X51250000Y-45713600D01*
X3300000Y-25935200D02*
X3300000Y-26096000D01*
X1371600Y36294400D02*
X51250000Y36294400D01*
X-50929200Y-52867200D02*
X-51250000Y-52867200D01*
X51250000Y13782400D02*
X58378400Y13782400D01*
X3621600Y-32849600D02*
X51250000Y-32849600D01*
X1371600Y41118400D02*
X51250000Y41118400D01*
X3300000Y-3423200D02*
X3300000Y-3584000D01*
X1371600Y12174400D02*
X51250000Y12174400D01*
X58700000Y-23523200D02*
X58700000Y-23684000D01*
X-58700000Y-7634400D02*
X-58700000Y-7474000D01*
X1371600Y28254400D02*
X51250000Y28254400D01*
X58700000Y44012800D02*
X58700000Y43852000D01*
X-1250000Y-19664400D02*
X-1250000Y-19504000D01*
X3300000Y-35583200D02*
X3300000Y-35744000D01*
X-51250000Y4074800D02*
X-7120800Y4074800D01*
X-51250000Y-45649200D02*
X-1570800Y-45649200D01*
X-58700000Y6801600D02*
X-58700000Y6962000D01*
X-1250000Y-35704400D02*
X-1250000Y-35544000D01*
X-58700000Y-6030400D02*
X-58700000Y-5870000D01*
X51250000Y40314400D02*
X1371600Y40314400D01*
X51250000Y-12749600D02*
X3621600Y-12749600D01*
X58378400Y-35261600D02*
X51250000Y-35261600D01*
X-1570800Y-35223200D02*
X-51250000Y-35223200D01*
X-18500000Y56000000D02*
X-18500000Y55000000D01*
X-51250000Y36956800D02*
X-58379200Y36956800D01*
X-51250000Y-55754400D02*
X-51250000Y-55594000D01*
X51250000Y22626400D02*
X1371600Y22626400D01*
X-51250000Y-50461200D02*
X-1570800Y-50461200D01*
X3300000Y-6639200D02*
X3300000Y-6800000D01*
X51250000Y39510400D02*
X58378400Y39510400D01*
X-58379200Y36154800D02*
X-51250000Y36154800D01*
X-58700000Y32465600D02*
X-58700000Y32626000D01*
X-58700000Y-26882400D02*
X-58700000Y-26722000D01*
X-1570800Y-23995200D02*
X-51250000Y-23995200D01*
X-58700000Y-12446400D02*
X-58700000Y-12286000D01*
X-51250000Y52194800D02*
X-18520799Y52194800D01*
X-4820800Y-4747200D02*
X-51250000Y-4747200D01*
X51250000Y41118400D02*
X58378400Y41118400D01*
X58378400Y-48125600D02*
X51250000Y-48125600D01*
D21*
X30001100Y55996400D02*
X44863600Y55996400D01*
X44863600Y55996400D02*
X44867200Y56000000D01*
D20*
X-58700000Y5197600D02*
X-58700000Y5358000D01*
X-51250000Y-737200D02*
X-7120800Y-737200D01*
X-51570800Y-56877200D02*
X-50929200Y-56877200D01*
X-58379200Y12094800D02*
X-51250000Y12094800D01*
X-51249999Y52996800D02*
X-51250000Y52996800D01*
X3621600Y-31241600D02*
X51250000Y-31241600D01*
X-7120800Y3272800D02*
X-51250000Y3272800D01*
X-1570800Y-17579200D02*
X-51250000Y-17579200D01*
X58700000Y31148800D02*
X58700000Y30988000D01*
X51250000Y-3905600D02*
X58378400Y-3905600D01*
X-58700000Y-28486400D02*
X-58700000Y-28326000D01*
X-1570800Y-54471200D02*
X-50929200Y-54471200D01*
X52850000Y-52467200D02*
X52850000Y-52628000D01*
X51250000Y37098400D02*
X1371600Y37098400D01*
X-51250000Y21718800D02*
X-4370800Y21718800D01*
X1371600Y7350400D02*
X51250000Y7350400D01*
X3621600Y-26417600D02*
X51250000Y-26417600D01*
X-58379200Y10490800D02*
X-51250000Y10490800D01*
X-58700000Y48505600D02*
X-58700000Y48666000D01*
X3621600Y-50537600D02*
X51250000Y-50537600D01*
X-51250000Y-7153200D02*
X-3070800Y-7153200D01*
X-51250000Y-1539200D02*
X-58379200Y-1539200D01*
X51250000Y-34457600D02*
X58378400Y-34457600D01*
X-4370800Y27332800D02*
X-51250000Y27332800D01*
X3621600Y-19985600D02*
X51250000Y-19985600D01*
X-51250000Y28134800D02*
X-4370800Y28134800D01*
D21*
X-4250000Y58250000D02*
X-51250000Y58250000D01*
D20*
X-5250000Y5000000D02*
X-5250000Y-2500000D01*
X58700000Y26324800D02*
X58700000Y26164000D01*
X1050000Y11048800D02*
X1050000Y10888000D01*
X-51250000Y5678800D02*
X-6820800Y5678800D01*
X58378400Y9762400D02*
X51250000Y9762400D01*
X-51250000Y-37629200D02*
X-1570800Y-37629200D01*
X51250000Y-57291200D02*
X51250000Y-57452000D01*
X51250000Y29058400D02*
X1371600Y29058400D01*
X58700000Y19892800D02*
X58700000Y19732000D01*
X51250000Y-52145600D02*
X52528400Y-52145600D01*
X-58379200Y-45649200D02*
X-51250000Y-45649200D01*
X58700000Y42404800D02*
X58700000Y42244000D01*
X-51250000Y-2341200D02*
X-7120800Y-2341200D01*
X58700000Y-41211200D02*
X58700000Y-41372000D01*
X-58379200Y20114800D02*
X-51250000Y20114800D01*
X-58700000Y27653600D02*
X-58700000Y27814000D01*
X-28050000Y54119600D02*
X-28050000Y54280000D01*
X-4050000Y41287600D02*
X-4050000Y41448000D01*
X51250000Y12174400D02*
X58378400Y12174400D01*
X53128400Y51570400D02*
X51250000Y51570400D01*
X-1570800Y-32015200D02*
X-51250000Y-32015200D01*
X1050000Y6224800D02*
X1050000Y6064000D01*
X51250000Y24234400D02*
X1371600Y24234400D01*
X-16600000Y50911600D02*
X-16600000Y51072000D01*
X58700000Y10244800D02*
X58700000Y10084000D01*
X-4050000Y17227600D02*
X-4050000Y17388000D01*
X1050000Y35168800D02*
X1050000Y35008000D01*
X-4370800Y48184800D02*
X-51250000Y48184800D01*
X-51250000Y-29609200D02*
X-1570800Y-29609200D01*
X-4370800Y20916800D02*
X-51250000Y20916800D01*
X-51250000Y27332800D02*
X-58379200Y27332800D01*
X-58700000Y-34902400D02*
X-58700000Y-34742000D01*
X-4370800Y28936800D02*
X-51250000Y28936800D01*
X51250000Y-14357600D02*
X3621600Y-14357600D01*
D22*
X-3500000Y54500000D02*
X-10000000Y54500000D01*
D20*
X58700000Y-29955200D02*
X58700000Y-30116000D01*
X51250000Y-43301600D02*
X3621600Y-43301600D01*
X-58379200Y26530800D02*
X-51250000Y26530800D01*
D21*
X11750000Y58250000D02*
X-4250000Y58250000D01*
D20*
X3300000Y-30759200D02*
X3300000Y-30920000D01*
X58378400Y-11141600D02*
X51250000Y-11141600D01*
X-1250000Y-24476400D02*
X-1250000Y-24316000D01*
X58700000Y-44427200D02*
X58700000Y-44588000D01*
D22*
X-19500000Y56000000D02*
X-16375000Y52875000D01*
D20*
X-51250000Y50590800D02*
X-16920800Y50590800D01*
X51250000Y4134400D02*
X58378400Y4134400D01*
X-51250000Y31342800D02*
X-4370800Y31342800D01*
X-58700000Y-1218400D02*
X-58700000Y-1058000D01*
X-58379200Y2470800D02*
X-51250000Y2470800D01*
X-58379200Y39362800D02*
X-51250000Y39362800D01*
X-1250000Y-11644400D02*
X-1250000Y-11484000D01*
X51250000Y-28829600D02*
X3621600Y-28829600D01*
X58378400Y-49733600D02*
X51250000Y-49733600D01*
X58378400Y1722400D02*
X51250000Y1722400D01*
X51250000Y-33653600D02*
X3621600Y-33653600D01*
X58700000Y-18699200D02*
X58700000Y-18860000D01*
X51250000Y-26417600D02*
X58378400Y-26417600D01*
X-51250000Y-34421200D02*
X-1570800Y-34421200D01*
X1371600Y42726400D02*
X51250000Y42726400D01*
X-51250000Y17708800D02*
X-58379200Y17708800D01*
X51250000Y-16769600D02*
X58378400Y-16769600D01*
X51250000Y52374400D02*
X53128400Y52374400D01*
X58700000Y-47643200D02*
X58700000Y-47804000D01*
X-58700000Y-22070400D02*
X-58700000Y-21910000D01*
X-58700000Y-23674400D02*
X-58700000Y-23514000D01*
X51250000Y-19985600D02*
X58378400Y-19985600D01*
X-5250000Y-2500000D02*
X-2250000Y-5500000D01*
X3300000Y-11463200D02*
X3300000Y-11624000D01*
X-1570800Y-36827200D02*
X-51250000Y-36827200D01*
X-51250000Y-14371200D02*
X-58379200Y-14371200D01*
X58378400Y24234400D02*
X51250000Y24234400D01*
X51250000Y-2297600D02*
X58378400Y-2297600D01*
X58700000Y-20307200D02*
X58700000Y-20468000D01*
X58700000Y13460800D02*
X58700000Y13300000D01*
X-51250000Y-15975200D02*
X-58379200Y-15975200D01*
X-4050000Y26851600D02*
X-4050000Y27012000D01*
X1371600Y25038400D02*
X51250000Y25038400D01*
X58378400Y-1493600D02*
X51250000Y-1493600D01*
X58700000Y-31563200D02*
X58700000Y-31724000D01*
X1371600Y10566400D02*
X51250000Y10566400D01*
D22*
X-1750000Y-4000000D02*
X-4000000Y-1750000D01*
D20*
X-51250000Y866800D02*
X-7120800Y866800D01*
X-4370800Y46580800D02*
X-51250000Y46580800D01*
X1050000Y17480800D02*
X1050000Y17320000D01*
X-4050000Y12415600D02*
X-4050000Y12576000D01*
X3521600Y-2297600D02*
X51250000Y-2297600D01*
X1050000Y25520800D02*
X1050000Y25360000D01*
X3300000Y-32367200D02*
X3300000Y-32528000D01*
X1371600Y37902400D02*
X51250000Y37902400D01*
X3300000Y-13071200D02*
X3300000Y-13232000D01*
X-58379200Y-48857200D02*
X-51250000Y-48857200D01*
X1371600Y33078400D02*
X51250000Y33078400D01*
X-51250000Y46580800D02*
X-58379200Y46580800D01*
X51250000Y3330400D02*
X2371600Y3330400D01*
X-1570800Y-20787200D02*
X-51250000Y-20787200D01*
X3300000Y-56487200D02*
X3300000Y-56648000D01*
X3300000Y-50055200D02*
X3300000Y-50216000D01*
X3621600Y-23201600D02*
X51250000Y-23201600D01*
X-51570800Y56204800D02*
X-51679200Y56204800D01*
X51250000Y25842400D02*
X1371600Y25842400D01*
X-1570800Y-41639200D02*
X-51250000Y-41639200D01*
X-51250000Y-24797200D02*
X-1570800Y-24797200D01*
X3300000Y-29151200D02*
X3300000Y-29312000D01*
X-51250000Y28936800D02*
X-58379200Y28936800D01*
X-51250000Y-40035200D02*
X-58379200Y-40035200D01*
X-58700000Y-2822400D02*
X-58700000Y-2662000D01*
X-4370800Y38560800D02*
X-51250000Y38560800D01*
X51250000Y-52949600D02*
X50928400Y-52949600D01*
D21*
X-14250000Y56000000D02*
X-18500000Y56000000D01*
D20*
X-51250000Y20916800D02*
X-58379200Y20916800D01*
X50928400Y-52949600D02*
X3621600Y-52949600D01*
X-51250000Y-31213200D02*
X-1570800Y-31213200D01*
X51250000Y49962400D02*
X1371600Y49962400D01*
X51250000Y47550400D02*
X58378400Y47550400D01*
X58378400Y11370400D02*
X51250000Y11370400D01*
X-51250000Y41768800D02*
X-58379200Y41768800D01*
X51250000Y55000000D02*
X51250000Y53500000D01*
X-58379200Y-7153200D02*
X-51250000Y-7153200D01*
X-51250000Y22520800D02*
X-58379200Y22520800D01*
X58378400Y-38477600D02*
X51250000Y-38477600D01*
X-58379200Y48986800D02*
X-51250000Y48986800D01*
X51250000Y-27221600D02*
X3621600Y-27221600D01*
X-51250000Y57327600D02*
X-51250000Y57488000D01*
X58378400Y-43301600D02*
X51250000Y-43301600D01*
X-58379200Y-47253200D02*
X-51250000Y-47253200D01*
X-51250000Y-5549200D02*
X-4820800Y-5549200D01*
X-58379200Y37758800D02*
X-51250000Y37758800D01*
X-51250000Y52996800D02*
X-51679200Y52996800D01*
X51250000Y-10337600D02*
X58378400Y-10337600D01*
X58700000Y39188800D02*
X58700000Y39028000D01*
X58378400Y29058400D02*
X51250000Y29058400D01*
X58700000Y-25131200D02*
X58700000Y-25292000D01*
X1371600Y39510400D02*
X51250000Y39510400D01*
X-50929200Y-53669200D02*
X-1570800Y-53669200D01*
X58378400Y-19181600D02*
X51250000Y-19181600D01*
X-51250000Y19312800D02*
X-58379200Y19312800D01*
X-58379200Y-737200D02*
X-51250000Y-737200D01*
X3621600Y-3905600D02*
X51250000Y-3905600D01*
X58378400Y-3101600D02*
X51250000Y-3101600D01*
X-51250000Y40966800D02*
X-4370800Y40966800D01*
X-6800000Y2791600D02*
X-6800000Y2952000D01*
X-51250000Y-48857200D02*
X-1570800Y-48857200D01*
X1371600Y34686400D02*
X51250000Y34686400D01*
X3300000Y-37191200D02*
X3300000Y-37352000D01*
X-51250000Y9688800D02*
X-58379200Y9688800D01*
X-4050000Y44495600D02*
X-4050000Y44656000D01*
X-51250000Y47382800D02*
X-4370800Y47382800D01*
X1371600Y15390400D02*
X51250000Y15390400D01*
X-58700000Y-15654400D02*
X-58700000Y-15494000D01*
X58700000Y-10659200D02*
X58700000Y-10820000D01*
X58378400Y-36869600D02*
X51250000Y-36869600D01*
X-1570800Y-11163200D02*
X-51250000Y-11163200D01*
X-4050000Y9207600D02*
X-4050000Y9368000D01*
X-4370800Y12896800D02*
X-51250000Y12896800D01*
X1050000Y51248800D02*
X1050000Y51088000D01*
X-4370800Y9688800D02*
X-51250000Y9688800D01*
X58378400Y114400D02*
X51250000Y114400D01*
X-4370800Y25728800D02*
X-51250000Y25728800D01*
X58378400Y-4709600D02*
X51250000Y-4709600D01*
X51250000Y33078400D02*
X58378400Y33078400D01*
X58378400Y16194400D02*
X51250000Y16194400D01*
X58700000Y-26739200D02*
X58700000Y-26900000D01*
X58700000Y7028800D02*
X58700000Y6868000D01*
X51250000Y-42497600D02*
X58378400Y-42497600D01*
X58378400Y-33653600D02*
X51250000Y-33653600D01*
X51250000Y9762400D02*
X1371600Y9762400D01*
X-58379200Y866800D02*
X-51250000Y866800D01*
X51250000Y18606400D02*
X58378400Y18606400D01*
X58700000Y-37995200D02*
X58700000Y-38156000D01*
X51250000Y27450400D02*
X1371600Y27450400D01*
X-1250000Y-40516400D02*
X-1250000Y-40356000D01*
X58378400Y-30437600D02*
X51250000Y-30437600D01*
X-6800000Y4395600D02*
X-6800000Y4556000D01*
X-51250000Y57488000D02*
X-51250000Y58250000D01*
X58378400Y-6317600D02*
X51250000Y-6317600D01*
X-4370800Y40164800D02*
X-51250000Y40164800D01*
X-4370800Y30540800D02*
X-51250000Y30540800D01*
X51250000Y-24005600D02*
X3621600Y-24005600D01*
X-4050000Y31663600D02*
X-4050000Y31824000D01*
X51250000Y-45713600D02*
X58378400Y-45713600D01*
X58700000Y-12267200D02*
X58700000Y-12428000D01*
X-51250000Y45778800D02*
X-4370800Y45778800D01*
X-58700000Y26049600D02*
X-58700000Y26210000D01*
X3300000Y-207200D02*
X3300000Y-368000D01*
X3300000Y-48447200D02*
X3300000Y-48608000D01*
X2371600Y2526400D02*
X51250000Y2526400D01*
X52528400Y-52949600D02*
X51250000Y-52949600D01*
X-51250000Y7282800D02*
X-5220800Y7282800D01*
X-51250000Y-28005200D02*
X-1570800Y-28005200D01*
X-51250000Y25728800D02*
X-58379200Y25728800D01*
X-1250000Y-26080400D02*
X-1250000Y-25920000D01*
X58378400Y-13553600D02*
G75*
G02*
X58700000Y-13875200I0J-321600D01*
G01*
X-58379200Y3272800D02*
G75*
G02*
X-58700000Y3593600I0J320800D01*
G01*
X58700000Y35812000D02*
G75*
G02*
X58378400Y35490400I-321600J0D01*
G01*
X-58379200Y-6351200D02*
G75*
G02*
X-58700000Y-6030400I0J320800D01*
G01*
X58700000Y-7604000D02*
G75*
G02*
X58378400Y-7925600I-321600J0D01*
G01*
X3300000Y-5192000D02*
G75*
G03*
X3621600Y-5513600I321600J0D01*
G01*
X-58379200Y-32015200D02*
G75*
G02*
X-58700000Y-31694400I0J320800D01*
G01*
X3300000Y-368000D02*
G75*
G03*
X3621600Y-689600I321600J0D01*
G01*
X3621600Y-25613600D02*
G75*
G03*
X3300000Y-25935200I0J-321600D01*
G01*
X-4050000Y49468000D02*
G75*
G03*
X-4370800Y49788800I-320800J0D01*
G01*
X2050000Y4456000D02*
G75*
G03*
X2371600Y4134400I321600J0D01*
G01*
X58378400Y21822400D02*
G75*
G02*
X58700000Y21500800I0J-321600D01*
G01*
X3621600Y-14357600D02*
G75*
G03*
X3300000Y-14679200I0J-321600D01*
G01*
X-1570800Y-55273200D02*
G75*
G03*
X-1250000Y-54952400I0J320800D01*
G01*
X3300000Y-56648000D02*
G75*
G03*
X3621600Y-56969600I321600J0D01*
G01*
X1371600Y9762400D02*
G75*
G03*
X1050000Y9440800I0J-321600D01*
G01*
X58700000Y-51020000D02*
G75*
G02*
X58378400Y-51341600I-321600J0D01*
G01*
X-58700000Y-26722000D02*
G75*
G02*
X-58379200Y-26401200I320800J0D01*
G01*
X-6800000Y-1860000D02*
G75*
G03*
X-7120800Y-1539200I-320800J0D01*
G01*
X-1570800Y-24797200D02*
G75*
G03*
X-1250000Y-24476400I0J320800D01*
G01*
X1050000Y6064000D02*
G75*
G03*
X1371600Y5742400I321600J0D01*
G01*
X58378400Y13782400D02*
G75*
G02*
X58700000Y13460800I0J-321600D01*
G01*
X58378400Y4134400D02*
G75*
G02*
X58700000Y3812800I0J-321600D01*
G01*
X58378400Y-37673600D02*
G75*
G02*
X58700000Y-37995200I0J-321600D01*
G01*
X58700000Y-41372000D02*
G75*
G02*
X58378400Y-41693600I-321600J0D01*
G01*
X-58379200Y32144800D02*
G75*
G02*
X-58700000Y32465600I0J320800D01*
G01*
X58378400Y15390400D02*
G75*
G02*
X58700000Y15068800I0J-321600D01*
G01*
X-58379200Y33748800D02*
G75*
G02*
X-58700000Y34069600I0J320800D01*
G01*
X1371600Y43530400D02*
G75*
G03*
X1050000Y43208800I0J-321600D01*
G01*
X-1250000Y-33940000D02*
G75*
G03*
X-1570800Y-33619200I-320800J0D01*
G01*
X-58700000Y47062000D02*
G75*
G02*
X-58379200Y47382800I320800J0D01*
G01*
X3300000Y-24488000D02*
G75*
G03*
X3621600Y-24809600I321600J0D01*
G01*
X-58379200Y35352800D02*
G75*
G02*
X-58700000Y35673600I0J320800D01*
G01*
X-1250000Y-38752000D02*
G75*
G03*
X-1570800Y-38431200I-320800J0D01*
G01*
X-58379200Y4876800D02*
G75*
G02*
X-58700000Y5197600I0J320800D01*
G01*
X-4370800Y15302800D02*
G75*
G03*
X-4050000Y15623600I0J320800D01*
G01*
X58378400Y23430400D02*
G75*
G02*
X58700000Y23108800I0J-321600D01*
G01*
X-1250000Y-14692000D02*
G75*
G03*
X-1570800Y-14371200I-320800J0D01*
G01*
X-4370800Y45778800D02*
G75*
G03*
X-4050000Y46099600I0J320800D01*
G01*
X58700000Y-26900000D02*
G75*
G02*
X58378400Y-27221600I-321600J0D01*
G01*
X-58379200Y19312800D02*
G75*
G02*
X-58700000Y19633600I0J320800D01*
G01*
X-58379200Y-51263200D02*
G75*
G02*
X-58700000Y-50942400I0J320800D01*
G01*
X-58379200Y-49659200D02*
G75*
G02*
X-58700000Y-49338400I0J320800D01*
G01*
X3621600Y-9533600D02*
G75*
G03*
X3300000Y-9855200I0J-321600D01*
G01*
X-58379200Y43372800D02*
G75*
G02*
X-58700000Y43693600I0J320800D01*
G01*
X1371600Y8154400D02*
G75*
G03*
X1050000Y7832800I0J-321600D01*
G01*
X-1250000Y-35544000D02*
G75*
G03*
X-1570800Y-35223200I-320800J0D01*
G01*
X-2750000Y-6672000D02*
G75*
G03*
X-3070800Y-6351200I-320800J0D01*
G01*
X1371600Y19410400D02*
G75*
G03*
X1050000Y19088800I0J-321600D01*
G01*
X3621600Y-6317600D02*
G75*
G03*
X3300000Y-6639200I0J-321600D01*
G01*
X1371600Y14586400D02*
G75*
G03*
X1050000Y14264800I0J-321600D01*
G01*
X-58700000Y-12286000D02*
G75*
G02*
X-58379200Y-11965200I320800J0D01*
G01*
X-58379200Y40164800D02*
G75*
G02*
X-58700000Y40485600I0J320800D01*
G01*
X3621600Y-35261600D02*
G75*
G03*
X3300000Y-35583200I0J-321600D01*
G01*
X58378400Y-7121600D02*
G75*
G02*
X58700000Y-7443200I0J-321600D01*
G01*
X-52379200Y-57679200D02*
G75*
G02*
X-52700000Y-57358400I0J320800D01*
G01*
X-58379200Y64800D02*
G75*
G02*
X-58700000Y385600I0J320800D01*
G01*
X1050000Y49480000D02*
G75*
G03*
X1371600Y49158400I321600J0D01*
G01*
X-28370800Y53798800D02*
G75*
G03*
X-28050000Y54119600I0J320800D01*
G01*
X58378400Y-3905600D02*
G75*
G02*
X58700000Y-4227200I0J-321600D01*
G01*
X-58700000Y24606000D02*
G75*
G02*
X-58379200Y24926800I320800J0D01*
G01*
X-51250000Y-55594000D02*
G75*
G02*
X-50929200Y-55273200I320800J0D01*
G01*
X-4050000Y10972000D02*
G75*
G03*
X-4370800Y11292800I-320800J0D01*
G01*
X-1250000Y-51584000D02*
G75*
G03*
X-1570800Y-51263200I-320800J0D01*
G01*
X-4050000Y28616000D02*
G75*
G03*
X-4370800Y28936800I-320800J0D01*
G01*
X-1250000Y-43564000D02*
G75*
G03*
X-1570800Y-43243200I-320800J0D01*
G01*
X-4050000Y33428000D02*
G75*
G03*
X-4370800Y33748800I-320800J0D01*
G01*
X3300000Y-45392000D02*
G75*
G03*
X3621600Y-45713600I321600J0D01*
G01*
X-58700000Y-23514000D02*
G75*
G02*
X-58379200Y-23193200I320800J0D01*
G01*
X58700000Y-30116000D02*
G75*
G02*
X58378400Y-30437600I-321600J0D01*
G01*
X58700000Y-5996000D02*
G75*
G02*
X58378400Y-6317600I-321600J0D01*
G01*
X-58379200Y20916800D02*
G75*
G02*
X-58700000Y21237600I0J320800D01*
G01*
X-58700000Y10170000D02*
G75*
G02*
X-58379200Y10490800I320800J0D01*
G01*
X3250000Y1240000D02*
G75*
G03*
X3571600Y918400I321600J0D01*
G01*
X-58700000Y14982000D02*
G75*
G02*
X-58379200Y15302800I320800J0D01*
G01*
X3300000Y-38960000D02*
G75*
G03*
X3621600Y-39281600I321600J0D01*
G01*
X1371600Y33882400D02*
G75*
G03*
X1050000Y33560800I0J-321600D01*
G01*
X58700000Y-17252000D02*
G75*
G02*
X58378400Y-17573600I-321600J0D01*
G01*
X-4370800Y12094800D02*
G75*
G03*
X-4050000Y12415600I0J320800D01*
G01*
X-50929200Y-56075200D02*
G75*
G02*
X-51250000Y-55754400I0J320800D01*
G01*
X-1250000Y-41960000D02*
G75*
G03*
X-1570800Y-41639200I-320800J0D01*
G01*
X-58700000Y39042000D02*
G75*
G02*
X-58379200Y39362800I320800J0D01*
G01*
X3621600Y-32045600D02*
G75*
G03*
X3300000Y-32367200I0J-321600D01*
G01*
X-4370800Y40966800D02*
G75*
G03*
X-4050000Y41287600I0J320800D01*
G01*
X58700000Y-38156000D02*
G75*
G02*
X58378400Y-38477600I-321600J0D01*
G01*
X58378400Y-8729600D02*
G75*
G02*
X58700000Y-9051200I0J-321600D01*
G01*
X-4370800Y13698800D02*
G75*
G03*
X-4050000Y14019600I0J320800D01*
G01*
X1050000Y30184000D02*
G75*
G03*
X1371600Y29862400I321600J0D01*
G01*
X-58379200Y6480800D02*
G75*
G02*
X-58700000Y6801600I0J320800D01*
G01*
X-58379200Y16104800D02*
G75*
G02*
X-58700000Y16425600I0J320800D01*
G01*
X3621600Y-19181600D02*
G75*
G03*
X3300000Y-19503200I0J-321600D01*
G01*
X-50929200Y54600800D02*
G75*
G02*
X-51250000Y54921600I0J320800D01*
G01*
X-58700000Y-2662000D02*
G75*
G02*
X-58379200Y-2341200I320800J0D01*
G01*
X58378400Y-5513600D02*
G75*
G02*
X58700000Y-5835200I0J-321600D01*
G01*
X1050000Y52696000D02*
G75*
G03*
X1371600Y52374400I321600J0D01*
G01*
X-4050000Y44656000D02*
G75*
G03*
X-4370800Y44976800I-320800J0D01*
G01*
X1371600Y45138400D02*
G75*
G03*
X1050000Y44816800I0J-321600D01*
G01*
X3621600Y-11141600D02*
G75*
G03*
X3300000Y-11463200I0J-321600D01*
G01*
X-4370800Y28134800D02*
G75*
G03*
X-4050000Y28455600I0J320800D01*
G01*
X58378400Y-15161600D02*
G75*
G02*
X58700000Y-15483200I0J-321600D01*
G01*
X-1250000Y-46772000D02*
G75*
G03*
X-1570800Y-46451200I-320800J0D01*
G01*
X3621600Y-51341600D02*
G75*
G03*
X3300000Y-51663200I0J-321600D01*
G01*
X-1250000Y-30732000D02*
G75*
G03*
X-1570800Y-30411200I-320800J0D01*
G01*
X3621600Y-24005600D02*
G75*
G03*
X3300000Y-24327200I0J-321600D01*
G01*
X-58379200Y41768800D02*
G75*
G02*
X-58700000Y42089600I0J320800D01*
G01*
X-58379200Y38560800D02*
G75*
G02*
X-58700000Y38881600I0J320800D01*
G01*
X-58379200Y-12767200D02*
G75*
G02*
X-58700000Y-12446400I0J320800D01*
G01*
X1371600Y24234400D02*
G75*
G03*
X1050000Y23912800I0J-321600D01*
G01*
X58700000Y50284000D02*
G75*
G02*
X58378400Y49962400I-321600J0D01*
G01*
X-53279200Y51392800D02*
G75*
G02*
X-53600000Y51713600I0J320800D01*
G01*
X-58700000Y-28326000D02*
G75*
G02*
X-58379200Y-28005200I320800J0D01*
G01*
X58700000Y-25292000D02*
G75*
G02*
X58378400Y-25613600I-321600J0D01*
G01*
X-58379200Y25728800D02*
G75*
G02*
X-58700000Y26049600I0J320800D01*
G01*
X58378400Y-50537600D02*
G75*
G02*
X58700000Y-50859200I0J-321600D01*
G01*
X58378400Y-23201600D02*
G75*
G02*
X58700000Y-23523200I0J-321600D01*
G01*
X-4370800Y29738800D02*
G75*
G03*
X-4050000Y30059600I0J320800D01*
G01*
X3621600Y-43301600D02*
G75*
G03*
X3300000Y-43623200I0J-321600D01*
G01*
X1371600Y32274400D02*
G75*
G03*
X1050000Y31952800I0J-321600D01*
G01*
X-4370800Y34550800D02*
G75*
G03*
X-4050000Y34871600I0J320800D01*
G01*
X-58700000Y29418000D02*
G75*
G02*
X-58379200Y29738800I320800J0D01*
G01*
X3621600Y-30437600D02*
G75*
G03*
X3300000Y-30759200I0J-321600D01*
G01*
X-4050000Y41448000D02*
G75*
G03*
X-4370800Y41768800I-320800J0D01*
G01*
X50928400Y-53753600D02*
G75*
G02*
X51250000Y-54075200I0J-321600D01*
G01*
X-58379200Y-23995200D02*
G75*
G02*
X-58700000Y-23674400I0J320800D01*
G01*
X3300000Y-13232000D02*
G75*
G03*
X3621600Y-13553600I321600J0D01*
G01*
X3621600Y-27221600D02*
G75*
G03*
X3300000Y-27543200I0J-321600D01*
G01*
X-58379200Y17708800D02*
G75*
G02*
X-58700000Y18029600I0J320800D01*
G01*
X-4050000Y20596000D02*
G75*
G03*
X-4370800Y20916800I-320800J0D01*
G01*
X1371600Y40314400D02*
G75*
G03*
X1050000Y39992800I0J-321600D01*
G01*
X-58700000Y11774000D02*
G75*
G02*
X-58379200Y12094800I320800J0D01*
G01*
X58378400Y-34457600D02*
G75*
G02*
X58700000Y-34779200I0J-321600D01*
G01*
X-7120800Y2470800D02*
G75*
G03*
X-6800000Y2791600I0J320800D01*
G01*
X-58700000Y42250000D02*
G75*
G02*
X-58379200Y42570800I320800J0D01*
G01*
X51250000Y-55844000D02*
G75*
G02*
X50928400Y-56165600I-321600J0D01*
G01*
X-58379200Y-15975200D02*
G75*
G02*
X-58700000Y-15654400I0J320800D01*
G01*
X3200000Y-1976000D02*
G75*
G03*
X3521600Y-2297600I321600J0D01*
G01*
X-1250000Y-54792000D02*
G75*
G03*
X-1570800Y-54471200I-320800J0D01*
G01*
X-4050000Y38240000D02*
G75*
G03*
X-4370800Y38560800I-320800J0D01*
G01*
X50928400Y-56969600D02*
G75*
G02*
X51250000Y-57291200I0J-321600D01*
G01*
X58378400Y42726400D02*
G75*
G02*
X58700000Y42404800I0J-321600D01*
G01*
X1050000Y44656000D02*
G75*
G03*
X1371600Y44334400I321600J0D01*
G01*
X-6800000Y4556000D02*
G75*
G03*
X-7120800Y4876800I-320800J0D01*
G01*
X58700000Y29380000D02*
G75*
G02*
X58378400Y29058400I-321600J0D01*
G01*
X58700000Y22948000D02*
G75*
G02*
X58378400Y22626400I-321600J0D01*
G01*
X3300000Y-14840000D02*
G75*
G03*
X3621600Y-15161600I321600J0D01*
G01*
X58700000Y30988000D02*
G75*
G02*
X58378400Y30666400I-321600J0D01*
G01*
X58700000Y6868000D02*
G75*
G02*
X58378400Y6546400I-321600J0D01*
G01*
X1371600Y49962400D02*
G75*
G03*
X1050000Y49640800I0J-321600D01*
G01*
X-58700000Y48666000D02*
G75*
G02*
X-58379200Y48986800I320800J0D01*
G01*
X-58700000Y-50782000D02*
G75*
G02*
X-58379200Y-50461200I320800J0D01*
G01*
X-6800000Y1348000D02*
G75*
G03*
X-7120800Y1668800I-320800J0D01*
G01*
X3300000Y-8408000D02*
G75*
G03*
X3621600Y-8729600I321600J0D01*
G01*
X-58700000Y19794000D02*
G75*
G02*
X-58379200Y20114800I320800J0D01*
G01*
X1050000Y18928000D02*
G75*
G03*
X1371600Y18606400I321600J0D01*
G01*
X-58700000Y-15494000D02*
G75*
G02*
X-58379200Y-15173200I320800J0D01*
G01*
X51250000Y-54236000D02*
G75*
G02*
X50928400Y-54557600I-321600J0D01*
G01*
X1371600Y11370400D02*
G75*
G03*
X1050000Y11048800I0J-321600D01*
G01*
X-58700000Y-17098000D02*
G75*
G02*
X-58379200Y-16777200I320800J0D01*
G01*
X-58700000Y-25118000D02*
G75*
G02*
X-58379200Y-24797200I320800J0D01*
G01*
X-1570800Y-37629200D02*
G75*
G03*
X-1250000Y-37308400I0J320800D01*
G01*
X3621600Y-4709600D02*
G75*
G03*
X3300000Y-5031200I0J-321600D01*
G01*
X58700000Y436000D02*
G75*
G02*
X58378400Y114400I-321600J0D01*
G01*
X2371600Y3330400D02*
G75*
G03*
X2050000Y3008800I0J-321600D01*
G01*
X1050000Y10888000D02*
G75*
G03*
X1371600Y10566400I321600J0D01*
G01*
X1050000Y46264000D02*
G75*
G03*
X1371600Y45942400I321600J0D01*
G01*
X1371600Y27450400D02*
G75*
G03*
X1050000Y27128800I0J-321600D01*
G01*
X58378400Y5742400D02*
G75*
G02*
X58700000Y5420800I0J-321600D01*
G01*
X1050000Y39832000D02*
G75*
G03*
X1371600Y39510400I321600J0D01*
G01*
X-7120800Y-2341200D02*
G75*
G03*
X-6800000Y-2020400I0J320800D01*
G01*
X-58700000Y-7474000D02*
G75*
G02*
X-58379200Y-7153200I320800J0D01*
G01*
X-1570800Y-50461200D02*
G75*
G03*
X-1250000Y-50140400I0J320800D01*
G01*
X-58379200Y-22391200D02*
G75*
G02*
X-58700000Y-22070400I0J320800D01*
G01*
X58700000Y-4388000D02*
G75*
G02*
X58378400Y-4709600I-321600J0D01*
G01*
X58378400Y34686400D02*
G75*
G02*
X58700000Y34364800I0J-321600D01*
G01*
X-58700000Y18190000D02*
G75*
G02*
X-58379200Y18510800I320800J0D01*
G01*
X58378400Y-47321600D02*
G75*
G02*
X58700000Y-47643200I0J-321600D01*
G01*
X-16600000Y51072000D02*
G75*
G03*
X-16920800Y51392800I-320800J0D01*
G01*
X58700000Y8476000D02*
G75*
G02*
X58378400Y8154400I-321600J0D01*
G01*
X53128400Y52374400D02*
G75*
G02*
X53450000Y52052800I0J-321600D01*
G01*
X1050000Y35008000D02*
G75*
G03*
X1371600Y34686400I321600J0D01*
G01*
X3621600Y-52949600D02*
G75*
G03*
X3300000Y-53271200I0J-321600D01*
G01*
X1371600Y35490400D02*
G75*
G03*
X1050000Y35168800I0J-321600D01*
G01*
X-52000000Y53478000D02*
G75*
G02*
X-51679200Y53798800I320800J0D01*
G01*
X58700000Y40636000D02*
G75*
G02*
X58378400Y40314400I-321600J0D01*
G01*
X-28050000Y55884000D02*
G75*
G03*
X-28370800Y56204800I-320800J0D01*
G01*
X1371600Y51570400D02*
G75*
G03*
X1050000Y51248800I0J-321600D01*
G01*
X-58700000Y16586000D02*
G75*
G02*
X-58379200Y16906800I320800J0D01*
G01*
X-58379200Y49788800D02*
G75*
G02*
X-58700000Y50109600I0J320800D01*
G01*
X-58379200Y-43243200D02*
G75*
G02*
X-58700000Y-42922400I0J320800D01*
G01*
X58378400Y47550400D02*
G75*
G02*
X58700000Y47228800I0J-321600D01*
G01*
X58700000Y-47804000D02*
G75*
G02*
X58378400Y-48125600I-321600J0D01*
G01*
X-58700000Y-34742000D02*
G75*
G02*
X-58379200Y-34421200I320800J0D01*
G01*
X-58700000Y-44366000D02*
G75*
G02*
X-58379200Y-44045200I320800J0D01*
G01*
X-58379200Y-28807200D02*
G75*
G02*
X-58700000Y-28486400I0J320800D01*
G01*
X52850000Y-52628000D02*
G75*
G02*
X52528400Y-52949600I-321600J0D01*
G01*
X3300000Y-3584000D02*
G75*
G03*
X3621600Y-3905600I321600J0D01*
G01*
X-4370800Y36154800D02*
G75*
G03*
X-4050000Y36475600I0J320800D01*
G01*
X1371600Y16194400D02*
G75*
G03*
X1050000Y15872800I0J-321600D01*
G01*
X1050000Y28576000D02*
G75*
G03*
X1371600Y28254400I321600J0D01*
G01*
X-4050000Y35032000D02*
G75*
G03*
X-4370800Y35352800I-320800J0D01*
G01*
X58378400Y12174400D02*
G75*
G02*
X58700000Y11852800I0J-321600D01*
G01*
X58378400Y44334400D02*
G75*
G02*
X58700000Y44012800I0J-321600D01*
G01*
X-7120800Y4074800D02*
G75*
G03*
X-6800000Y4395600I0J320800D01*
G01*
X-4050000Y39844000D02*
G75*
G03*
X-4370800Y40164800I-320800J0D01*
G01*
X58378400Y-16769600D02*
G75*
G02*
X58700000Y-17091200I0J-321600D01*
G01*
X3300000Y-10016000D02*
G75*
G03*
X3621600Y-10337600I321600J0D01*
G01*
X58700000Y-33332000D02*
G75*
G02*
X58378400Y-33653600I-321600J0D01*
G01*
X-18199999Y52676000D02*
G75*
G03*
X-18520799Y52996800I-320800J0D01*
G01*
X-4370800Y39362800D02*
G75*
G03*
X-4050000Y39683600I0J320800D01*
G01*
X58700000Y-42980000D02*
G75*
G02*
X58378400Y-43301600I-321600J0D01*
G01*
X-58700000Y-37950000D02*
G75*
G02*
X-58379200Y-37629200I320800J0D01*
G01*
X-51679200Y52996800D02*
G75*
G02*
X-52000000Y53317600I0J320800D01*
G01*
X-58700000Y-45970000D02*
G75*
G02*
X-58379200Y-45649200I320800J0D01*
G01*
X58700000Y-20468000D02*
G75*
G02*
X58378400Y-20789600I-321600J0D01*
G01*
X1371600Y48354400D02*
G75*
G03*
X1050000Y48032800I0J-321600D01*
G01*
X58700000Y26164000D02*
G75*
G02*
X58378400Y25842400I-321600J0D01*
G01*
X-1570800Y-53669200D02*
G75*
G03*
X-1250000Y-53348400I0J320800D01*
G01*
X58700000Y-15644000D02*
G75*
G02*
X58378400Y-15965600I-321600J0D01*
G01*
X-1570800Y-18381200D02*
G75*
G03*
X-1250000Y-18060400I0J320800D01*
G01*
X1050000Y38224000D02*
G75*
G03*
X1371600Y37902400I321600J0D01*
G01*
X3300000Y-22880000D02*
G75*
G03*
X3621600Y-23201600I321600J0D01*
G01*
X58378400Y2526400D02*
G75*
G02*
X58700000Y2204800I0J-321600D01*
G01*
X58378400Y-48929600D02*
G75*
G02*
X58700000Y-49251200I0J-321600D01*
G01*
X51250000Y53500000D02*
G75*
G02*
X50928400Y53178400I-321600J0D01*
G01*
X-58700000Y37438000D02*
G75*
G02*
X-58379200Y37758800I320800J0D01*
G01*
X-58700000Y-1058000D02*
G75*
G02*
X-58379200Y-737200I320800J0D01*
G01*
X58700000Y13300000D02*
G75*
G02*
X58378400Y12978400I-321600J0D01*
G01*
X58378400Y45942400D02*
G75*
G02*
X58700000Y45620800I0J-321600D01*
G01*
X58700000Y45460000D02*
G75*
G02*
X58378400Y45138400I-321600J0D01*
G01*
X-58700000Y-36346000D02*
G75*
G02*
X-58379200Y-36025200I320800J0D01*
G01*
X58378400Y918400D02*
G75*
G02*
X58700000Y596800I0J-321600D01*
G01*
X-1570800Y-52065200D02*
G75*
G03*
X-1250000Y-51744400I0J320800D01*
G01*
X-4370800Y37758800D02*
G75*
G03*
X-4050000Y38079600I0J320800D01*
G01*
X-1570800Y-48857200D02*
G75*
G03*
X-1250000Y-48536400I0J320800D01*
G01*
X3621600Y-46517600D02*
G75*
G03*
X3300000Y-46839200I0J-321600D01*
G01*
X1371600Y37098400D02*
G75*
G03*
X1050000Y36776800I0J-321600D01*
G01*
X58700000Y-31724000D02*
G75*
G02*
X58378400Y-32045600I-321600J0D01*
G01*
X-4370800Y42570800D02*
G75*
G03*
X-4050000Y42891600I0J320800D01*
G01*
X-58700000Y34230000D02*
G75*
G02*
X-58379200Y34550800I320800J0D01*
G01*
X58378400Y-36065600D02*
G75*
G02*
X58700000Y-36387200I0J-321600D01*
G01*
X3571600Y1722400D02*
G75*
G03*
X3250000Y1400800I0J-321600D01*
G01*
X3621600Y-41693600D02*
G75*
G03*
X3300000Y-42015200I0J-321600D01*
G01*
X58378400Y-32849600D02*
G75*
G02*
X58700000Y-33171200I0J-321600D01*
G01*
X-58379200Y-36827200D02*
G75*
G02*
X-58700000Y-36506400I0J320800D01*
G01*
X-7120800Y-737200D02*
G75*
G03*
X-6800000Y-416400I0J320800D01*
G01*
X1371600Y41922400D02*
G75*
G03*
X1050000Y41600800I0J-321600D01*
G01*
X-58379200Y27332800D02*
G75*
G02*
X-58700000Y27653600I0J320800D01*
G01*
X1050000Y43048000D02*
G75*
G03*
X1371600Y42726400I321600J0D01*
G01*
X-1250000Y-37148000D02*
G75*
G03*
X-1570800Y-36827200I-320800J0D01*
G01*
X-5220800Y7282800D02*
G75*
G03*
X-4900000Y7603600I0J320800D01*
G01*
X58700000Y-22076000D02*
G75*
G02*
X58378400Y-22397600I-321600J0D01*
G01*
X58378400Y28254400D02*
G75*
G02*
X58700000Y27932800I0J-321600D01*
G01*
X-1570800Y-10361200D02*
G75*
G03*
X-1250000Y-10040400I0J320800D01*
G01*
X-1570800Y-8757200D02*
G75*
G03*
X-1250000Y-8436400I0J320800D01*
G01*
X-58700000Y-5870000D02*
G75*
G02*
X-58379200Y-5549200I320800J0D01*
G01*
X3621600Y-7925600D02*
G75*
G03*
X3300000Y-8247200I0J-321600D01*
G01*
X58378400Y-42497600D02*
G75*
G02*
X58700000Y-42819200I0J-321600D01*
G01*
X58700000Y-36548000D02*
G75*
G02*
X58378400Y-36869600I-321600J0D01*
G01*
X-6800000Y-256000D02*
G75*
G03*
X-7120800Y64800I-320800J0D01*
G01*
X3300000Y-50216000D02*
G75*
G03*
X3621600Y-50537600I321600J0D01*
G01*
X-58700000Y23002000D02*
G75*
G02*
X-58379200Y23322800I320800J0D01*
G01*
X58378400Y-18377600D02*
G75*
G02*
X58700000Y-18699200I0J-321600D01*
G01*
X58700000Y-34940000D02*
G75*
G02*
X58378400Y-35261600I-321600J0D01*
G01*
X-1250000Y-27524000D02*
G75*
G03*
X-1570800Y-27203200I-320800J0D01*
G01*
X-58700000Y43854000D02*
G75*
G02*
X-58379200Y44174800I320800J0D01*
G01*
X-58379200Y22520800D02*
G75*
G02*
X-58700000Y22841600I0J320800D01*
G01*
X58378400Y41118400D02*
G75*
G02*
X58700000Y40796800I0J-321600D01*
G01*
X58700000Y-28508000D02*
G75*
G02*
X58378400Y-28829600I-321600J0D01*
G01*
X58700000Y47068000D02*
G75*
G02*
X58378400Y46746400I-321600J0D01*
G01*
X1050000Y47872000D02*
G75*
G03*
X1371600Y47550400I321600J0D01*
G01*
X58378400Y-39281600D02*
G75*
G02*
X58700000Y-39603200I0J-321600D01*
G01*
X-1250000Y-53188000D02*
G75*
G03*
X-1570800Y-52867200I-320800J0D01*
G01*
X-6520800Y-3945200D02*
G75*
G03*
X-6200000Y-3624400I0J320800D01*
G01*
X-4370800Y20114800D02*
G75*
G03*
X-4050000Y20435600I0J320800D01*
G01*
X-1250000Y-13088000D02*
G75*
G03*
X-1570800Y-12767200I-320800J0D01*
G01*
X1050000Y12496000D02*
G75*
G03*
X1371600Y12174400I321600J0D01*
G01*
X-58379200Y-30411200D02*
G75*
G02*
X-58700000Y-30090400I0J320800D01*
G01*
X3300000Y-16448000D02*
G75*
G03*
X3621600Y-16769600I321600J0D01*
G01*
X3621600Y-15965600D02*
G75*
G03*
X3300000Y-16287200I0J-321600D01*
G01*
X1050000Y33400000D02*
G75*
G03*
X1371600Y33078400I321600J0D01*
G01*
X-4370800Y18510800D02*
G75*
G03*
X-4050000Y18831600I0J320800D01*
G01*
X-58700000Y3754000D02*
G75*
G02*
X-58379200Y4074800I320800J0D01*
G01*
X58700000Y14908000D02*
G75*
G02*
X58378400Y14586400I-321600J0D01*
G01*
X1371600Y12978400D02*
G75*
G03*
X1050000Y12656800I0J-321600D01*
G01*
X50928400Y-55361600D02*
G75*
G02*
X51250000Y-55683200I0J-321600D01*
G01*
X58700000Y-46196000D02*
G75*
G02*
X58378400Y-46517600I-321600J0D01*
G01*
X-7120800Y866800D02*
G75*
G03*
X-6800000Y1187600I0J320800D01*
G01*
X3621600Y-36869600D02*
G75*
G03*
X3300000Y-37191200I0J-321600D01*
G01*
X-1250000Y-24316000D02*
G75*
G03*
X-1570800Y-23995200I-320800J0D01*
G01*
X58378400Y-31241600D02*
G75*
G02*
X58700000Y-31563200I0J-321600D01*
G01*
X-4370800Y10490800D02*
G75*
G03*
X-4050000Y10811600I0J320800D01*
G01*
X-58379200Y-14371200D02*
G75*
G02*
X-58700000Y-14050400I0J320800D01*
G01*
X-58700000Y50270000D02*
G75*
G02*
X-58379200Y50590800I320800J0D01*
G01*
X-4370800Y16906800D02*
G75*
G03*
X-4050000Y17227600I0J320800D01*
G01*
X-1570800Y-40837200D02*
G75*
G03*
X-1250000Y-40516400I0J320800D01*
G01*
X-58700000Y-18702000D02*
G75*
G02*
X-58379200Y-18381200I320800J0D01*
G01*
X-6500000Y6160000D02*
G75*
G03*
X-6820800Y6480800I-320800J0D01*
G01*
X-58700000Y-4266000D02*
G75*
G02*
X-58379200Y-3945200I320800J0D01*
G01*
X-58700000Y-39554000D02*
G75*
G02*
X-58379200Y-39233200I320800J0D01*
G01*
X1371600Y46746400D02*
G75*
G03*
X1050000Y46424800I0J-321600D01*
G01*
X3621600Y-49733600D02*
G75*
G03*
X3300000Y-50055200I0J-321600D01*
G01*
X58378400Y39510400D02*
G75*
G02*
X58700000Y39188800I0J-321600D01*
G01*
X1050000Y17320000D02*
G75*
G03*
X1371600Y16998400I321600J0D01*
G01*
X-28370800Y55402800D02*
G75*
G03*
X-28050000Y55723600I0J320800D01*
G01*
X58378400Y33078400D02*
G75*
G02*
X58700000Y32756800I0J-321600D01*
G01*
X-4370800Y48986800D02*
G75*
G03*
X-4050000Y49307600I0J320800D01*
G01*
X58700000Y-39764000D02*
G75*
G02*
X58378400Y-40085600I-321600J0D01*
G01*
X1050000Y25360000D02*
G75*
G03*
X1371600Y25038400I321600J0D01*
G01*
X-28050000Y54280000D02*
G75*
G03*
X-28370800Y54600800I-320800J0D01*
G01*
X-4050000Y17388000D02*
G75*
G03*
X-4370800Y17708800I-320800J0D01*
G01*
X-1250000Y-16296000D02*
G75*
G03*
X-1570800Y-15975200I-320800J0D01*
G01*
X1371600Y53178400D02*
G75*
G03*
X1050000Y52856800I0J-321600D01*
G01*
X2371600Y4938400D02*
G75*
G03*
X2050000Y4616800I0J-321600D01*
G01*
X58700000Y3652000D02*
G75*
G02*
X58378400Y3330400I-321600J0D01*
G01*
X3300000Y-47000000D02*
G75*
G03*
X3621600Y-47321600I321600J0D01*
G01*
X58378400Y10566400D02*
G75*
G02*
X58700000Y10244800I0J-321600D01*
G01*
X-4050000Y22200000D02*
G75*
G03*
X-4370800Y22520800I-320800J0D01*
G01*
X-58700000Y546000D02*
G75*
G02*
X-58379200Y866800I320800J0D01*
G01*
X-58379200Y1668800D02*
G75*
G02*
X-58700000Y1989600I0J320800D01*
G01*
X-1250000Y-8276000D02*
G75*
G03*
X-1570800Y-7955200I-320800J0D01*
G01*
X58378400Y-24809600D02*
G75*
G02*
X58700000Y-25131200I0J-321600D01*
G01*
X58700000Y21340000D02*
G75*
G02*
X58378400Y21018400I-321600J0D01*
G01*
X-51570800Y57006800D02*
G75*
G03*
X-51250000Y57327600I0J320800D01*
G01*
X-58700000Y-13890000D02*
G75*
G02*
X-58379200Y-13569200I320800J0D01*
G01*
X-4050000Y47864000D02*
G75*
G03*
X-4370800Y48184800I-320800J0D01*
G01*
X58700000Y-14036000D02*
G75*
G02*
X58378400Y-14357600I-321600J0D01*
G01*
X-58379200Y-41639200D02*
G75*
G02*
X-58700000Y-41318400I0J320800D01*
G01*
X-58379200Y-7955200D02*
G75*
G02*
X-58700000Y-7634400I0J320800D01*
G01*
X3300000Y-19664000D02*
G75*
G03*
X3621600Y-19985600I321600J0D01*
G01*
X3621600Y-33653600D02*
G75*
G03*
X3300000Y-33975200I0J-321600D01*
G01*
X-4050000Y30220000D02*
G75*
G03*
X-4370800Y30540800I-320800J0D01*
G01*
X58700000Y24556000D02*
G75*
G02*
X58378400Y24234400I-321600J0D01*
G01*
X58700000Y16516000D02*
G75*
G02*
X58378400Y16194400I-321600J0D01*
G01*
X58700000Y-18860000D02*
G75*
G02*
X58378400Y-19181600I-321600J0D01*
G01*
X58700000Y5260000D02*
G75*
G02*
X58378400Y4938400I-321600J0D01*
G01*
X-1570800Y-23193200D02*
G75*
G03*
X-1250000Y-22872400I0J320800D01*
G01*
X-58379200Y-3143200D02*
G75*
G02*
X-58700000Y-2822400I0J320800D01*
G01*
X-52700000Y-57198000D02*
G75*
G02*
X-52379200Y-56877200I320800J0D01*
G01*
X-4050000Y15784000D02*
G75*
G03*
X-4370800Y16104800I-320800J0D01*
G01*
X58700000Y-10820000D02*
G75*
G02*
X58378400Y-11141600I-321600J0D01*
G01*
X-1250000Y-49980000D02*
G75*
G03*
X-1570800Y-49659200I-320800J0D01*
G01*
X-58379200Y44976800D02*
G75*
G02*
X-58700000Y45297600I0J320800D01*
G01*
X53450000Y51892000D02*
G75*
G02*
X53128400Y51570400I-321600J0D01*
G01*
X-1570800Y-26401200D02*
G75*
G03*
X-1250000Y-26080400I0J320800D01*
G01*
X58378400Y-45713600D02*
G75*
G02*
X58700000Y-46035200I0J-321600D01*
G01*
X-58700000Y31022000D02*
G75*
G02*
X-58379200Y31342800I320800J0D01*
G01*
X58700000Y48676000D02*
G75*
G02*
X58378400Y48354400I-321600J0D01*
G01*
X1050000Y41440000D02*
G75*
G03*
X1371600Y41118400I321600J0D01*
G01*
X-4050000Y25408000D02*
G75*
G03*
X-4370800Y25728800I-320800J0D01*
G01*
X3300000Y-27704000D02*
G75*
G03*
X3621600Y-28025600I321600J0D01*
G01*
X-58700000Y-41158000D02*
G75*
G02*
X-58379200Y-40837200I320800J0D01*
G01*
X58700000Y10084000D02*
G75*
G02*
X58378400Y9762400I-321600J0D01*
G01*
X58378400Y-29633600D02*
G75*
G02*
X58700000Y-29955200I0J-321600D01*
G01*
X58378400Y-28025600D02*
G75*
G02*
X58700000Y-28347200I0J-321600D01*
G01*
X58378400Y29862400D02*
G75*
G02*
X58700000Y29540800I0J-321600D01*
G01*
X1050000Y36616000D02*
G75*
G03*
X1371600Y36294400I321600J0D01*
G01*
X-1570800Y-21589200D02*
G75*
G03*
X-1250000Y-21268400I0J320800D01*
G01*
X-1570800Y-36025200D02*
G75*
G03*
X-1250000Y-35704400I0J320800D01*
G01*
X-6200000Y-3464000D02*
G75*
G03*
X-6520800Y-3143200I-320800J0D01*
G01*
X3300000Y-42176000D02*
G75*
G03*
X3621600Y-42497600I321600J0D01*
G01*
X-58379200Y28936800D02*
G75*
G02*
X-58700000Y29257600I0J320800D01*
G01*
X-4370800Y47382800D02*
G75*
G03*
X-4050000Y47703600I0J320800D01*
G01*
X-58379200Y8084800D02*
G75*
G02*
X-58700000Y8405600I0J320800D01*
G01*
X-4050000Y18992000D02*
G75*
G03*
X-4370800Y19312800I-320800J0D01*
G01*
X-4050000Y46260000D02*
G75*
G03*
X-4370800Y46580800I-320800J0D01*
G01*
X-58700000Y32626000D02*
G75*
G02*
X-58379200Y32946800I320800J0D01*
G01*
X-58379200Y-35223200D02*
G75*
G02*
X-58700000Y-34902400I0J320800D01*
G01*
X-52000000Y56686000D02*
G75*
G02*
X-51679200Y57006800I320800J0D01*
G01*
X-1570800Y-34421200D02*
G75*
G03*
X-1250000Y-34100400I0J320800D01*
G01*
X-58700000Y-20306000D02*
G75*
G02*
X-58379200Y-19985200I320800J0D01*
G01*
X-58379200Y-40035200D02*
G75*
G02*
X-58700000Y-39714400I0J320800D01*
G01*
X3521600Y-1493600D02*
G75*
G03*
X3200000Y-1815200I0J-321600D01*
G01*
X58378400Y25038400D02*
G75*
G02*
X58700000Y24716800I0J-321600D01*
G01*
X-4820800Y-5549200D02*
G75*
G03*
X-4500000Y-5228400I0J320800D01*
G01*
X-58379200Y36956800D02*
G75*
G02*
X-58700000Y37277600I0J320800D01*
G01*
X1371600Y25842400D02*
G75*
G03*
X1050000Y25520800I0J-321600D01*
G01*
X58700000Y18124000D02*
G75*
G02*
X58378400Y17802400I-321600J0D01*
G01*
X58378400Y36294400D02*
G75*
G02*
X58700000Y35972800I0J-321600D01*
G01*
X-4050000Y12576000D02*
G75*
G03*
X-4370800Y12896800I-320800J0D01*
G01*
X3300000Y-6800000D02*
G75*
G03*
X3621600Y-7121600I321600J0D01*
G01*
X3300000Y-30920000D02*
G75*
G03*
X3621600Y-31241600I321600J0D01*
G01*
X-58379200Y-9559200D02*
G75*
G02*
X-58700000Y-9238400I0J320800D01*
G01*
X-58379200Y46580800D02*
G75*
G02*
X-58700000Y46901600I0J320800D01*
G01*
X-1250000Y-48376000D02*
G75*
G03*
X-1570800Y-48055200I-320800J0D01*
G01*
X3300000Y-18056000D02*
G75*
G03*
X3621600Y-18377600I321600J0D01*
G01*
X3300000Y-51824000D02*
G75*
G03*
X3621600Y-52145600I321600J0D01*
G01*
X-58379200Y-25599200D02*
G75*
G02*
X-58700000Y-25278400I0J320800D01*
G01*
X-1570800Y-47253200D02*
G75*
G03*
X-1250000Y-46932400I0J320800D01*
G01*
X3621600Y-54557600D02*
G75*
G03*
X3300000Y-54879200I0J-321600D01*
G01*
X58700000Y-49412000D02*
G75*
G02*
X58378400Y-49733600I-321600J0D01*
G01*
X-4050000Y9368000D02*
G75*
G03*
X-4370800Y9688800I-320800J0D01*
G01*
X1371600Y30666400D02*
G75*
G03*
X1050000Y30344800I0J-321600D01*
G01*
X-58700000Y-49178000D02*
G75*
G02*
X-58379200Y-48857200I320800J0D01*
G01*
X-58700000Y2150000D02*
G75*
G02*
X-58379200Y2470800I320800J0D01*
G01*
X-1570800Y-28005200D02*
G75*
G03*
X-1250000Y-27684400I0J320800D01*
G01*
X-58700000Y5358000D02*
G75*
G02*
X-58379200Y5678800I320800J0D01*
G01*
X-58700000Y-33138000D02*
G75*
G02*
X-58379200Y-32817200I320800J0D01*
G01*
X58378400Y-21593600D02*
G75*
G02*
X58700000Y-21915200I0J-321600D01*
G01*
X58378400Y20214400D02*
G75*
G02*
X58700000Y19892800I0J-321600D01*
G01*
X2050000Y2848000D02*
G75*
G03*
X2371600Y2526400I321600J0D01*
G01*
X3621600Y-40085600D02*
G75*
G03*
X3300000Y-40407200I0J-321600D01*
G01*
X-58379200Y-46451200D02*
G75*
G02*
X-58700000Y-46130400I0J320800D01*
G01*
X-58700000Y-10682000D02*
G75*
G02*
X-58379200Y-10361200I320800J0D01*
G01*
X-4370800Y44174800D02*
G75*
G03*
X-4050000Y44495600I0J320800D01*
G01*
X3621600Y-17573600D02*
G75*
G03*
X3300000Y-17895200I0J-321600D01*
G01*
X58700000Y43852000D02*
G75*
G02*
X58378400Y43530400I-321600J0D01*
G01*
X3300000Y-37352000D02*
G75*
G03*
X3621600Y-37673600I321600J0D01*
G01*
X-51250000Y55082000D02*
G75*
G02*
X-50929200Y55402800I320800J0D01*
G01*
X-58700000Y8566000D02*
G75*
G02*
X-58379200Y8886800I320800J0D01*
G01*
X58700000Y27772000D02*
G75*
G02*
X58378400Y27450400I-321600J0D01*
G01*
X-1250000Y-19504000D02*
G75*
G03*
X-1570800Y-19183200I-320800J0D01*
G01*
X3300000Y-55040000D02*
G75*
G03*
X3621600Y-55361600I321600J0D01*
G01*
X-1570800Y-44045200D02*
G75*
G03*
X-1250000Y-43724400I0J320800D01*
G01*
X-1570800Y-32817200D02*
G75*
G03*
X-1250000Y-32496400I0J320800D01*
G01*
X-4370800Y8886800D02*
G75*
G03*
X-4050000Y9207600I0J320800D01*
G01*
X-58700000Y35834000D02*
G75*
G02*
X-58379200Y36154800I320800J0D01*
G01*
X-58379200Y-27203200D02*
G75*
G02*
X-58700000Y-26882400I0J320800D01*
G01*
X-58379200Y-38431200D02*
G75*
G02*
X-58700000Y-38110400I0J320800D01*
G01*
X-50929200Y-54471200D02*
G75*
G02*
X-51250000Y-54150400I0J320800D01*
G01*
X58700000Y39028000D02*
G75*
G02*
X58378400Y38706400I-321600J0D01*
G01*
X58378400Y7350400D02*
G75*
G02*
X58700000Y7028800I0J-321600D01*
G01*
X58700000Y34204000D02*
G75*
G02*
X58378400Y33882400I-321600J0D01*
G01*
X1050000Y22144000D02*
G75*
G03*
X1371600Y21822400I321600J0D01*
G01*
X-51250000Y-53990000D02*
G75*
G02*
X-50929200Y-53669200I320800J0D01*
G01*
X58378400Y-10337600D02*
G75*
G02*
X58700000Y-10659200I0J-321600D01*
G01*
X3300000Y-43784000D02*
G75*
G03*
X3621600Y-44105600I321600J0D01*
G01*
X3300000Y-21272000D02*
G75*
G03*
X3621600Y-21593600I321600J0D01*
G01*
X58378400Y-2297600D02*
G75*
G02*
X58700000Y-2619200I0J-321600D01*
G01*
X3621600Y-12749600D02*
G75*
G03*
X3300000Y-13071200I0J-321600D01*
G01*
X-1570800Y-11965200D02*
G75*
G03*
X-1250000Y-11644400I0J320800D01*
G01*
X-1570800Y-15173200D02*
G75*
G03*
X-1250000Y-14852400I0J320800D01*
G01*
X-18520799Y52194800D02*
G75*
G03*
X-18199999Y52515600I0J320800D01*
G01*
X-58700000Y-21910000D02*
G75*
G02*
X-58379200Y-21589200I320800J0D01*
G01*
X-6820800Y5678800D02*
G75*
G03*
X-6500000Y5999600I0J320800D01*
G01*
X-58379200Y24124800D02*
G75*
G02*
X-58700000Y24445600I0J320800D01*
G01*
X-3070800Y-7153200D02*
G75*
G03*
X-2750000Y-6832400I0J320800D01*
G01*
X-52950000Y-52386000D02*
G75*
G02*
X-52629200Y-52065200I320800J0D01*
G01*
X-1570800Y-42441200D02*
G75*
G03*
X-1250000Y-42120400I0J320800D01*
G01*
X-58379200Y9688800D02*
G75*
G02*
X-58700000Y10009600I0J320800D01*
G01*
X-1250000Y-9880000D02*
G75*
G03*
X-1570800Y-9559200I-320800J0D01*
G01*
X1050000Y15712000D02*
G75*
G03*
X1371600Y15390400I321600J0D01*
G01*
X58378400Y16998400D02*
G75*
G02*
X58700000Y16676800I0J-321600D01*
G01*
X-4370800Y23322800D02*
G75*
G03*
X-4050000Y23643600I0J320800D01*
G01*
X-4050000Y14180000D02*
G75*
G03*
X-4370800Y14500800I-320800J0D01*
G01*
X-1570800Y-19985200D02*
G75*
G03*
X-1250000Y-19664400I0J320800D01*
G01*
X3300000Y-48608000D02*
G75*
G03*
X3621600Y-48929600I321600J0D01*
G01*
X-53600000Y51874000D02*
G75*
G02*
X-53279200Y52194800I320800J0D01*
G01*
X58378400Y49158400D02*
G75*
G02*
X58700000Y48836800I0J-321600D01*
G01*
X3300000Y-34136000D02*
G75*
G03*
X3621600Y-34457600I321600J0D01*
G01*
X1050000Y23752000D02*
G75*
G03*
X1371600Y23430400I321600J0D01*
G01*
X-1250000Y-22712000D02*
G75*
G03*
X-1570800Y-22391200I-320800J0D01*
G01*
X-4370800Y24926800D02*
G75*
G03*
X-4050000Y25247600I0J320800D01*
G01*
X-4370800Y26530800D02*
G75*
G03*
X-4050000Y26851600I0J320800D01*
G01*
X58378400Y-40889600D02*
G75*
G02*
X58700000Y-41211200I0J-321600D01*
G01*
X52528400Y-52145600D02*
G75*
G02*
X52850000Y-52467200I0J-321600D01*
G01*
X-58700000Y6962000D02*
G75*
G02*
X-58379200Y7282800I320800J0D01*
G01*
X-58700000Y26210000D02*
G75*
G02*
X-58379200Y26530800I320800J0D01*
G01*
X-58379200Y-17579200D02*
G75*
G02*
X-58700000Y-17258400I0J320800D01*
G01*
X1371600Y17802400D02*
G75*
G03*
X1050000Y17480800I0J-321600D01*
G01*
X-1570800Y-45649200D02*
G75*
G03*
X-1250000Y-45328400I0J320800D01*
G01*
X-1570800Y-31213200D02*
G75*
G03*
X-1250000Y-30892400I0J320800D01*
G01*
X-58700000Y13378000D02*
G75*
G02*
X-58379200Y13698800I320800J0D01*
G01*
X1050000Y26968000D02*
G75*
G03*
X1371600Y26646400I321600J0D01*
G01*
X58700000Y42244000D02*
G75*
G02*
X58378400Y41922400I-321600J0D01*
G01*
X3621600Y-22397600D02*
G75*
G03*
X3300000Y-22719200I0J-321600D01*
G01*
X3621600Y-28829600D02*
G75*
G03*
X3300000Y-29151200I0J-321600D01*
G01*
X3621600Y-3101600D02*
G75*
G03*
X3300000Y-3423200I0J-321600D01*
G01*
X58378400Y-689600D02*
G75*
G02*
X58700000Y-1011200I0J-321600D01*
G01*
X3300000Y-53432000D02*
G75*
G03*
X3621600Y-53753600I321600J0D01*
G01*
X-51679200Y56204800D02*
G75*
G02*
X-52000000Y56525600I0J320800D01*
G01*
X-1250000Y-29128000D02*
G75*
G03*
X-1570800Y-28807200I-320800J0D01*
G01*
X58378400Y8958400D02*
G75*
G02*
X58700000Y8636800I0J-321600D01*
G01*
X-58379200Y11292800D02*
G75*
G02*
X-58700000Y11613600I0J320800D01*
G01*
X1371600Y6546400D02*
G75*
G03*
X1050000Y6224800I0J-321600D01*
G01*
X-1250000Y-32336000D02*
G75*
G03*
X-1570800Y-32015200I-320800J0D01*
G01*
X1371600Y29058400D02*
G75*
G03*
X1050000Y28736800I0J-321600D01*
G01*
X-58700000Y45458000D02*
G75*
G02*
X-58379200Y45778800I320800J0D01*
G01*
X58378400Y18606400D02*
G75*
G02*
X58700000Y18284800I0J-321600D01*
G01*
X3300000Y-11624000D02*
G75*
G03*
X3621600Y-11945600I321600J0D01*
G01*
X-4370800Y21718800D02*
G75*
G03*
X-4050000Y22039600I0J320800D01*
G01*
X58378400Y31470400D02*
G75*
G02*
X58700000Y31148800I0J-321600D01*
G01*
X3621600Y-48125600D02*
G75*
G03*
X3300000Y-48447200I0J-321600D01*
G01*
X3300000Y-32528000D02*
G75*
G03*
X3621600Y-32849600I321600J0D01*
G01*
X3300000Y-26096000D02*
G75*
G03*
X3621600Y-26417600I321600J0D01*
G01*
X-58700000Y-42762000D02*
G75*
G02*
X-58379200Y-42441200I320800J0D01*
G01*
X-58379200Y14500800D02*
G75*
G02*
X-58700000Y14821600I0J320800D01*
G01*
X-1570800Y-16777200D02*
G75*
G03*
X-1250000Y-16456400I0J320800D01*
G01*
X-6800000Y2952000D02*
G75*
G03*
X-7120800Y3272800I-320800J0D01*
G01*
X-1250000Y-17900000D02*
G75*
G03*
X-1570800Y-17579200I-320800J0D01*
G01*
X-1570800Y-13569200D02*
G75*
G03*
X-1250000Y-13248400I0J320800D01*
G01*
X-58700000Y27814000D02*
G75*
G02*
X-58379200Y28134800I320800J0D01*
G01*
X1050000Y14104000D02*
G75*
G03*
X1371600Y13782400I321600J0D01*
G01*
X-58379200Y12896800D02*
G75*
G02*
X-58700000Y13217600I0J320800D01*
G01*
X3621600Y-56165600D02*
G75*
G03*
X3300000Y-56487200I0J-321600D01*
G01*
X58700000Y11692000D02*
G75*
G02*
X58378400Y11370400I-321600J0D01*
G01*
X-58700000Y40646000D02*
G75*
G02*
X-58379200Y40966800I320800J0D01*
G01*
X3621600Y114400D02*
G75*
G03*
X3300000Y-207200I0J-321600D01*
G01*
X-1250000Y-25920000D02*
G75*
G03*
X-1570800Y-25599200I-320800J0D01*
G01*
X1371600Y22626400D02*
G75*
G03*
X1050000Y22304800I0J-321600D01*
G01*
X58378400Y-11945600D02*
G75*
G02*
X58700000Y-12267200I0J-321600D01*
G01*
X3300000Y-29312000D02*
G75*
G03*
X3621600Y-29633600I321600J0D01*
G01*
X1050000Y7672000D02*
G75*
G03*
X1371600Y7350400I321600J0D01*
G01*
X58378400Y-19985600D02*
G75*
G02*
X58700000Y-20307200I0J-321600D01*
G01*
X-4900000Y7764000D02*
G75*
G03*
X-5220800Y8084800I-320800J0D01*
G01*
X-4050000Y27012000D02*
G75*
G03*
X-4370800Y27332800I-320800J0D01*
G01*
X1050000Y31792000D02*
G75*
G03*
X1371600Y31470400I321600J0D01*
G01*
X58700000Y-9212000D02*
G75*
G02*
X58378400Y-9533600I-321600J0D01*
G01*
X-4500000Y-5068000D02*
G75*
G03*
X-4820800Y-4747200I-320800J0D01*
G01*
X-1570800Y-56877200D02*
G75*
G03*
X-1250000Y-56556400I0J320800D01*
G01*
X58700000Y-1172000D02*
G75*
G02*
X58378400Y-1493600I-321600J0D01*
G01*
X58700000Y-2780000D02*
G75*
G02*
X58378400Y-3101600I-321600J0D01*
G01*
X58378400Y37902400D02*
G75*
G02*
X58700000Y37580800I0J-321600D01*
G01*
X-58700000Y21398000D02*
G75*
G02*
X-58379200Y21718800I320800J0D01*
G01*
X-58379200Y-33619200D02*
G75*
G02*
X-58700000Y-33298400I0J320800D01*
G01*
X3621600Y-38477600D02*
G75*
G03*
X3300000Y-38799200I0J-321600D01*
G01*
X58378400Y50766400D02*
G75*
G02*
X58700000Y50444800I0J-321600D01*
G01*
X-52629200Y-52867200D02*
G75*
G02*
X-52950000Y-52546400I0J320800D01*
G01*
X58700000Y-44588000D02*
G75*
G02*
X58378400Y-44909600I-321600J0D01*
G01*
X58378400Y-44105600D02*
G75*
G02*
X58700000Y-44427200I0J-321600D01*
G01*
X58700000Y2044000D02*
G75*
G02*
X58378400Y1722400I-321600J0D01*
G01*
X-4050000Y36636000D02*
G75*
G03*
X-4370800Y36956800I-320800J0D01*
G01*
X-4370800Y32946800D02*
G75*
G03*
X-4050000Y33267600I0J320800D01*
G01*
X58700000Y19732000D02*
G75*
G02*
X58378400Y19410400I-321600J0D01*
G01*
X58700000Y-23684000D02*
G75*
G02*
X58378400Y-24005600I-321600J0D01*
G01*
X-4050000Y23804000D02*
G75*
G03*
X-4370800Y24124800I-320800J0D01*
G01*
X-1250000Y-56396000D02*
G75*
G03*
X-1570800Y-56075200I-320800J0D01*
G01*
X-1570800Y-39233200D02*
G75*
G03*
X-1250000Y-38912400I0J320800D01*
G01*
X-58700000Y-31534000D02*
G75*
G02*
X-58379200Y-31213200I320800J0D01*
G01*
X1050000Y9280000D02*
G75*
G03*
X1371600Y8958400I321600J0D01*
G01*
X-1570800Y-29609200D02*
G75*
G03*
X-1250000Y-29288400I0J320800D01*
G01*
X-58379200Y-48055200D02*
G75*
G02*
X-58700000Y-47734400I0J320800D01*
G01*
X3621600Y-44909600D02*
G75*
G03*
X3300000Y-45231200I0J-321600D01*
G01*
X-58700000Y-47574000D02*
G75*
G02*
X-58379200Y-47253200I320800J0D01*
G01*
X1371600Y21018400D02*
G75*
G03*
X1050000Y20696800I0J-321600D01*
G01*
X-58379200Y-11163200D02*
G75*
G02*
X-58700000Y-10842400I0J320800D01*
G01*
X-51250000Y-58000000D02*
G75*
G03*
X-51570800Y-57679200I-320800J0D01*
G01*
X-1250000Y-40356000D02*
G75*
G03*
X-1570800Y-40035200I-320800J0D01*
G01*
X1050000Y51088000D02*
G75*
G03*
X1371600Y50766400I321600J0D01*
G01*
X-58379200Y-44847200D02*
G75*
G02*
X-58700000Y-44526400I0J320800D01*
G01*
X-1250000Y-45168000D02*
G75*
G03*
X-1570800Y-44847200I-320800J0D01*
G01*
X-58379200Y-19183200D02*
G75*
G02*
X-58700000Y-18862400I0J320800D01*
G01*
X-58379200Y30540800D02*
G75*
G02*
X-58700000Y30861600I0J320800D01*
G01*
X-58379200Y-1539200D02*
G75*
G02*
X-58700000Y-1218400I0J320800D01*
G01*
X-16920800Y50590800D02*
G75*
G03*
X-16600000Y50911600I0J320800D01*
G01*
X-1250000Y-11484000D02*
G75*
G03*
X-1570800Y-11163200I-320800J0D01*
G01*
X58700000Y-12428000D02*
G75*
G02*
X58378400Y-12749600I-321600J0D01*
G01*
X1371600Y38706400D02*
G75*
G03*
X1050000Y38384800I0J-321600D01*
G01*
X1050000Y20536000D02*
G75*
G03*
X1371600Y20214400I321600J0D01*
G01*
X58700000Y37420000D02*
G75*
G02*
X58378400Y37098400I-321600J0D01*
G01*
X-58379200Y48184800D02*
G75*
G02*
X-58700000Y48505600I0J320800D01*
G01*
X58700000Y32596000D02*
G75*
G02*
X58378400Y32274400I-321600J0D01*
G01*
X-4050000Y43052000D02*
G75*
G03*
X-4370800Y43372800I-320800J0D01*
G01*
X-58379200Y-4747200D02*
G75*
G02*
X-58700000Y-4426400I0J320800D01*
G01*
X-58700000Y-29930000D02*
G75*
G02*
X-58379200Y-29609200I320800J0D01*
G01*
X-58379200Y-20787200D02*
G75*
G02*
X-58700000Y-20466400I0J320800D01*
G01*
X-58700000Y-9078000D02*
G75*
G02*
X-58379200Y-8757200I320800J0D01*
G01*
X58378400Y26646400D02*
G75*
G02*
X58700000Y26324800I0J-321600D01*
G01*
X3300000Y-35744000D02*
G75*
G03*
X3621600Y-36065600I321600J0D01*
G01*
X3300000Y-40568000D02*
G75*
G03*
X3621600Y-40889600I321600J0D01*
G01*
X3621600Y-20789600D02*
G75*
G03*
X3300000Y-21111200I0J-321600D01*
G01*
X-1250000Y-21108000D02*
G75*
G03*
X-1570800Y-20787200I-320800J0D01*
G01*
X-4370800Y31342800D02*
G75*
G03*
X-4050000Y31663600I0J320800D01*
G01*
X58378400Y-26417600D02*
G75*
G02*
X58700000Y-26739200I0J-321600D01*
G01*
X-4050000Y31824000D02*
G75*
G03*
X-4370800Y32144800I-320800J0D01*
G01*
D19*
%TO.N,Net-(LED1-PadA)*%
X-5850000Y56000000D02*
X-8150000Y56000000D01*
%TD*%
M02*
