%TF.GenerationSoftware,KiCad,Pcbnew,9.0.4*%
%TF.CreationDate,2025-09-03T20:12:05-03:00*%
%TF.ProjectId,Buildplate_v1.0,4275696c-6470-46c6-9174-655f76312e30,rev?*%
%TF.SameCoordinates,Original*%
%TF.FileFunction,Soldermask,Top*%
%TF.FilePolarity,Negative*%
%FSLAX46Y46*%
G04 Gerber Fmt 4.6, Leading zero omitted, Abs format (unit mm)*
G04 Created by KiCad (PCBNEW 9.0.4) date 2025-09-03 20:12:05*
%MOMM*%
%LPD*%
G01*
G04 APERTURE LIST*
G04 Aperture macros list*
%AMRoundRect*
0 Rectangle with rounded corners*
0 $1 Rounding radius*
0 $2 $3 $4 $5 $6 $7 $8 $9 X,Y pos of 4 corners*
0 Add a 4 corners polygon primitive as box body*
4,1,4,$2,$3,$4,$5,$6,$7,$8,$9,$2,$3,0*
0 Add four circle primitives for the rounded corners*
1,1,$1+$1,$2,$3*
1,1,$1+$1,$4,$5*
1,1,$1+$1,$6,$7*
1,1,$1+$1,$8,$9*
0 Add four rect primitives between the rounded corners*
20,1,$1+$1,$2,$3,$4,$5,0*
20,1,$1+$1,$4,$5,$6,$7,0*
20,1,$1+$1,$6,$7,$8,$9,0*
20,1,$1+$1,$8,$9,$2,$3,0*%
G04 Aperture macros list end*
%ADD10RoundRect,0.101600X-7.500000X-1.500000X7.500000X-1.500000X7.500000X1.500000X-7.500000X1.500000X0*%
%ADD11RoundRect,0.250000X1.075000X-0.375000X1.075000X0.375000X-1.075000X0.375000X-1.075000X-0.375000X0*%
%ADD12RoundRect,0.200000X-0.200000X-0.275000X0.200000X-0.275000X0.200000X0.275000X-0.200000X0.275000X0*%
%ADD13RoundRect,0.101600X-0.550000X-0.500000X0.550000X-0.500000X0.550000X0.500000X-0.550000X0.500000X0*%
%ADD14RoundRect,0.101600X1.000000X2.500000X-1.000000X2.500000X-1.000000X-2.500000X1.000000X-2.500000X0*%
%ADD15RoundRect,0.101600X-1.000000X-2.500000X1.000000X-2.500000X1.000000X2.500000X-1.000000X2.500000X0*%
%ADD16RoundRect,0.101600X-0.635000X-1.270000X0.635000X-1.270000X0.635000X1.270000X-0.635000X1.270000X0*%
G04 APERTURE END LIST*
D10*
%TO.C,UNK1*%
X-20000000Y56000000D03*
%TD*%
D11*
%TO.C,REF\u002A\u002A*%
X-67500000Y19200000D03*
X-67500000Y22000000D03*
%TD*%
D12*
%TO.C,REF\u002A\u002A*%
X-68325000Y41100000D03*
X-66675000Y41100000D03*
%TD*%
D11*
%TO.C,REF\u002A\u002A*%
X-67500000Y48200000D03*
X-67500000Y51000000D03*
%TD*%
%TO.C,REF\u002A\u002A*%
X-67500000Y-58800000D03*
X-67500000Y-56000000D03*
%TD*%
D13*
%TO.C,R_LED1*%
X-9850000Y56000000D03*
X-8150000Y56000000D03*
%TD*%
D11*
%TO.C,REF\u002A\u002A*%
X-67500000Y-7800000D03*
X-67500000Y-5000000D03*
%TD*%
D13*
%TO.C,LED1*%
X-5850000Y56000000D03*
X-4150000Y56000000D03*
%TD*%
D11*
%TO.C,REF\u002A\u002A*%
X-67500000Y-36800000D03*
X-67500000Y-34000000D03*
%TD*%
%TO.C,REF\u002A\u002A*%
X-67500000Y9200000D03*
X-67500000Y12000000D03*
%TD*%
%TO.C,REF\u002A\u002A*%
X-67500000Y-2800000D03*
X-67500000Y0D03*
%TD*%
%TO.C,REF\u002A\u002A*%
X-67500000Y2200000D03*
X-67500000Y5000000D03*
%TD*%
D12*
%TO.C,REF\u002A\u002A*%
X-68325000Y-26900000D03*
X-66675000Y-26900000D03*
%TD*%
D14*
%TO.C,UNK1*%
X-66250000Y79250000D03*
%TD*%
D12*
%TO.C,REF\u002A\u002A*%
X-68325000Y58100000D03*
X-66675000Y58100000D03*
%TD*%
D10*
%TO.C,UNK2*%
X15000000Y56000000D03*
%TD*%
D12*
%TO.C,REF\u002A\u002A*%
X-68325000Y-43900000D03*
X-66675000Y-43900000D03*
%TD*%
D11*
%TO.C,REF\u002A\u002A*%
X-67500000Y-53800000D03*
X-67500000Y-51000000D03*
%TD*%
D12*
%TO.C,REF\u002A\u002A*%
X-68325000Y-9900000D03*
X-66675000Y-9900000D03*
%TD*%
D11*
%TO.C,REF\u002A\u002A*%
X-67500000Y65200000D03*
X-67500000Y68000000D03*
%TD*%
%TO.C,REF\u002A\u002A*%
X-67500000Y-48800000D03*
X-67500000Y-46000000D03*
%TD*%
D15*
%TO.C,UNK1*%
X-68625000Y79250000D03*
%TD*%
D11*
%TO.C,REF\u002A\u002A*%
X-67500000Y60200000D03*
X-67500000Y63000000D03*
%TD*%
%TO.C,REF\u002A\u002A*%
X-67500000Y14200000D03*
X-67500000Y17000000D03*
%TD*%
D16*
%TO.C,U$5*%
X1500000Y56000000D03*
%TD*%
D13*
%TO.C,NTC*%
X-850000Y4000000D03*
X850000Y4000000D03*
%TD*%
D12*
%TO.C,REF\u002A\u002A*%
X-68325000Y75100000D03*
X-66675000Y75100000D03*
%TD*%
%TO.C,REF\u002A\u002A*%
X-68325000Y24100000D03*
X-66675000Y24100000D03*
%TD*%
D11*
%TO.C,REF\u002A\u002A*%
X-67500000Y53200000D03*
X-67500000Y56000000D03*
%TD*%
D16*
%TO.C,U$4*%
X-1500000Y56000000D03*
%TD*%
D11*
%TO.C,REF\u002A\u002A*%
X-67500000Y26200000D03*
X-67500000Y29000000D03*
%TD*%
%TO.C,REF\u002A\u002A*%
X-67500000Y70200000D03*
X-67500000Y73000000D03*
%TD*%
D10*
%TO.C,UNK3*%
X35000000Y56000000D03*
%TD*%
D12*
%TO.C,REF\u002A\u002A*%
X-68325000Y7100000D03*
X-66675000Y7100000D03*
%TD*%
D11*
%TO.C,REF\u002A\u002A*%
X-67500000Y-41800000D03*
X-67500000Y-39000000D03*
%TD*%
%TO.C,REF\u002A\u002A*%
X-67500000Y-14800000D03*
X-67500000Y-12000000D03*
%TD*%
%TO.C,REF\u002A\u002A*%
X-67500000Y36200000D03*
X-67500000Y39000000D03*
%TD*%
%TO.C,REF\u002A\u002A*%
X-67500000Y31200000D03*
X-67500000Y34000000D03*
%TD*%
%TO.C,REF\u002A\u002A*%
X-67500000Y-31800000D03*
X-67500000Y-29000000D03*
%TD*%
%TO.C,REF\u002A\u002A*%
X-67500000Y-24800000D03*
X-67500000Y-22000000D03*
%TD*%
%TO.C,REF\u002A\u002A*%
X-67500000Y43200000D03*
X-67500000Y46000000D03*
%TD*%
%TO.C,REF\u002A\u002A*%
X-67500000Y-19800000D03*
X-67500000Y-17000000D03*
%TD*%
M02*
